<?xml version="1.0" encoding="utf-8"?>
<!-- Generator: Adobe Illustrator 24.0.3, SVG Export Plug-In . SVG Version: 6.00 Build 0)  -->
<svg version="1.1" id="cancel" xmlns="http://www.w3.org/2000/svg" xmlns:xlink="http://www.w3.org/1999/xlink" x="0px" y="0px"
	 viewBox="0 0 100 100" style="enable-background:new 0 0 100 100;" xml:space="preserve">
<g>
	<path d="M75.14,96.5c-0.95,0-1.93-0.07-2.96-0.21l-1.65-0.22c-12.31-1.67-26.26-3.56-44.06-21.31c-0.06-0.05-0.11-0.1-0.16-0.16
		c-0.02-0.02-0.05-0.05-0.07-0.08C8.46,56.72,6.54,42.63,4.84,30.2l-0.2-1.47C2.76,15.14,14.13,8.24,17.66,6.45
		c9.03-4.58,13.35-1.1,20.42,7.36c7.38,8.84,7.57,16.52,0.59,23.51c-5.04,5.04-4.14,6.4-3.09,7.98l0.37,0.56
		c1.25,2,4.7,6.88,8.87,11.04c3.92,3.92,8.58,7.25,10.09,8.01c0.32,0.16,0.63,0.34,0.94,0.52c1.62,0.94,2.91,1.69,7.76-3.16
		c6.99-6.99,14.68-6.79,23.51,0.59c8.46,7.07,11.94,11.39,7.36,20.42l0,0C92.8,86.54,86.78,96.5,75.14,96.5z M29.19,71.75
		c0.01,0.01,0.02,0.02,0.04,0.04c16.89,16.89,30.16,18.69,41.86,20.27l1.66,0.23c10.65,1.45,16.21-7.09,18.11-10.84
		c3.09-6.08,2.14-8.39-6.34-15.48c-7.31-6.11-12.54-6.35-18.06-0.83c-6.52,6.52-9.59,5.57-12.65,3.8c-0.24-0.14-0.48-0.28-0.73-0.41
		c-2-1.01-6.98-4.62-11.13-8.76c-4.42-4.42-8.11-9.62-9.44-11.76l-0.31-0.47c-1.99-3-3.2-6.26,3.6-13.07
		c5.52-5.52,5.28-10.75-0.83-18.06c-7.09-8.48-9.4-9.43-15.48-6.34c-3.75,1.9-12.31,7.48-10.84,18.11l0.2,1.48
		c1.61,11.81,3.43,25.19,20.28,42.05C29.15,71.71,29.17,71.73,29.19,71.75z M92.66,82.36h0.02H92.66z"/>
</g>
</svg>
