<svg width="46" height="45" viewBox="0 0 46 45" fill="none" xmlns="http://www.w3.org/2000/svg">
<path d="M44.6605 22.75C44.6605 34.4406 34.8596 43.9486 22.7309 43.9486C10.6022 43.9486 0.801364 34.4406 0.801364 22.75C0.801364 11.0593 10.6022 1.55136 22.7309 1.55136C34.8596 1.55136 44.6605 11.0593 44.6605 22.75Z" stroke="black" stroke-width="1.10273"/>
<path fill-rule="evenodd" clip-rule="evenodd" d="M23.0116 1.78155C22.9183 1.78037 22.8249 1.77979 22.7312 1.77979C21.4118 1.77979 20.1201 1.89665 18.8666 2.12038L27.0421 7.90599L23.0116 1.78155ZM5.59555 10.1713C3.786 12.5314 2.47307 15.2776 1.80866 18.261L12.8129 23.9937L5.59555 10.1713ZM18.2331 43.2565C13.1082 42.1837 8.66289 39.3154 5.61693 35.3563L9.29963 39.039L13.6883 34.6503L10.4201 31.3821L1.62109 23.4238L17.1239 31.2031L15.7605 32.5665L13.7179 34.6092L18.2331 43.2565ZM23.6099 43.7026C24.306 43.6751 24.9935 43.615 25.671 43.524L20.8399 38.1825L23.6099 43.7026ZM32.1873 41.5699C33.4173 40.9762 34.5807 40.2702 35.6635 39.4656L19.4806 28.858L19.478 28.8606L32.1873 41.5699ZM41.4489 32.9449C41.9808 32.0104 42.4419 31.032 42.825 30.0165L37.3304 26.5258L41.4489 32.9449ZM39.0993 9.22767L35.6932 12.6339L29.393 2.81432C33.2146 4.03815 36.5628 6.28639 39.0993 9.22767ZM33.8768 14.4618L35.3641 12.9745L43.9152 25.0644L31.4212 16.9174L33.3399 14.9987L33.8768 14.4618ZM12.0056 4.62773L31.1503 17.1768L29.8267 18.5003L29.3132 19.0138L27.8525 20.4746L12.0056 4.62773ZM23.8341 24.5045L27.7187 20.6199L35.8897 33.036L23.8341 24.5045ZM20.1897 21.6125L23.4521 24.8749L20.0107 28.3163L12.2314 12.8135L20.1897 21.6125Z" fill="black"/>
</svg>
