<?xml version="1.0" encoding="utf-8"?>
<!-- Generator: Adobe Illustrator 24.0.3, SVG Export Plug-In . SVG Version: 6.00 Build 0)  -->
<svg version="1.1" id="skip" xmlns="http://www.w3.org/2000/svg" xmlns:xlink="http://www.w3.org/1999/xlink" x="0px" y="0px"
	 viewBox="0 0 100 100" style="enable-background:new 0 0 100 100;" xml:space="preserve">
<g>
	<g>
		<rect x="3.83" y="23.38" width="81.7" height="3.39"/>
	</g>
	<g>
		<path d="M66,83.84H10.33c-3.87,0-7.02-3.15-7.02-7.02v-59.1c0-3.87,3.15-7.02,7.02-7.02H79.1c3.87,0,7.02,3.15,7.02,7.02v47.49
			h-3.39V17.73c0-2-1.63-3.63-3.63-3.63H10.33c-2,0-3.63,1.63-3.63,3.63v59.1c0,2,1.63,3.63,3.63,3.63H66V83.84z"/>
	</g>
	<g>
		<path d="M20.74,19.38c-0.94,0-1.7-0.76-1.7-1.7V7.12c0-0.94,0.76-1.7,1.7-1.7s1.7,0.76,1.7,1.7v10.56
			C22.43,18.62,21.67,19.38,20.74,19.38z"/>
	</g>
	<g>
		<path d="M68.7,19.38c-0.94,0-1.7-0.76-1.7-1.7V7.12c0-0.94,0.76-1.7,1.7-1.7s1.7,0.76,1.7,1.7v10.56
			C70.39,18.62,69.63,19.38,68.7,19.38z"/>
	</g>
	<g>
		<path d="M80.9,95.24c-9.15,0-16.59-7.44-16.59-16.59s7.44-16.59,16.59-16.59c9.15,0,16.6,7.44,16.6,16.59S90.06,95.24,80.9,95.24z
			 M80.9,65.45c-7.28,0-13.2,5.92-13.2,13.2s5.92,13.2,13.2,13.2c7.28,0,13.21-5.92,13.21-13.2S88.19,65.45,80.9,65.45z"/>
	</g>
	<g>
		<g>
			<path d="M43.1,62.51c2.23,0,4.94-1.3,4.94-4.79c0-3.45-2.45-4.97-5.35-4.97c-1.71,0-3.41,0.56-4.6,1.34l-2.19-1.3l2.41-12.29
				h13.62l-0.04,3.97H41.36l-1.19,5.72c1.19-0.52,2.75-0.85,4.27-0.85c4.68,0,8.5,3.08,8.5,8.46c0,5.6-4.71,8.72-10.02,8.72
				c-4.86,0-8.17-3.38-8.8-4.27l2.56-3.04C37.98,60.84,40.17,62.51,43.1,62.51z"/>
		</g>
	</g>
	<g>
		<path d="M77.54,85.57c-0.45,0-0.88-0.18-1.2-0.5l-3.16-3.15c-0.66-0.66-0.66-1.73,0-2.4s1.73-0.66,2.4,0l1.86,1.86l7.81-9.16
			c0.61-0.72,1.68-0.8,2.39-0.19c0.71,0.61,0.8,1.68,0.19,2.39l-9,10.56c-0.31,0.36-0.75,0.58-1.22,0.59
			C77.59,85.57,77.56,85.57,77.54,85.57z"/>
	</g>
</g>
<g>
</g>
<g>
</g>
</svg>
