<svg width="53" height="49" viewBox="0 0 53 49" fill="none" xmlns="http://www.w3.org/2000/svg">
<path fill-rule="evenodd" clip-rule="evenodd" d="M10.9946 14.2695H8.49252C7.83957 15.3743 7.28659 16.5427 6.8457 17.7631H12.8188L10.9946 14.2695ZM19.1991 17.7631H18.0151L16.5395 14.8225L19.1991 17.7631ZM33.288 17.7631H27.4401L23.9466 14.2695H27.9582L33.288 17.7631ZM41.6383 17.7631H36.8927L37.6481 17.0077L38.185 16.4708L39.6723 14.9835L41.6383 17.7631ZM39.7618 14.2695H40.3747L40.0014 14.6429L39.7618 14.2695Z" fill="white"/>
<path fill-rule="evenodd" clip-rule="evenodd" d="M16.4666 24.75H14.7163L17.1205 26.0025L16.4666 24.75ZM9.03668 28.2436L5.92871 25.4326L11.5305 28.2436H9.03668ZM26.3999 28.2436H23.2738L21.5207 24.75H25.6259L27.7597 26.8838L26.3999 28.2436ZM35.7214 28.2436H30.5866L28.1417 26.5133L29.905 24.75H33.4223L35.7214 28.2436ZM46.5796 24.75L48.2228 27.0732L44.6599 24.75H46.5796Z" fill="white"/>
<path fill-rule="evenodd" clip-rule="evenodd" d="M19.1256 38.724H15.931L17.9962 36.6588L16.5678 35.2305H19.413L18.0257 36.6177L19.1256 38.724ZM35.7757 38.724H31.6407L28.1472 35.2305H30.446L35.7757 38.724ZM11.284 38.724L9.9248 37.3648C10.2854 37.8336 10.6657 38.287 11.0644 38.724H11.284Z" fill="white"/>
<path fill-rule="evenodd" clip-rule="evenodd" d="M26.5779 3.78906C26.6715 3.78906 26.7649 3.78965 26.8583 3.79082L30.8888 9.91527L22.7132 4.12966C23.9668 3.90593 25.2584 3.78906 26.5779 3.78906ZM8.03094 14.2698C8.45944 13.5448 8.93098 12.8473 9.44216 12.1806L10.533 14.2698H8.03094ZM6.46352 17.5474C6.13386 18.4288 5.8629 19.338 5.65527 20.2703L14.2553 24.7505H16.0056L12.3572 17.7633H6.38413C6.4102 17.6912 6.43667 17.6192 6.46352 17.5474ZM9.46355 37.3656C12.5095 41.3246 16.9548 44.193 22.0797 45.2658L18.6643 38.7247H15.6573L17.6328 36.7493L17.5645 36.6184L17.6229 36.56L16.2941 35.2312H18.9517L19.6071 34.5758L20.9705 33.2124L11.0695 28.244H8.57567L14.2668 33.3914L17.5349 36.6595L13.1462 41.0482L10.8227 38.7247H10.7907C10.6987 38.624 10.6078 38.5223 10.5178 38.4198L9.46355 37.3656ZM29.5176 45.5332C28.8401 45.6243 28.1526 45.6844 27.4565 45.7119L24.6865 40.1918L29.5176 45.5332ZM39.5101 41.4749C38.4273 42.2795 37.2639 42.9854 36.0339 43.5792L23.3246 30.8699L23.3272 30.8673L29.9847 35.2312H27.8735L31.367 38.7247H35.3144L39.5101 41.4749ZM46.6716 32.0258C46.2885 33.0412 45.8274 34.0197 45.2955 34.9542L41.177 28.5351L46.6716 32.0258ZM39.9131 14.2698L42.946 11.2369C40.4095 8.29567 37.0612 6.04742 33.2396 4.8236L39.3002 14.2698H39.9131ZM36.4312 17.7633L35.2678 18.9267L44.1989 24.7505H46.1186L41.1767 17.7633H36.4312ZM27.4967 14.2698L15.8522 6.63701L23.485 14.2698H27.4967ZM26.9786 17.7633H32.8264L34.9969 19.186L33.6734 20.5096L33.1598 21.0231L31.6991 22.4838L26.9786 17.7633ZM31.5653 22.6292L29.444 24.7505H32.9613L31.5653 22.6292ZM39.7363 35.0452L35.2604 28.244H30.1256L39.7363 35.0452ZM22.8128 28.244H25.9389L23.8573 30.3256L22.8128 28.244ZM17.5536 17.7633L21.0597 24.7505H25.1649L24.0363 23.6218L18.7376 17.7633H17.5536Z" fill="white"/>
<path fill-rule="evenodd" clip-rule="evenodd" d="M9.94189 14.2695H7.43978C6.78683 15.3743 6.23385 16.5427 5.79297 17.7631H11.7661L9.94189 14.2695ZM18.1464 17.7631H16.9624L15.4868 14.8225L18.1464 17.7631ZM32.2352 17.7631H26.3874L22.8938 14.2695H26.9055L32.2352 17.7631ZM40.5855 17.7631H35.84L36.5954 17.0077L37.1323 16.4708L38.6196 14.9835L40.5855 17.7631ZM38.7091 14.2695H39.322L38.9486 14.6429L38.7091 14.2695Z" fill="white"/>
<path fill-rule="evenodd" clip-rule="evenodd" d="M15.4138 24.75H13.6636L16.0678 26.0025L15.4138 24.75ZM7.98394 28.2436L4.87598 25.4326L10.4778 28.2436H7.98394ZM25.3471 28.2436H22.2211L20.468 24.75H24.5732L26.707 26.8838L25.3471 28.2436ZM34.6687 28.2436H29.5339L27.089 26.5133L28.8523 24.75H32.3696L34.6687 28.2436ZM45.5269 24.75L47.17 27.0732L43.6072 24.75H45.5269Z" fill="white"/>
<path fill-rule="evenodd" clip-rule="evenodd" d="M18.0728 38.724H14.8783L16.9435 36.6588L15.5151 35.2305H18.3603L16.973 36.6177L18.0728 38.724ZM34.723 38.724H30.588L27.0944 35.2305H29.3932L34.723 38.724ZM10.2313 38.724L8.87207 37.3648C9.2327 37.8336 9.61295 38.287 10.0116 38.724H10.2313Z" fill="white"/>
<path fill-rule="evenodd" clip-rule="evenodd" d="M25.5251 3.78906C25.6187 3.78906 25.7122 3.78965 25.8055 3.79082L29.836 9.91527L21.6605 4.12966C22.914 3.90593 24.2056 3.78906 25.5251 3.78906ZM6.97821 14.2698C7.4067 13.5448 7.87825 12.8473 8.38943 12.1806L9.48031 14.2698H6.97821ZM5.41079 17.5474C5.08113 18.4288 4.81017 19.338 4.60254 20.2703L13.2026 24.7505H14.9528L11.3045 17.7633H5.33139C5.35747 17.6912 5.38393 17.6192 5.41079 17.5474ZM8.41081 37.3656C11.4568 41.3246 15.9021 44.193 21.027 45.2658L17.6116 38.7247H14.6046L16.5801 36.7493L16.5117 36.6184L16.5702 36.56L15.2414 35.2312H17.899L18.5544 34.5758L19.9178 33.2124L10.0168 28.244H7.52294L13.214 33.3914L16.4822 36.6595L12.0935 41.0482L9.77 38.7247H9.73792C9.646 38.624 9.55505 38.5223 9.46509 38.4198L8.41081 37.3656ZM28.4648 45.5332C27.7874 45.6243 27.0999 45.6844 26.4038 45.7119L23.6338 40.1918L28.4648 45.5332ZM38.4573 41.4749C37.3745 42.2795 36.2112 42.9854 34.9812 43.5792L22.2719 30.8699L22.2745 30.8673L28.932 35.2312H26.8207L30.3143 38.7247H34.2617L38.4573 41.4749ZM45.6189 32.0258C45.2358 33.0412 44.7747 34.0197 44.2428 34.9542L40.1243 28.5351L45.6189 32.0258ZM38.8604 14.2698L41.8932 11.2369C39.3567 8.29567 36.0085 6.04742 32.1868 4.8236L38.2475 14.2698H38.8604ZM35.3784 17.7633L34.215 18.9267L43.1462 24.7505H45.0659L40.1239 17.7633H35.3784ZM26.4439 14.2698L14.7995 6.63701L22.4323 14.2698H26.4439ZM25.9258 17.7633H31.7737L33.9441 19.186L32.6206 20.5096L32.1071 21.0231L30.6463 22.4838L25.9258 17.7633ZM30.5126 22.6292L28.3913 24.7505H31.9086L30.5126 22.6292ZM38.6836 35.0452L34.2077 28.244H29.0729L38.6836 35.0452ZM21.7601 28.244H24.8861L22.8046 30.3256L21.7601 28.244ZM16.5008 17.7633L20.007 24.7505H24.1122L22.9836 23.6218L17.6848 17.7633H16.5008Z" fill="white"/>
<path fill-rule="evenodd" clip-rule="evenodd" d="M10.9946 14.2695H8.49252C7.83957 15.3743 7.28659 16.5427 6.8457 17.7631H12.8188L10.9946 14.2695ZM19.1991 17.7631H18.0151L16.5395 14.8225L19.1991 17.7631ZM33.288 17.7631H27.4401L23.9466 14.2695H27.9582L33.288 17.7631ZM41.6383 17.7631H36.8927L37.6481 17.0077L38.185 16.4708L39.6723 14.9835L41.6383 17.7631ZM39.7618 14.2695H40.3747L40.0014 14.6429L39.7618 14.2695Z" fill="#FF5ABE" style="mix-blend-mode:multiply"/>
<path fill-rule="evenodd" clip-rule="evenodd" d="M16.4666 24.75H14.7163L17.1205 26.0025L16.4666 24.75ZM9.03668 28.2436L5.92871 25.4326L11.5305 28.2436H9.03668ZM26.3999 28.2436H23.2738L21.5207 24.75H25.6259L27.7597 26.8838L26.3999 28.2436ZM35.7214 28.2436H30.5866L28.1417 26.5133L29.905 24.75H33.4223L35.7214 28.2436ZM46.5796 24.75L48.2228 27.0732L44.6599 24.75H46.5796Z" fill="#FF5ABE" style="mix-blend-mode:multiply"/>
<path fill-rule="evenodd" clip-rule="evenodd" d="M19.1256 38.724H15.931L17.9962 36.6588L16.5678 35.2305H19.413L18.0257 36.6177L19.1256 38.724ZM35.7757 38.724H31.6407L28.1472 35.2305H30.446L35.7757 38.724ZM11.284 38.724L9.9248 37.3648C10.2854 37.8336 10.6657 38.287 11.0644 38.724H11.284Z" fill="#FF5ABE" style="mix-blend-mode:multiply"/>
<path fill-rule="evenodd" clip-rule="evenodd" d="M26.5779 3.78906C26.6715 3.78906 26.7649 3.78965 26.8583 3.79082L30.8888 9.91527L22.7132 4.12966C23.9668 3.90593 25.2584 3.78906 26.5779 3.78906ZM8.03094 14.2698C8.45944 13.5448 8.93098 12.8473 9.44216 12.1806L10.533 14.2698H8.03094ZM6.46352 17.5474C6.13386 18.4288 5.8629 19.338 5.65527 20.2703L14.2553 24.7505H16.0056L12.3572 17.7633H6.38413C6.4102 17.6912 6.43667 17.6192 6.46352 17.5474ZM9.46355 37.3656C12.5095 41.3246 16.9548 44.193 22.0797 45.2658L18.6643 38.7247H15.6573L17.6328 36.7493L17.5645 36.6184L17.6229 36.56L16.2941 35.2312H18.9517L19.6071 34.5758L20.9705 33.2124L11.0695 28.244H8.57567L14.2668 33.3914L17.5349 36.6595L13.1462 41.0482L10.8227 38.7247H10.7907C10.6987 38.624 10.6078 38.5223 10.5178 38.4198L9.46355 37.3656ZM29.5176 45.5332C28.8401 45.6243 28.1526 45.6844 27.4565 45.7119L24.6865 40.1918L29.5176 45.5332ZM39.5101 41.4749C38.4273 42.2795 37.2639 42.9854 36.0339 43.5792L23.3246 30.8699L23.3272 30.8673L29.9847 35.2312H27.8735L31.367 38.7247H35.3144L39.5101 41.4749ZM46.6716 32.0258C46.2885 33.0412 45.8274 34.0197 45.2955 34.9542L41.177 28.5351L46.6716 32.0258ZM39.9131 14.2698L42.946 11.2369C40.4095 8.29567 37.0612 6.04742 33.2396 4.8236L39.3002 14.2698H39.9131ZM36.4312 17.7633L35.2678 18.9267L44.1989 24.7505H46.1186L41.1767 17.7633H36.4312ZM27.4967 14.2698L15.8522 6.63701L23.485 14.2698H27.4967ZM26.9786 17.7633H32.8264L34.9969 19.186L33.6734 20.5096L33.1598 21.0231L31.6991 22.4838L26.9786 17.7633ZM31.5653 22.6292L29.444 24.7505H32.9613L31.5653 22.6292ZM39.7363 35.0452L35.2604 28.244H30.1256L39.7363 35.0452ZM22.8128 28.244H25.9389L23.8573 30.3256L22.8128 28.244ZM17.5536 17.7633L21.0597 24.7505H25.1649L24.0363 23.6218L18.7376 17.7633H17.5536Z" fill="#FF5ABE" style="mix-blend-mode:multiply"/>
<path fill-rule="evenodd" clip-rule="evenodd" d="M9.94189 14.2695H7.43978C6.78683 15.3743 6.23385 16.5427 5.79297 17.7631H11.7661L9.94189 14.2695ZM18.1464 17.7631H16.9624L15.4868 14.8225L18.1464 17.7631ZM32.2352 17.7631H26.3874L22.8938 14.2695H26.9055L32.2352 17.7631ZM40.5855 17.7631H35.84L36.5954 17.0077L37.1323 16.4708L38.6196 14.9835L40.5855 17.7631ZM38.7091 14.2695H39.322L38.9486 14.6429L38.7091 14.2695Z" fill="#5AFFBA" style="mix-blend-mode:multiply"/>
<path fill-rule="evenodd" clip-rule="evenodd" d="M15.4138 24.75H13.6636L16.0678 26.0025L15.4138 24.75ZM7.98394 28.2436L4.87598 25.4326L10.4778 28.2436H7.98394ZM25.3471 28.2436H22.2211L20.468 24.75H24.5732L26.707 26.8838L25.3471 28.2436ZM34.6687 28.2436H29.5339L27.089 26.5133L28.8523 24.75H32.3696L34.6687 28.2436ZM45.5269 24.75L47.17 27.0732L43.6072 24.75H45.5269Z" fill="#5AFFBA" style="mix-blend-mode:multiply"/>
<path fill-rule="evenodd" clip-rule="evenodd" d="M18.0728 38.724H14.8783L16.9435 36.6588L15.5151 35.2305H18.3603L16.973 36.6177L18.0728 38.724ZM34.723 38.724H30.588L27.0944 35.2305H29.3932L34.723 38.724ZM10.2313 38.724L8.87207 37.3648C9.2327 37.8336 9.61295 38.287 10.0116 38.724H10.2313Z" fill="#5AFFBA" style="mix-blend-mode:multiply"/>
<path fill-rule="evenodd" clip-rule="evenodd" d="M25.5251 3.78906C25.6187 3.78906 25.7122 3.78965 25.8055 3.79082L29.836 9.91527L21.6605 4.12966C22.914 3.90593 24.2056 3.78906 25.5251 3.78906ZM6.97821 14.2698C7.4067 13.5448 7.87825 12.8473 8.38943 12.1806L9.48031 14.2698H6.97821ZM5.41079 17.5474C5.08113 18.4288 4.81017 19.338 4.60254 20.2703L13.2026 24.7505H14.9528L11.3045 17.7633H5.33139C5.35747 17.6912 5.38393 17.6192 5.41079 17.5474ZM8.41081 37.3656C11.4568 41.3246 15.9021 44.193 21.027 45.2658L17.6116 38.7247H14.6046L16.5801 36.7493L16.5117 36.6184L16.5702 36.56L15.2414 35.2312H17.899L18.5544 34.5758L19.9178 33.2124L10.0168 28.244H7.52294L13.214 33.3914L16.4822 36.6595L12.0935 41.0482L9.77 38.7247H9.73792C9.646 38.624 9.55505 38.5223 9.46509 38.4198L8.41081 37.3656ZM28.4648 45.5332C27.7874 45.6243 27.0999 45.6844 26.4038 45.7119L23.6338 40.1918L28.4648 45.5332ZM38.4573 41.4749C37.3745 42.2795 36.2112 42.9854 34.9812 43.5792L22.2719 30.8699L22.2745 30.8673L28.932 35.2312H26.8207L30.3143 38.7247H34.2617L38.4573 41.4749ZM45.6189 32.0258C45.2358 33.0412 44.7747 34.0197 44.2428 34.9542L40.1243 28.5351L45.6189 32.0258ZM38.8604 14.2698L41.8932 11.2369C39.3567 8.29567 36.0085 6.04742 32.1868 4.8236L38.2475 14.2698H38.8604ZM35.3784 17.7633L34.215 18.9267L43.1462 24.7505H45.0659L40.1239 17.7633H35.3784ZM26.4439 14.2698L14.7995 6.63701L22.4323 14.2698H26.4439ZM25.9258 17.7633H31.7737L33.9441 19.186L32.6206 20.5096L32.1071 21.0231L30.6463 22.4838L25.9258 17.7633ZM30.5126 22.6292L28.3913 24.7505H31.9086L30.5126 22.6292ZM38.6836 35.0452L34.2077 28.244H29.0729L38.6836 35.0452ZM21.7601 28.244H24.8861L22.8046 30.3256L21.7601 28.244ZM16.5008 17.7633L20.007 24.7505H24.1122L22.9836 23.6218L17.6848 17.7633H16.5008Z" fill="#5AFFBA" style="mix-blend-mode:multiply"/>
<path fill-rule="evenodd" clip-rule="evenodd" d="M49.5558 16.8068H50.8484C50.3416 15.4197 49.7058 14.0916 48.9549 12.8359H47.5321C48.3344 14.0842 49.0143 15.4132 49.5558 16.8068ZM4.39941 16.8068H5.69193C6.23343 15.4132 6.91333 14.0842 7.71565 12.8359H6.29283C5.54199 14.0916 4.90621 15.4197 4.39941 16.8068Z" fill="white"/>
<path fill-rule="evenodd" clip-rule="evenodd" d="M50.6817 28.7209H51.9094C52.1334 27.4295 52.25 26.1029 52.25 24.75H51.0421C51.042 26.1041 50.9185 27.4311 50.6817 28.7209ZM3.33857 28.7209H4.56634C4.3295 27.4311 4.20598 26.1041 4.20595 24.75H2.99805V24.7936C3.00055 26.1315 3.11702 27.4434 3.33857 28.7209Z" fill="white"/>
<path fill-rule="evenodd" clip-rule="evenodd" d="M44.2961 40.6349H45.9803C47.1066 39.4175 48.1053 38.0873 48.9563 36.6641H47.5335C46.6089 38.1029 45.5216 39.4346 44.2961 40.6349ZM9.2689 40.6349H10.9531C9.72766 39.4346 8.64039 38.1029 7.71574 36.6641H6.29297C7.14391 38.0873 8.14266 39.4175 9.2689 40.6349Z" fill="white"/>
<path fill-rule="evenodd" clip-rule="evenodd" d="M26.4141 47.3684C37.9751 47.3684 47.5306 39.2949 49.4718 28.7219H50.6995C50.7851 28.2287 50.855 27.7303 50.9087 27.2273C50.5447 30.6378 49.4371 33.8348 47.7454 36.6641H46.3236C45.3989 38.1029 44.3117 39.4346 43.0862 40.6349H44.7692C40.2601 45.509 33.7073 48.5764 26.4141 48.5764C12.8135 48.5764 1.78809 37.9094 1.78809 24.7511C1.78809 21.9663 2.28193 19.293 3.1895 16.8089H4.48183C5.02333 15.4152 5.70323 14.0863 6.50555 12.838H5.08286C9.34087 5.71684 17.2992 0.925781 26.4141 0.925781C40.0146 0.925781 51.0401 11.5927 51.0401 24.751H49.8321C49.8321 21.959 49.3071 19.282 48.3462 16.8089H49.6383C49.1315 15.4218 48.4957 14.0937 47.7448 12.838H46.3225C42.1981 6.42076 34.8386 2.13373 26.4141 2.13373C13.4427 2.13373 2.99606 12.2972 2.99603 24.751H1.7882V24.8244C1.79236 26.1519 1.90874 27.4539 2.12865 28.7219H3.35633C3.88298 31.5904 4.97007 34.2748 6.5056 36.6641H5.08304C5.93399 38.0873 6.93273 39.4175 8.05898 40.6349H9.74318C13.9837 44.7883 19.8784 47.3684 26.4141 47.3684Z" fill="white"/>
<path fill-rule="evenodd" clip-rule="evenodd" d="M48.3449 16.8068H49.6374C49.1306 15.4197 48.4948 14.0916 47.744 12.8359H46.3212C47.1235 14.0842 47.8034 15.4132 48.3449 16.8068ZM3.18848 16.8068H4.48099C5.02249 15.4132 5.70239 14.0842 6.50471 12.8359H5.08189C4.33106 14.0916 3.69527 15.4197 3.18848 16.8068Z" fill="white"/>
<path fill-rule="evenodd" clip-rule="evenodd" d="M49.4707 28.7209H50.6985C50.9224 27.4295 51.039 26.1029 51.0391 24.75H49.8311C49.8311 26.1041 49.7076 27.4311 49.4707 28.7209ZM2.12762 28.7209H3.35539C3.11855 27.4311 2.99503 26.1041 2.995 24.75H1.78711V24.7998C1.78996 26.1355 1.90641 27.4454 2.12762 28.7209Z" fill="white"/>
<path fill-rule="evenodd" clip-rule="evenodd" d="M43.0852 40.6349H44.7694C45.8956 39.4175 46.8944 38.0873 47.7453 36.6641H46.3226C45.3979 38.1029 44.3106 39.4346 43.0852 40.6349ZM8.05796 40.6349H9.74217C8.51672 39.4346 7.42945 38.1029 6.5048 36.6641H5.08203C5.93297 38.0873 6.93172 39.4175 8.05796 40.6349Z" fill="white"/>
<path fill-rule="evenodd" clip-rule="evenodd" d="M45.1097 36.6641C46.6452 34.2748 47.7323 31.5904 48.2589 28.7219H49.4866C49.5675 28.2556 49.6344 27.7846 49.6869 27.3095C49.2333 31.4199 47.6993 35.2177 45.365 38.4321C45.78 37.8607 46.1696 37.2708 46.5324 36.6641H45.1097ZM43.4762 38.8938C39.1907 44.055 32.6075 47.3684 25.2012 47.3684C13.6401 47.3684 4.08464 39.2949 2.14344 28.7219H0.915759C0.693932 27.4428 0.577445 26.1292 0.575227 24.7896C0.582305 29.1149 1.78069 33.17 3.86991 36.6641H5.29184C6.21648 38.1029 7.30376 39.4346 8.5292 40.6349H6.84604C11.3552 45.509 17.908 48.5764 25.2012 48.5764C32.4944 48.5764 39.0472 45.509 43.5563 40.6349H41.8722C42.4371 40.0817 42.9725 39.5005 43.4762 38.8938ZM1.78314 24.751H0.5752V24.764L0.575195 24.7511C0.575195 21.9663 1.06904 19.293 1.97661 16.8089H3.26905C3.67219 15.7713 4.15206 14.7697 4.70202 13.8104C2.84123 17.0561 1.78315 20.7876 1.78314 24.751ZM49.8272 24.751C49.8272 11.5927 38.8017 0.925781 25.2012 0.925781C16.0863 0.925781 8.12798 5.71684 3.86997 12.838H5.29277C9.41715 6.42076 16.7767 2.13373 25.2012 2.13373C33.6257 2.13373 40.9852 6.42076 45.1096 12.838H46.5321C47.2829 14.0937 47.9187 15.4218 48.4255 16.8089H47.1333C48.0942 19.282 48.6192 21.959 48.6192 24.751H49.8272Z" fill="white"/>
<path fill-rule="evenodd" clip-rule="evenodd" d="M49.5558 16.8068H50.8484C50.3416 15.4197 49.7058 14.0916 48.9549 12.8359H47.5321C48.3344 14.0842 49.0143 15.4132 49.5558 16.8068ZM4.39941 16.8068H5.69193C6.23343 15.4132 6.91333 14.0842 7.71565 12.8359H6.29283C5.54199 14.0916 4.90621 15.4197 4.39941 16.8068Z" fill="#FF5ABE" style="mix-blend-mode:multiply"/>
<path fill-rule="evenodd" clip-rule="evenodd" d="M50.6817 28.7209H51.9094C52.1334 27.4295 52.25 26.1029 52.25 24.75H51.0421C51.042 26.1041 50.9185 27.4311 50.6817 28.7209ZM3.33857 28.7209H4.56634C4.3295 27.4311 4.20598 26.1041 4.20595 24.75H2.99805V24.7936C3.00055 26.1315 3.11702 27.4434 3.33857 28.7209Z" fill="#FF5ABE" style="mix-blend-mode:multiply"/>
<path fill-rule="evenodd" clip-rule="evenodd" d="M44.2961 40.6349H45.9803C47.1066 39.4175 48.1053 38.0873 48.9563 36.6641H47.5335C46.6089 38.1029 45.5216 39.4346 44.2961 40.6349ZM9.2689 40.6349H10.9531C9.72766 39.4346 8.64039 38.1029 7.71574 36.6641H6.29297C7.14391 38.0873 8.14266 39.4175 9.2689 40.6349Z" fill="#FF5ABE" style="mix-blend-mode:multiply"/>
<path fill-rule="evenodd" clip-rule="evenodd" d="M26.4141 47.3684C37.9751 47.3684 47.5306 39.2949 49.4718 28.7219H50.6995C50.7851 28.2287 50.855 27.7303 50.9087 27.2273C50.5447 30.6378 49.4371 33.8348 47.7454 36.6641H46.3236C45.3989 38.1029 44.3117 39.4346 43.0862 40.6349H44.7692C40.2601 45.509 33.7073 48.5764 26.4141 48.5764C12.8135 48.5764 1.78809 37.9094 1.78809 24.7511C1.78809 21.9663 2.28193 19.293 3.1895 16.8089H4.48183C5.02333 15.4152 5.70323 14.0863 6.50555 12.838H5.08286C9.34087 5.71684 17.2992 0.925781 26.4141 0.925781C40.0146 0.925781 51.0401 11.5927 51.0401 24.751H49.8321C49.8321 21.959 49.3071 19.282 48.3462 16.8089H49.6383C49.1315 15.4218 48.4957 14.0937 47.7448 12.838H46.3225C42.1981 6.42076 34.8386 2.13373 26.4141 2.13373C13.4427 2.13373 2.99606 12.2972 2.99603 24.751H1.7882V24.8244C1.79236 26.1519 1.90874 27.4539 2.12865 28.7219H3.35633C3.88298 31.5904 4.97007 34.2748 6.5056 36.6641H5.08304C5.93399 38.0873 6.93273 39.4175 8.05898 40.6349H9.74318C13.9837 44.7883 19.8784 47.3684 26.4141 47.3684Z" fill="#FF5ABE" style="mix-blend-mode:multiply"/>
<path fill-rule="evenodd" clip-rule="evenodd" d="M48.3449 16.8068H49.6374C49.1306 15.4197 48.4948 14.0916 47.744 12.8359H46.3212C47.1235 14.0842 47.8034 15.4132 48.3449 16.8068ZM3.18848 16.8068H4.48099C5.02249 15.4132 5.70239 14.0842 6.50471 12.8359H5.08189C4.33106 14.0916 3.69527 15.4197 3.18848 16.8068Z" fill="#5AFFBA" style="mix-blend-mode:multiply"/>
<path fill-rule="evenodd" clip-rule="evenodd" d="M49.4707 28.7209H50.6985C50.9224 27.4295 51.039 26.1029 51.0391 24.75H49.8311C49.8311 26.1041 49.7076 27.4311 49.4707 28.7209ZM2.12762 28.7209H3.35539C3.11855 27.4311 2.99503 26.1041 2.995 24.75H1.78711V24.7998C1.78996 26.1355 1.90641 27.4454 2.12762 28.7209Z" fill="#5AFFBA" style="mix-blend-mode:multiply"/>
<path fill-rule="evenodd" clip-rule="evenodd" d="M43.0852 40.6349H44.7694C45.8956 39.4175 46.8944 38.0873 47.7453 36.6641H46.3226C45.3979 38.1029 44.3106 39.4346 43.0852 40.6349ZM8.05796 40.6349H9.74217C8.51672 39.4346 7.42945 38.1029 6.5048 36.6641H5.08203C5.93297 38.0873 6.93172 39.4175 8.05796 40.6349Z" fill="#5AFFBA" style="mix-blend-mode:multiply"/>
<path fill-rule="evenodd" clip-rule="evenodd" d="M45.1097 36.6641C46.6452 34.2748 47.7323 31.5904 48.2589 28.7219H49.4866C49.5675 28.2556 49.6344 27.7846 49.6869 27.3095C49.2333 31.4199 47.6993 35.2177 45.365 38.4321C45.78 37.8607 46.1696 37.2708 46.5324 36.6641H45.1097ZM43.4762 38.8938C39.1907 44.055 32.6075 47.3684 25.2012 47.3684C13.6401 47.3684 4.08464 39.2949 2.14344 28.7219H0.915759C0.693932 27.4428 0.577445 26.1292 0.575227 24.7896C0.582305 29.1149 1.78069 33.17 3.86991 36.6641H5.29184C6.21648 38.1029 7.30376 39.4346 8.5292 40.6349H6.84604C11.3552 45.509 17.908 48.5764 25.2012 48.5764C32.4944 48.5764 39.0472 45.509 43.5563 40.6349H41.8722C42.4371 40.0817 42.9725 39.5005 43.4762 38.8938ZM1.78314 24.751H0.5752V24.764L0.575195 24.7511C0.575195 21.9663 1.06904 19.293 1.97661 16.8089H3.26905C3.67219 15.7713 4.15206 14.7697 4.70202 13.8104C2.84123 17.0561 1.78315 20.7876 1.78314 24.751ZM49.8272 24.751C49.8272 11.5927 38.8017 0.925781 25.2012 0.925781C16.0863 0.925781 8.12798 5.71684 3.86997 12.838H5.29277C9.41715 6.42076 16.7767 2.13373 25.2012 2.13373C33.6257 2.13373 40.9852 6.42076 45.1096 12.838H46.5321C47.2829 14.0937 47.9187 15.4218 48.4255 16.8089H47.1333C48.0942 19.282 48.6192 21.959 48.6192 24.751H49.8272Z" fill="#5AFFBA" style="mix-blend-mode:multiply"/>
</svg>
