<svg width="55" height="54" viewBox="0 0 55 54" fill="none" xmlns="http://www.w3.org/2000/svg">
<path d="M39.277 20.4855C41.8804 22.183 44.9118 19.0349 43.1172 16.4975V16.4975C42.1085 15.0714 40.0587 14.897 38.8236 16.1321V16.1321C37.5578 17.3979 37.7776 19.5077 39.277 20.4855V20.4855Z" fill="white"/>
<path d="M29.7864 29.769C28.3786 28.7728 28.2067 26.749 29.4262 25.5295V25.5295C30.6727 24.283 32.7495 24.4949 33.7187 25.9675V25.9675C35.4097 28.537 32.2973 31.5459 29.7864 29.769V29.769Z" fill="white"/>
<path d="M24.8596 30.0801C25.8336 29.1062 25.8336 27.5271 24.8596 26.5532L22.636 24.3295V24.3295C21.0964 22.6273 18.3828 24.4845 19.4122 26.5359L20.9099 29.5205C21.6516 30.9986 23.6228 31.317 24.7922 30.1476L24.8596 30.0801Z" fill="white"/>
<path fill-rule="evenodd" clip-rule="evenodd" d="M54.4746 27C54.4746 41.9117 42.3863 54 27.4746 54C12.5629 54 0.474609 41.9117 0.474609 27C0.474609 12.0883 12.5629 0 27.4746 0C42.3863 0 54.4746 12.0883 54.4746 27ZM27.4782 52.6462C27.4795 52.6489 27.4776 52.652 27.4746 52.652V52.652C26.801 52.652 26.1334 52.626 25.4729 52.575C22.4263 52.3399 19.9515 50.2227 18.5372 47.5141L15.6692 42.0213C15.1077 40.9459 15.3093 39.6305 16.1671 38.7726V38.7726C17.5061 37.4337 17.1415 35.1767 15.4491 34.3274L2.26689 27.7125C1.99654 27.5768 1.8226 27.3025 1.8226 27V27C1.8226 26.3393 1.84758 25.6845 1.89664 25.0364C2.03625 23.192 4.04355 22.2522 5.68398 23.1067V23.1067C8.12518 24.3785 10.7516 21.7496 9.47753 19.3096L7.27112 15.084C6.54352 13.6905 6.60944 11.9924 7.60439 10.7753C8.08653 10.1856 8.59441 9.61765 9.1263 9.07332C11.7633 6.37466 16.0227 6.95796 18.6907 9.62599L30.1942 21.1295C31.1927 22.128 32.8117 22.128 33.8103 21.1295V21.1295C34.957 19.9828 34.7603 18.072 33.404 17.1829L20.4273 8.67693C17.7296 6.90863 17.9028 2.9741 21.0253 2.16551C21.3761 2.07469 21.7297 1.9911 22.0861 1.91491C22.5486 1.81604 23.0293 1.92483 23.4154 2.19806L26.4805 4.36716C27.4255 5.03589 28.5968 3.90352 27.9604 2.93649L27.2244 1.81815C27.0916 1.61632 27.233 1.348 27.4746 1.348V1.348C28.8537 1.348 30.2073 1.45682 31.5274 1.66635C33.4737 1.97527 35.0991 3.24059 36.1633 4.89925L39.7962 10.5616C40.7166 11.996 42.7269 12.2129 43.932 11.0078V11.0078C44.9842 9.95554 46.7059 9.9589 47.6275 11.1273C51.0715 15.494 53.1266 21.007 53.1266 27C53.1266 29.2396 52.8396 31.4122 52.3003 33.483C52.0314 34.5159 50.83 34.9326 49.9291 34.3602V34.3602C48.4307 33.4083 46.6869 35.1598 47.6455 36.654L48.9647 38.71C49.4089 39.4024 49.4356 40.2894 48.9867 40.9788C48.4012 41.8781 47.7607 42.7384 47.0702 43.555C45.008 45.9934 41.4307 46.0711 38.7598 44.3204L21.7729 33.1858C21.7719 33.1851 21.7705 33.1852 21.7696 33.1861V33.1861C21.7686 33.1871 21.7686 33.1888 21.7696 33.1898L34.283 45.7032C36.4291 47.8493 35.7861 51.4659 32.8169 52.0949C32.3022 52.2039 31.7818 52.2975 31.2562 52.3752C30.8228 52.4392 30.389 52.2747 30.0951 51.9498L28.3947 50.0697C27.6093 49.2013 26.2249 50.1488 26.7501 51.1953L27.4782 52.6462ZM10.6936 36.272C7.42821 33.3186 2.96825 35.7913 5.13787 39.6224C5.74811 40.7 6.43407 41.729 7.18853 42.7023C8.40789 44.2753 10.7092 44.2465 12.1165 42.8392V42.8392C13.5371 41.4186 13.5371 39.1155 12.1165 37.6949L10.6936 36.272V36.272Z" fill="white"/>
</svg>
