<svg width="53" height="49" viewBox="0 0 53 49" fill="none" xmlns="http://www.w3.org/2000/svg">
<path fill-rule="evenodd" clip-rule="evenodd" d="M25.6939 15.0254H29.769L35.1826 18.5739H29.2424L25.6939 15.0254ZM8.44137 15.0254H12.538L14.3908 18.5739H7.3916V17.3892C7.69367 16.577 8.04476 15.788 8.44137 15.0254ZM20.8718 18.5739H19.6689L18.1697 15.5864L20.8718 18.5739ZM43.6651 18.5739L38.8424 18.5739L39.6103 17.806L40.1556 17.2606L41.6672 15.7491L43.6651 18.5739ZM42.3782 15.0254L42.0002 15.4034L41.7576 15.0254H42.3782Z" fill="white"/>
<path fill-rule="evenodd" clip-rule="evenodd" d="M18.0945 25.666H16.3132L18.7602 26.9408L18.0945 25.666ZM7.39258 26.3621V26.362L13.077 29.2145H10.5463L7.39258 26.3621ZM28.186 29.2145H25.0089L23.2283 25.666H27.3967L29.5656 27.8349L28.186 29.2145ZM37.6522 29.2145H32.4358L29.9552 27.4591L31.7483 25.666H35.3169L37.6522 29.2145ZM46.7302 25.666H48.6811L49.48 26.7956C49.4592 27.0021 49.4353 27.2077 49.4085 27.4124L46.7302 25.666Z" fill="white"/>
<path fill-rule="evenodd" clip-rule="evenodd" d="M20.7959 39.861L19.6787 37.7214L21.0876 36.3125H18.1973L19.6493 37.7645L17.5528 39.861H20.7959ZM12.8303 39.861L10.4541 37.4848C11.1029 38.3277 11.8142 39.122 12.5812 39.861H12.8303ZM29.9595 36.3125L33.508 39.861H37.7082L32.2946 36.3125H29.9595Z" fill="white"/>
<path fill-rule="evenodd" clip-rule="evenodd" d="M40.7278 8.98684L34.6354 5.11635C34.1794 4.92355 33.7153 4.7456 33.2437 4.58311L39.9433 15.0251H40.5642L40.186 15.4033L40.1866 15.4043L43.539 12.0519C42.7041 10.9432 41.762 9.91666 40.7278 8.98684ZM26.0216 3.38086C26.2328 3.38086 26.4433 3.38381 26.653 3.38966L31.4003 10.6033L21.7693 3.7877C23.1445 3.5208 24.5664 3.38086 26.0216 3.38086ZM4.67871 20.5527C5.84972 14.7136 9.45722 9.73015 14.4216 6.65944L12.7267 8.35432L11.1973 9.88369L9.1226 11.9584L16.9473 26.944L16.9456 26.9431L16.2811 25.6705H14.5028L4.67871 20.5527ZM29.0933 45.7698C28.5355 45.847 27.9708 45.9035 27.4002 45.9385L25.0999 41.3546L29.0933 45.7698ZM38.9097 41.8406C37.8809 42.5828 36.7829 43.2384 35.627 43.7965L23.7176 31.8871L23.7205 31.8842L30.4748 36.3116H28.327L31.8755 39.8601H35.8884L38.9097 41.8406ZM46.3187 32.3536C45.9951 33.1739 45.6212 33.9696 45.2006 34.7371L41.8498 29.5145L46.3187 32.3536ZM47.5951 27.4153C47.6219 27.2104 47.6458 27.0047 47.6666 26.798L39.8534 15.7513L39.8531 15.7516L41.8491 18.5736H37.031L35.8488 19.7559L44.9194 25.6705H46.8679L47.6653 26.7979C47.6445 27.0043 47.6207 27.2099 47.5939 27.4145L47.5951 27.4153ZM13.5032 42.1015C15.9956 43.8221 18.8737 45.0428 21.9854 45.6146L18.9807 39.8601H15.9134L17.9285 37.845L17.8659 37.725L17.9215 37.6694L16.5637 36.3116H19.2793L19.9406 35.6503L21.3247 34.2662L5.5795 26.3651L5.58057 26.3661L11.2659 29.219H8.73489L14.5169 34.4486L17.8365 37.7682L13.5032 42.1015ZM8.6378 37.4849C9.77337 38.961 11.1004 40.2878 12.5829 41.43L11.013 39.8601H10.9445C10.4867 39.419 10.0487 38.9583 9.63208 38.4792L8.6378 37.4849ZM27.9531 15.0251L16.1273 7.2735L23.879 15.0251H27.9531ZM27.4275 18.5736H33.3667L35.5718 20.0191L34.2281 21.3628L33.7065 21.8844L32.2224 23.3685L27.4275 18.5736ZM32.0877 23.517L29.9342 25.6705H33.5037L35.839 29.219H30.6248L40.3864 36.1271L32.0877 23.517ZM27.7528 27.8381L24.4401 24.5254L16.3566 15.588L16.3571 15.5889L19.0566 18.5736H17.8548L21.4161 25.6705H25.5841L27.7514 27.8379L26.3703 29.219H23.1967L24.2577 31.3332L27.7528 27.8381ZM10.7232 15.0251H6.62865C6.23182 15.7879 5.88054 16.5773 5.57833 17.3897V18.5736H12.5761L10.7232 15.0251Z" fill="white"/>
<path fill-rule="evenodd" clip-rule="evenodd" d="M24.6162 15.0254H28.6913L34.1049 18.5739H28.1647L24.6162 15.0254ZM7.36405 15.0254H11.4603L13.3131 18.5739H6.31348V17.3913C6.61572 16.5784 6.96709 15.7886 7.36405 15.0254ZM19.7941 18.5739H18.5912L17.0921 15.5864L19.7941 18.5739ZM42.5863 18.5739L37.7647 18.5739L38.5326 17.806L39.078 17.2606L40.5888 15.7497L42.5863 18.5739ZM41.2994 15.0254L40.922 15.4027L40.6799 15.0254H41.2994Z" fill="white"/>
<path fill-rule="evenodd" clip-rule="evenodd" d="M17.0157 25.666H15.2343L17.6813 26.9408L17.0157 25.666ZM11.9981 29.2145H9.46742L6.31348 26.3619L11.9981 29.2145ZM27.1072 29.2145H23.9301L22.1494 25.666H26.3179L28.4868 27.8349L27.1072 29.2145ZM36.5733 29.2145H31.3569L28.8764 27.4591L30.6694 25.666H34.2381L36.5733 29.2145ZM45.6514 25.666H47.6022L48.4015 26.7961C48.3806 27.0025 48.3568 27.208 48.33 27.4127L45.6514 25.666Z" fill="white"/>
<path fill-rule="evenodd" clip-rule="evenodd" d="M19.7168 39.861L18.5996 37.7214L20.0085 36.3125H17.1171L18.5691 37.7645L16.4727 39.861H19.7168ZM11.7502 39.861L9.37598 37.4868C10.0244 38.329 10.7351 39.1226 11.5015 39.861H11.7502ZM28.8804 36.3125L32.4289 39.861H36.6291L31.2155 36.3125H28.8804Z" fill="white"/>
<path fill-rule="evenodd" clip-rule="evenodd" d="M39.644 8.98873L33.547 5.11525C33.0914 4.92272 32.6278 4.74501 32.1568 4.58272L39.1003 15.405L42.4532 12.0521C41.6188 10.9441 40.6775 9.91809 39.644 8.98873ZM24.9358 3.38086C25.1466 3.38086 25.3568 3.3838 25.5663 3.38964L30.3136 10.6033L20.6828 3.78783C22.0582 3.52085 23.4803 3.38086 24.9358 3.38086ZM3.59277 20.5531C4.76352 14.7148 8.37014 9.73175 13.3335 6.66085L11.64 8.35432L10.1106 9.88369L8.03587 11.9584L9.63716 15.0251H5.5433C5.1468 15.7873 4.79579 16.5759 4.49375 17.3876V18.5736H11.49L15.1957 25.6705H13.4166L15.8604 26.9436L15.8606 26.944L3.59277 20.5531ZM28.0076 45.7698C27.4498 45.847 26.8851 45.9035 26.3145 45.9385L24.0143 41.3546L28.0076 45.7698ZM37.824 41.8405C36.7952 42.5827 35.6972 43.2383 34.5413 43.7964L22.6314 31.8865L22.6342 31.8838L29.3892 36.3116H27.2567L30.8052 39.8601H34.8027L37.824 41.8405ZM45.2329 32.3535C44.9093 33.1737 44.5354 33.9694 44.1149 34.737L40.7642 29.5145L45.2329 32.3535ZM46.5093 27.4152C46.5361 27.2103 46.56 27.0044 46.5808 26.7978L46.5808 26.7977C46.5599 27.0043 46.5361 27.2101 46.5093 27.4149L43.8341 25.6705H45.7835L40.764 18.5736H35.9443L34.7625 19.7554L46.5093 27.4152ZM12.4168 42.1011C14.9094 43.822 17.7878 45.0428 20.8998 45.6146L17.8951 39.8601H14.8427L16.848 37.8548L16.7803 37.725L16.8435 37.6617L15.4934 36.3116H18.1937L18.855 35.6503L20.2387 34.2665L10.18 29.219H7.64845L4.49342 26.3654L4.49278 26.3651L13.4302 34.4486L16.7498 37.7682L12.4168 42.1011ZM7.55485 37.4887C8.6888 38.962 10.0136 40.2865 11.4932 41.427L9.92625 39.8601H9.87438C9.45979 39.4607 9.06148 39.0451 8.68052 38.6144L7.55485 37.4887ZM26.8664 15.0251L15.0406 7.27349L31.1362 23.3691L32.6208 21.8844L33.1425 21.3628L34.4857 20.0195L32.2799 18.5736H26.3446L22.796 15.0251H26.8664ZM31.0016 23.5163L28.8474 25.6705H32.4193L31.0016 23.5163ZM27.0562 27.4617L27.0561 27.4619L39.3008 36.1271L34.7546 29.219H29.5395L27.0562 27.4617ZM26.6666 27.8386L26.6665 27.8385L25.286 29.219H22.1101L20.3295 25.6705H24.4985L23.3534 24.5254L17.9703 18.5736H16.7704L15.2751 15.5938L15.2699 15.588L23.1713 31.334L26.6666 27.8386ZM39.1011 15.402L39.4779 15.0251H38.8593L39.1011 15.402Z" fill="white"/>
<path fill-rule="evenodd" clip-rule="evenodd" d="M25.6961 15.0254H29.7712L35.1847 18.5739H29.2446L25.6961 15.0254ZM8.44343 15.0254H12.5401L14.393 18.5739H7.39355V17.3894C7.69564 16.5772 8.04677 15.788 8.44343 15.0254ZM20.8739 18.5739H19.671L18.1719 15.5864L20.8739 18.5739ZM43.6673 18.5739L38.8445 18.5739L39.6124 17.806L40.1578 17.2606L41.6693 15.7491L43.6673 18.5739ZM42.3803 15.0254L42.0023 15.4034L41.7598 15.0254H42.3803Z" fill="#FF5ABE" style="mix-blend-mode:multiply"/>
<path fill-rule="evenodd" clip-rule="evenodd" d="M18.0974 25.6719H16.3237L18.7602 26.9412L18.0974 25.6719ZM7.39258 26.3625V26.3624L13.0879 29.2204H10.5523L7.39258 26.3625ZM28.1806 29.2204H25.0117L23.231 25.6719H27.4022L29.5656 27.8353L28.1806 29.2204ZM37.6558 29.2204H32.4435L29.9552 27.4595L31.7428 25.6719H35.3205L37.6558 29.2204ZM46.7386 25.6719H48.6849L49.4804 26.7965C49.4596 27.0029 49.4358 27.2085 49.409 27.4131L46.7386 25.6719Z" fill="#FF5ABE" style="mix-blend-mode:multiply"/>
<path fill-rule="evenodd" clip-rule="evenodd" d="M20.7973 39.861L19.6801 37.7214L21.089 36.3125H18.1987L19.6507 37.7645L17.5542 39.861H20.7973ZM12.8317 39.861L10.4551 37.4843C11.104 38.3275 11.8153 39.1219 12.5825 39.861H12.8317ZM29.9609 36.3125L33.5094 39.861H37.7096L32.296 36.3125H29.9609Z" fill="#FF5ABE" style="mix-blend-mode:multiply"/>
<path fill-rule="evenodd" clip-rule="evenodd" d="M40.7288 8.99026L34.6279 5.11435C34.1728 4.92205 33.7096 4.74453 33.2389 4.58241L40.1822 15.4043L43.5355 12.051C42.7018 10.944 41.7613 9.91893 40.7288 8.99026ZM26.0188 3.38086C26.2295 3.38086 26.4394 3.38379 26.6486 3.38962L31.396 10.6033L21.7653 3.78794C23.1409 3.52089 24.5632 3.38086 26.0188 3.38086ZM6.62579 15.0251C8.4087 11.5981 11.1111 8.70645 14.4147 6.662L12.7224 8.35432L11.193 9.88369L9.11824 11.9584L10.7195 15.0251H6.62579ZM5.57467 17.3917C5.19543 18.4115 4.89348 19.4677 4.67578 20.5534L16.943 26.944L16.9428 26.9436L14.499 25.6705H16.278L12.5724 18.5736H5.57467V17.3917ZM29.0891 45.77C28.5312 45.8472 27.9665 45.9037 27.3958 45.9386L25.0956 41.3546L29.0891 45.77ZM38.9062 41.8411C37.8773 42.5833 36.7792 43.2389 35.6232 43.797L23.7133 31.8871L23.7161 31.8842L30.4705 36.3116H28.3263L31.8748 39.8601H35.884L38.9062 41.8411ZM46.3156 32.3544C45.9919 33.1749 45.6178 33.9708 45.1971 34.7385L41.8454 29.5145L46.3156 32.3544ZM47.5922 27.4162C47.619 27.2117 47.6428 27.0063 47.6636 26.8L47.6636 26.7999C47.6428 27.0062 47.619 27.2115 47.5922 27.416L44.9154 25.6705H46.8648L41.8453 18.5736H37.0267L35.8445 19.7559L47.5922 27.4162ZM13.4995 42.1008C15.9916 43.8215 18.8694 45.0422 21.9809 45.6142L18.9764 39.8601H15.9127L17.9254 37.8474L17.8615 37.725L17.919 37.6676L16.563 36.3116H19.275L19.9363 35.6503L21.3204 34.2662L11.2624 29.219H8.73082L5.57578 26.3654L5.57514 26.3651L14.5126 34.4486L17.8321 37.7682L13.4995 42.1008ZM8.64029 37.4918C9.77293 38.9628 11.0958 40.2855 12.5732 41.4247L11.0086 39.8601H10.9449C10.4988 39.4303 10.0716 38.9819 9.66454 38.516L8.64029 37.4918ZM27.9488 15.0251L16.123 7.2735L32.218 23.3685L33.7021 21.8844L34.2238 21.3628L35.5675 20.0191L33.3623 18.5736H27.426L23.8775 15.0251H27.9488ZM32.0833 23.517L29.9298 25.6705H33.5006L32.0833 23.517ZM28.1382 27.4621L28.138 27.4623L40.382 36.1271L35.8359 29.219H30.6208L28.1382 27.4621ZM27.7484 27.8381L27.7483 27.838L26.3673 29.219H23.1925L21.4118 25.6705H25.5808L24.4357 24.5254L19.0526 18.5736H17.8519L16.3555 15.5916L16.3522 15.588L24.2533 31.3332L27.7484 27.8381ZM40.1822 15.4014L40.5584 15.0251H39.9408L40.1822 15.4014Z" fill="#FF5ABE" style="mix-blend-mode:multiply"/>
<path fill-rule="evenodd" clip-rule="evenodd" d="M24.6162 15.0254H28.6913L34.1049 18.5739H28.1647L24.6162 15.0254ZM7.36405 15.0254H11.4603L13.3131 18.5739H6.31348V17.3913C6.61572 16.5784 6.96709 15.7886 7.36405 15.0254ZM19.7941 18.5739H18.5912L17.0921 15.5864L19.7941 18.5739ZM42.5863 18.5739L37.7647 18.5739L38.5326 17.806L39.078 17.2606L40.5888 15.7497L42.5863 18.5739ZM41.2994 15.0254L40.922 15.4027L40.6799 15.0254H41.2994Z" fill="#5AFFBA" style="mix-blend-mode:multiply"/>
<path fill-rule="evenodd" clip-rule="evenodd" d="M17.0195 25.6719H15.2458L17.6823 26.9412L17.0195 25.6719ZM12.01 29.2204H9.47445L6.31445 26.3623L12.01 29.2204ZM27.1027 29.2204H23.9338L22.1531 25.6719H26.3243L28.4877 27.8353L27.1027 29.2204ZM36.5779 29.2204H31.3656L28.8773 27.4595L30.6649 25.6719H34.2426L36.5779 29.2204ZM45.6607 25.6719H47.607L48.4027 26.7968C48.3819 27.0032 48.3581 27.2087 48.3313 27.4133L45.6607 25.6719Z" fill="#5AFFBA" style="mix-blend-mode:multiply"/>
<path fill-rule="evenodd" clip-rule="evenodd" d="M19.7182 39.861L18.601 37.7214L20.0098 36.3125H17.1185L18.5705 37.7645L16.474 39.861H19.7182ZM11.7516 39.861L9.37695 37.4864C10.0254 38.3288 10.7363 39.1225 11.5028 39.861H11.7516ZM28.8818 36.3125L32.4303 39.861H36.6304L31.2169 36.3125H28.8818Z" fill="#5AFFBA" style="mix-blend-mode:multiply"/>
<path fill-rule="evenodd" clip-rule="evenodd" d="M39.644 8.98873L33.547 5.11525C33.0914 4.92272 32.6278 4.74501 32.1568 4.58272L39.1003 15.405L42.4532 12.0521C41.6188 10.9441 40.6775 9.91809 39.644 8.98873ZM24.9358 3.38086C25.1466 3.38086 25.3568 3.3838 25.5663 3.38964L30.3136 10.6033L20.6828 3.78783C22.0582 3.52085 23.4803 3.38086 24.9358 3.38086ZM3.59277 20.5531C4.76352 14.7148 8.37014 9.73175 13.3335 6.66085L11.64 8.35432L10.1106 9.88369L8.03587 11.9584L9.63716 15.0251H5.5433C5.1468 15.7873 4.79579 16.5759 4.49375 17.3876V18.5736H11.49L15.1957 25.6705H13.4166L15.8604 26.9436L15.8606 26.944L3.59277 20.5531ZM28.0076 45.7698C27.4498 45.847 26.8851 45.9035 26.3145 45.9385L24.0143 41.3546L28.0076 45.7698ZM37.824 41.8405C36.7952 42.5827 35.6972 43.2383 34.5413 43.7964L22.6314 31.8865L22.6342 31.8838L29.3892 36.3116H27.2567L30.8052 39.8601H34.8027L37.824 41.8405ZM45.2329 32.3535C44.9093 33.1737 44.5354 33.9694 44.1149 34.737L40.7642 29.5145L45.2329 32.3535ZM46.5093 27.4152C46.5361 27.2103 46.56 27.0044 46.5808 26.7978L46.5808 26.7977C46.5599 27.0043 46.5361 27.2101 46.5093 27.4149L43.8341 25.6705H45.7835L40.764 18.5736H35.9443L34.7625 19.7554L46.5093 27.4152ZM12.4168 42.1011C14.9094 43.822 17.7878 45.0428 20.8998 45.6146L17.8951 39.8601H14.8427L16.848 37.8548L16.7803 37.725L16.8435 37.6617L15.4934 36.3116H18.1937L18.855 35.6503L20.2387 34.2665L10.18 29.219H7.64845L4.49342 26.3654L4.49278 26.3651L13.4302 34.4486L16.7498 37.7682L12.4168 42.1011ZM7.55485 37.4887C8.6888 38.962 10.0136 40.2865 11.4932 41.427L9.92625 39.8601H9.87438C9.45979 39.4607 9.06148 39.0451 8.68052 38.6144L7.55485 37.4887ZM26.8664 15.0251L15.0406 7.27349L31.1362 23.3691L32.6208 21.8844L33.1425 21.3628L34.4857 20.0195L32.2799 18.5736H26.3446L22.796 15.0251H26.8664ZM31.0016 23.5163L28.8474 25.6705H32.4193L31.0016 23.5163ZM27.0562 27.4617L27.0561 27.4619L39.3008 36.1271L34.7546 29.219H29.5395L27.0562 27.4617ZM26.6666 27.8386L26.6665 27.8385L25.286 29.219H22.1101L20.3295 25.6705H24.4985L23.3534 24.5254L17.9703 18.5736H16.7704L15.2751 15.5938L15.2699 15.588L23.1713 31.334L26.6666 27.8386ZM39.1011 15.402L39.4779 15.0251H38.8593L39.1011 15.402Z" fill="#5AFFBA" style="mix-blend-mode:multiply"/>
<path fill-rule="evenodd" clip-rule="evenodd" d="M50.2238 17.6009H51.5144C51.0728 16.1991 50.5031 14.8513 49.8186 13.5703H48.4157C49.1453 14.8451 49.753 16.1936 50.2238 17.6009ZM3.68652 17.6009H4.97712C5.44786 16.1936 6.05553 14.8451 6.78515 13.5703H5.38229C4.69776 14.8513 4.12811 16.1991 3.68652 17.6009Z" fill="white"/>
<path fill-rule="evenodd" clip-rule="evenodd" d="M50.7962 29.6946H52.054C52.3399 28.387 52.5167 27.0403 52.5745 25.6641H51.3472C51.2859 27.0419 51.0987 28.389 50.7962 29.6946ZM4.40275 29.6946C4.10025 28.389 3.91302 27.0419 3.85178 25.6641H3.60352L3.60352 29.6946H4.40275Z" fill="white"/>
<path fill-rule="evenodd" clip-rule="evenodd" d="M43.4362 41.7844H45.2537C46.5187 40.5638 47.6492 39.2127 48.6219 37.7539H47.129C46.0641 39.2331 44.8236 40.5862 43.4362 41.7844ZM9.95023 41.7844H11.7677C10.3803 40.5862 9.13979 39.2331 8.07497 37.7539H6.58203C7.55473 39.2127 8.68525 40.5638 9.95023 41.7844Z" fill="white"/>
<path fill-rule="evenodd" clip-rule="evenodd" d="M50.1418 24.6559C50.1418 24.9904 50.1344 25.3233 50.1197 25.6545H51.347C51.2891 27.0307 51.1124 28.3774 50.8265 29.685H49.5689C48.8882 32.6236 47.6236 35.3523 45.8976 37.7496H47.3901C46.5105 39.0687 45.5019 40.2998 44.3815 41.426C48.7078 37.0782 51.3679 31.1676 51.3679 24.6559C51.3679 11.2999 40.1768 0.472656 26.3719 0.472656C12.5671 0.472656 1.37598 11.2999 1.37598 24.6559C1.37598 29.4809 2.83652 33.9759 5.35321 37.7496H6.84317C7.90798 39.2288 9.14849 40.5819 10.5359 41.7801H8.72207C13.2435 46.1423 19.4822 48.8391 26.3719 48.8391C33.2617 48.8391 39.5004 46.1423 44.0218 41.7801H42.2044C42.6523 41.3933 43.0849 40.9903 43.5013 40.5721C39.1829 44.9085 33.1133 47.613 26.3719 47.613C15.004 47.613 5.5464 39.9224 3.175 29.685H2.37598L2.37598 25.6545H2.6242C2.6095 25.3233 2.60207 24.9904 2.60207 24.6559C2.60207 22.195 3.00393 19.8223 3.74831 17.5966H2.45784C2.89942 16.1948 3.46907 14.847 4.1536 13.566H5.55612C9.59971 6.50037 17.3894 1.69875 26.3719 1.69875C35.3545 1.69875 43.1442 6.50037 47.1878 13.566H48.5899C49.2744 14.847 49.8441 16.1948 50.2857 17.5966H48.9956C49.74 19.8223 50.1418 22.195 50.1418 24.6559Z" fill="white"/>
<path fill-rule="evenodd" clip-rule="evenodd" d="M48.9933 17.6009H50.2839C49.8423 16.1991 49.2727 14.8513 48.5881 13.5703H47.1853C47.9149 14.8451 48.5226 16.1936 48.9933 17.6009ZM2.45605 17.6009H3.74665C4.21739 16.1936 4.82506 14.8451 5.55468 13.5703H4.15182C3.46729 14.8513 2.89764 16.1991 2.45605 17.6009Z" fill="white"/>
<path fill-rule="evenodd" clip-rule="evenodd" d="M49.5687 29.6946H50.8265C51.1124 28.387 51.2891 27.0403 51.347 25.6641H50.1196C50.0584 27.0419 49.8712 28.389 49.5687 29.6946ZM3.17521 29.6946C2.87271 28.389 2.68548 27.0419 2.62424 25.6641H2.37598L2.37598 29.6946H3.17521Z" fill="white"/>
<path fill-rule="evenodd" clip-rule="evenodd" d="M42.2057 41.7844H44.0232C45.2882 40.5638 46.4187 39.2127 47.3914 37.7539H45.8985C44.8337 39.2331 43.5932 40.5862 42.2057 41.7844ZM8.71976 41.7844H10.5373C9.14982 40.5862 7.90932 39.2331 6.8445 37.7539H5.35156C6.32426 39.2127 7.45478 40.5638 8.71976 41.7844Z" fill="white"/>
<path fill-rule="evenodd" clip-rule="evenodd" d="M48.9123 24.6559C48.9123 24.9904 48.9049 25.3233 48.8902 25.6545H50.1175C50.0596 27.0307 49.8829 28.3774 49.597 29.685H48.3394C47.6587 32.6236 46.3942 35.3523 44.6682 37.7496H46.1609C45.7401 38.3807 45.2898 38.9916 44.8118 39.5805C48.1485 35.4701 50.1384 30.2878 50.1384 24.6559C50.1384 11.2999 38.9473 0.472656 25.1425 0.472656C15.4277 0.472656 7.00736 5.8345 2.87056 13.6662L2.92382 13.566H4.32663C8.37022 6.50037 16.1599 1.69875 25.1425 1.69875C34.125 1.69875 41.9147 6.50037 45.9583 13.566H47.3601C48.0447 14.847 48.6143 16.1948 49.0559 17.5966H47.7661C48.5105 19.8223 48.9123 22.195 48.9123 24.6559ZM42.7923 41.7801H40.9752C41.9545 40.9343 42.8606 40.0114 43.6834 39.0215C39.3333 44.2543 32.655 47.613 25.1425 47.613C13.7745 47.613 4.31691 39.9224 1.94551 29.685H1.14648L1.14648 25.6545H1.39471C1.38001 25.3233 1.37258 24.9904 1.37258 24.6559C1.37258 20.966 2.27604 17.4743 3.88298 14.3793C3.3477 15.4102 2.89046 16.485 2.51865 17.5966H1.22824C0.524844 19.8298 0.146484 22.2001 0.146484 24.6559C0.146484 29.4809 1.60703 33.9759 4.12372 37.7496H5.61397C6.67879 39.2288 7.91929 40.5819 9.30672 41.7801H7.49258C12.014 46.1423 18.2527 48.8391 25.1425 48.8391C32.0322 48.8391 38.2709 46.1423 42.7923 41.7801Z" fill="white"/>
<path fill-rule="evenodd" clip-rule="evenodd" d="M50.2238 17.6028H51.5144C51.0728 16.201 50.5031 14.8533 49.8186 13.5723H48.4157C49.1453 14.847 49.753 16.1955 50.2238 17.6028ZM3.68652 17.6028H4.97712C5.44786 16.1955 6.05553 14.847 6.78515 13.5723H5.38229C4.69776 14.8533 4.12811 16.201 3.68652 17.6028Z" fill="#FF5ABE" style="mix-blend-mode:multiply"/>
<path fill-rule="evenodd" clip-rule="evenodd" d="M50.7962 29.6966H52.054C52.3399 28.3889 52.5167 27.0423 52.5745 25.666H51.3472C51.2859 27.0438 51.0987 28.3909 50.7962 29.6966ZM4.40275 29.6966C4.10025 28.3909 3.91302 27.0438 3.85178 25.666H3.60352L3.60352 29.6966H4.40275Z" fill="#FF5ABE" style="mix-blend-mode:multiply"/>
<path fill-rule="evenodd" clip-rule="evenodd" d="M43.4362 41.7864H45.2537C46.5187 40.5657 47.6492 39.2147 48.6219 37.7559H47.129C46.0641 39.2351 44.8236 40.5881 43.4362 41.7864ZM9.95023 41.7864H11.7677C10.3803 40.5881 9.13979 39.2351 8.07497 37.7559H6.58203C7.55473 39.2147 8.68525 40.5657 9.95023 41.7864Z" fill="#FF5ABE" style="mix-blend-mode:multiply"/>
<path fill-rule="evenodd" clip-rule="evenodd" d="M50.1418 24.6559C50.1418 24.9904 50.1344 25.3233 50.1197 25.6545H51.347C51.2891 27.0307 51.1124 28.3774 50.8265 29.685H49.5689C48.8882 32.6236 47.6236 35.3523 45.8976 37.7496H47.3901C46.5105 39.0687 45.5019 40.2998 44.3815 41.426C48.7078 37.0782 51.3679 31.1676 51.3679 24.6559C51.3679 11.2999 40.1768 0.472656 26.3719 0.472656C12.5671 0.472656 1.37598 11.2999 1.37598 24.6559C1.37598 29.4809 2.83652 33.9759 5.35321 37.7496H6.84317C7.90798 39.2288 9.14849 40.5819 10.5359 41.7801H8.72207C13.2435 46.1423 19.4822 48.8391 26.3719 48.8391C33.2617 48.8391 39.5004 46.1423 44.0218 41.7801H42.2044C42.6523 41.3933 43.0849 40.9903 43.5013 40.5721C39.1829 44.9085 33.1133 47.613 26.3719 47.613C15.004 47.613 5.5464 39.9224 3.175 29.685H2.37598L2.37598 25.6545H2.6242C2.6095 25.3233 2.60207 24.9904 2.60207 24.6559C2.60207 22.195 3.00393 19.8223 3.74831 17.5966H2.45784C2.89942 16.1948 3.46907 14.847 4.1536 13.566H5.55612C9.59971 6.50037 17.3894 1.69875 26.3719 1.69875C35.3545 1.69875 43.1442 6.50037 47.1878 13.566H48.5899C49.2744 14.847 49.8441 16.1948 50.2857 17.5966H48.9956C49.74 19.8223 50.1418 22.195 50.1418 24.6559Z" fill="#FF5ABE" style="mix-blend-mode:multiply"/>
<path fill-rule="evenodd" clip-rule="evenodd" d="M48.9933 17.6028H50.2839C49.8423 16.201 49.2727 14.8533 48.5881 13.5723H47.1853C47.9149 14.847 48.5226 16.1955 48.9933 17.6028ZM2.45605 17.6028H3.74665C4.21739 16.1955 4.82506 14.847 5.55468 13.5723H4.15182C3.46729 14.8533 2.89764 16.201 2.45605 17.6028Z" fill="#5AFFBA" style="mix-blend-mode:multiply"/>
<path fill-rule="evenodd" clip-rule="evenodd" d="M49.5687 29.6966H50.8265C51.1124 28.3889 51.2891 27.0423 51.347 25.666H50.1196C50.0584 27.0438 49.8712 28.3909 49.5687 29.6966ZM3.17521 29.6966C2.87271 28.3909 2.68548 27.0438 2.62424 25.666H2.37598L2.37598 29.6966H3.17521Z" fill="#5AFFBA" style="mix-blend-mode:multiply"/>
<path fill-rule="evenodd" clip-rule="evenodd" d="M42.2057 41.7864H44.0232C45.2882 40.5657 46.4187 39.2147 47.3914 37.7559H45.8985C44.8337 39.2351 43.5932 40.5881 42.2057 41.7864ZM8.71976 41.7864H10.5373C9.14982 40.5881 7.90932 39.2351 6.8445 37.7559H5.35156C6.32426 39.2147 7.45478 40.5657 8.71976 41.7864Z" fill="#5AFFBA" style="mix-blend-mode:multiply"/>
<path fill-rule="evenodd" clip-rule="evenodd" d="M48.9123 24.6559C48.9123 24.9904 48.9049 25.3233 48.8902 25.6545H50.1175C50.0596 27.0307 49.8829 28.3774 49.597 29.685H48.3394C47.6587 32.6236 46.3942 35.3523 44.6682 37.7496H46.1609C45.7401 38.3807 45.2898 38.9916 44.8118 39.5805C48.1485 35.4701 50.1384 30.2878 50.1384 24.6559C50.1384 11.2999 38.9473 0.472656 25.1425 0.472656C15.4277 0.472656 7.00736 5.8345 2.87056 13.6662L2.92382 13.566H4.32663C8.37022 6.50037 16.1599 1.69875 25.1425 1.69875C34.125 1.69875 41.9147 6.50037 45.9583 13.566H47.3601C48.0447 14.847 48.6143 16.1948 49.0559 17.5966H47.7661C48.5105 19.8223 48.9123 22.195 48.9123 24.6559ZM42.7923 41.7801H40.9752C41.9545 40.9343 42.8606 40.0114 43.6834 39.0215C39.3333 44.2543 32.655 47.613 25.1425 47.613C13.7745 47.613 4.31691 39.9224 1.94551 29.685H1.14648L1.14648 25.6545H1.39471C1.38001 25.3233 1.37258 24.9904 1.37258 24.6559C1.37258 20.966 2.27604 17.4743 3.88298 14.3793C3.3477 15.4102 2.89046 16.485 2.51865 17.5966H1.22824C0.524844 19.8298 0.146484 22.2001 0.146484 24.6559C0.146484 29.4809 1.60703 33.9759 4.12372 37.7496H5.61397C6.67879 39.2288 7.91929 40.5819 9.30672 41.7801H7.49258C12.014 46.1423 18.2527 48.8391 25.1425 48.8391C32.0322 48.8391 38.2709 46.1423 42.7923 41.7801Z" fill="#5AFFBA" style="mix-blend-mode:multiply"/>
</svg>
