<svg width="55" height="54" viewBox="0 0 55 54" fill="none" xmlns="http://www.w3.org/2000/svg">
<path d="M48.5225 26.5141C49.1788 26.9421 49.9431 26.1484 49.4907 25.5087L41.6737 14.4566C41.4194 14.0971 40.9026 14.0531 40.5912 14.3645L36.9867 17.969C36.6676 18.2881 36.723 18.82 37.1011 19.0666L48.5225 26.5141Z" fill="white"/>
<path d="M27.7806 28.3495C27.4211 28.0952 27.3772 27.5785 27.6886 27.2671L31.2246 23.7311C31.5428 23.4129 32.0731 23.467 32.3205 23.843L39.7582 35.1447C40.1899 35.8007 39.3953 36.5689 38.7542 36.1153L27.7806 28.3495Z" fill="white"/>
<path d="M26.1207 28.8191C26.3982 28.5416 26.3982 28.0917 26.1207 27.8142L22.636 24.3295L16.4142 17.4505C15.8593 16.8369 14.8812 17.5063 15.2522 18.2458L21.9752 31.6434C22.1925 32.0764 22.77 32.1697 23.1127 31.8271L26.1207 28.8191Z" fill="white"/>
<path fill-rule="evenodd" clip-rule="evenodd" d="M54.4746 27C54.4746 41.9117 42.3863 54 27.4746 54C12.5629 54 0.474609 41.9117 0.474609 27C0.474609 12.0883 12.5629 0 27.4746 0C42.3863 0 54.4746 12.0883 54.4746 27ZM27.4782 52.6462C27.4795 52.6489 27.4776 52.652 27.4746 52.652V52.652C25.2584 52.652 23.1078 52.3709 21.0566 51.8425C20.8646 51.7931 20.7037 51.6632 20.6119 51.4874L14.967 40.6766C14.8233 40.4014 14.8749 40.0648 15.0944 39.8453L18.1911 36.7486C18.5338 36.406 18.4405 35.8285 18.0074 35.6112L2.21088 27.6844C1.97497 27.566 1.82331 27.3266 1.82268 27.0627C1.82263 27.0418 1.8226 27.0209 1.8226 27C1.8226 25.4017 1.96877 23.8376 2.24846 22.3203C2.33315 21.8609 2.8396 21.625 3.25391 21.8408L11.6146 26.1963C12.2311 26.5175 12.8944 25.8535 12.5727 25.2373L6.28591 13.1972C6.16602 12.9676 6.17992 12.6904 6.32674 12.477C8.27347 9.6477 10.7733 7.22845 13.6702 5.37534C13.9463 5.19866 14.3073 5.24263 14.5392 5.47446L31.4998 22.4351C31.7773 22.7126 32.2272 22.7126 32.5046 22.4351L35.4156 19.5242C35.7342 19.2055 35.6796 18.6746 35.3027 18.4275L15.5201 5.46033C15.0788 5.17102 15.0968 4.52025 15.564 4.27487C17.7193 3.14295 20.0553 2.30865 22.5175 1.82658C22.7053 1.7898 22.8997 1.83313 23.056 1.9437L27.9379 5.39855C28.579 5.85223 29.3737 5.08401 28.9419 4.42796L27.2244 1.81815C27.0916 1.61632 27.233 1.348 27.4746 1.348V1.348C29.821 1.348 32.0938 1.66303 34.2531 2.25312C34.4201 2.29876 34.5635 2.40572 34.657 2.55143L41.1105 12.61C41.3554 12.9917 41.8903 13.0494 42.211 12.7288L45.3355 9.60422C45.6155 9.32423 46.0711 9.32648 46.3395 9.6176C50.553 14.1881 53.1266 20.2935 53.1266 27C53.1266 29.657 52.7226 32.2197 51.9727 34.63C51.8368 35.067 51.3223 35.2453 50.9361 34.9999L46.3078 32.0596C45.6654 31.6514 44.9178 32.4024 45.3288 33.043L49.4541 39.4728C49.5978 39.6968 49.605 39.9828 49.4678 40.2108C47.9223 42.7781 45.9401 45.0526 43.6239 46.9316C43.3878 47.1231 43.0551 47.1359 42.8008 46.9693L21.7729 33.1858C21.7719 33.1851 21.7705 33.1852 21.7696 33.1861V33.1861C21.7686 33.1871 21.7686 33.1888 21.7696 33.1898L37.9619 49.3821C38.3073 49.7275 38.209 50.31 37.7617 50.506C35.6208 51.4443 33.3272 52.0986 30.9285 52.4215C30.7 52.4522 30.4718 52.3662 30.3172 52.1952L26.9383 48.4594C26.3833 47.8458 25.4052 48.5153 25.7763 49.2547L27.4782 52.6462ZM3.12397 29.4256C2.65479 29.0013 1.92148 29.3553 1.99427 29.9837C2.66211 35.7491 5.24158 40.9318 9.08241 44.8816C9.35343 45.1603 9.79898 45.1567 10.0739 44.8818L14.1862 40.7695C14.4637 40.492 14.4637 40.0421 14.1862 39.7646L10.6936 36.272L3.12397 29.4256Z" fill="white"/>
</svg>
