<svg width="55" height="54" viewBox="0 0 55 54" fill="none" xmlns="http://www.w3.org/2000/svg">
<path d="M47.4835 25.8367C48.3587 26.4073 49.3777 25.349 48.7744 24.4961L41.8359 14.686C41.4968 14.2066 40.8078 14.1479 40.3926 14.5632L37.1931 17.7626C36.7676 18.1881 36.8415 18.8973 37.3456 19.226L47.4835 25.8367Z" fill="black"/>
<path d="M28.0098 28.5117C27.5306 28.1726 27.472 27.4837 27.8872 27.0685L31.019 23.9367C31.4434 23.5123 32.1504 23.5844 32.4803 24.0858L39.0679 34.0959C39.6436 34.9706 38.5841 35.9949 37.7293 35.39L28.0098 28.5117Z" fill="black"/>
<path d="M25.9532 28.9865C26.3232 28.6166 26.3232 28.0167 25.9532 27.6467L22.636 24.3295L17.5831 18.7428C16.8432 17.9247 15.539 18.8173 16.0338 19.8032L21.828 31.3501C22.1178 31.9275 22.8878 32.0519 23.3447 31.5951L25.9532 28.9865Z" fill="black"/>
<path fill-rule="evenodd" clip-rule="evenodd" d="M54.4746 27C54.4746 41.9117 42.3863 54 27.4746 54C12.5629 54 0.474609 41.9117 0.474609 27C0.474609 12.0883 12.5629 0 27.4746 0C42.3863 0 54.4746 12.0883 54.4746 27ZM27.4782 52.6462C27.4795 52.6489 27.4776 52.652 27.4746 52.652V52.652C25.2945 52.652 23.178 52.38 21.1571 51.8682C20.9008 51.8033 20.6863 51.6299 20.5639 51.3955L15.0475 40.8307C14.8559 40.4638 14.9247 40.015 15.2174 39.7224L17.9591 36.9806C18.416 36.5238 18.2916 35.7538 17.7141 35.464L2.26689 27.7125C1.99654 27.5768 1.8226 27.3025 1.8226 27V27C1.8226 25.5082 1.94994 24.0462 2.19435 22.6242C2.29985 22.0103 2.9752 21.6956 3.52762 21.9834L10.9466 25.8483C11.7686 26.2765 12.6531 25.3913 12.224 24.5696L6.35069 13.3212C6.19084 13.0151 6.2091 12.6454 6.4064 12.3619C8.30606 9.63294 10.7224 7.29048 13.5136 5.47626C13.8802 5.23802 14.3617 5.29704 14.6708 5.60616L31.3323 22.2677C31.7023 22.6376 32.3021 22.6376 32.6721 22.2677L35.2097 19.7301C35.6345 19.3052 35.5617 18.5973 35.0591 18.2679L15.8401 5.67006C15.2516 5.28432 15.2763 4.41734 15.9041 4.09953C17.9354 3.07115 20.1221 2.30511 22.4196 1.84595C22.6698 1.79593 22.9291 1.85391 23.1374 2.00134L26.9131 4.67327C27.7678 5.27818 28.8274 4.25389 28.2517 3.37915L27.2244 1.81815C27.0916 1.61632 27.233 1.348 27.4746 1.348V1.348C29.7897 1.348 32.0332 1.65469 34.1667 2.22966C34.3896 2.28973 34.5807 2.43252 34.7053 2.62681L40.9517 12.3625C41.2782 12.8714 41.9914 12.9483 42.419 12.5208L45.1659 9.77384C45.5392 9.40053 46.1471 9.40325 46.5013 9.79472C50.6188 14.3453 53.1266 20.3798 53.1266 27C53.1266 29.5524 52.7538 32.0177 52.0597 34.3445C51.8853 34.9292 51.1992 35.1671 50.6842 34.8399L47.2137 32.6351C46.3572 32.0909 45.3603 33.0922 45.9083 33.9463L49.3761 39.3512C49.5677 39.6499 49.5776 40.0313 49.3929 40.3343C47.8881 42.8026 45.978 44.9968 43.7551 46.8244C43.442 47.0818 42.9981 47.0986 42.6591 46.8764L21.7729 33.1858C21.7719 33.1851 21.7705 33.1852 21.7696 33.1861V33.1861C21.7686 33.1871 21.7686 33.1888 21.7696 33.1898L37.7267 49.1469C38.1872 49.6074 38.056 50.384 37.4562 50.6376C35.4395 51.4902 33.2911 52.0923 31.0499 52.4048C30.7454 52.4473 30.4412 52.3323 30.2349 52.1043L28.1071 49.7518C27.3672 48.9337 26.0631 49.8262 26.5578 50.8121L27.4782 52.6462ZM3.54735 29.8086C2.92177 29.2428 1.95059 29.7145 2.06626 30.55C2.82175 36.0073 5.29401 40.916 8.92021 44.7133C9.2782 45.0882 9.87263 45.0831 10.2392 44.7165L14.0188 40.937C14.3887 40.567 14.3887 39.9671 14.0188 39.5972L10.6936 36.272L3.54735 29.8086Z" fill="black"/>
</svg>
