<svg width="220" height="60" viewBox="0 0 220 60" fill="none" xmlns="http://www.w3.org/2000/svg">
<g clip-path="url(#clip0)">
<path d="M20.7049 10.6997L17.1748 28.0487C17.1748 28.0487 25.3446 25.7282 30.8924 30.0665C36.4403 34.4034 38.6594 42.5745 31.9006 51.1483C28.7733 55.0825 31.2952 54.8811 31.2952 54.8811L36.7417 49.636C36.7417 49.636 42.6936 39.6512 40.1717 32.7911C37.6499 25.931 32.2034 21.694 20.9063 22.5022L23.1254 8.68326L20.7049 10.6997Z" fill="#786090"/>
<path d="M28.3694 56.1721C14.3798 56.1721 3 44.7243 3 30.6506C3 16.5783 14.3811 5.1305 28.3694 5.1305C42.3591 5.1305 53.7389 16.5783 53.7389 30.6506C53.7402 44.7243 42.3591 56.1721 28.3694 56.1721ZM28.3694 9.91552C17.019 9.91552 7.78369 19.2175 7.78369 30.6506C7.78369 42.0851 17.0177 51.3871 28.3694 51.3871C39.7199 51.3871 48.9552 42.0851 48.9552 30.6506C48.9552 19.2175 39.7212 9.91552 28.3694 9.91552Z" fill="#9078A8"/>
<path d="M7.78467 30.6506C7.78467 22.0074 13.0658 14.5899 20.5461 11.4799L17.1747 28.0487C17.1747 28.0487 25.3444 25.7282 30.8923 30.0665C36.4188 34.3874 38.6353 42.5105 31.9738 51.0483C30.8016 51.2577 29.6013 51.3871 28.3691 51.3871C17.0186 51.3871 7.78467 42.0851 7.78467 30.6506Z" fill="#F09090"/>
<path d="M36.791 49.552C37.2791 48.7118 42.5789 39.3391 40.1717 32.7897C37.6498 25.9296 32.2033 21.6927 20.9062 22.5009L22.8 10.7077C24.5737 10.2036 26.4368 9.91552 28.3692 9.91552C39.7196 9.91552 48.9549 19.2175 48.9549 30.6506C48.9549 39.0604 43.9512 46.302 36.791 49.552Z" fill="#F0C090"/>
<path d="M67.4729 14.041H61.3474L60.7299 18.1243C61.1012 18.0758 61.4456 18.0274 62.0389 18.0274C63.274 18.0274 64.509 18.2965 65.4965 18.883C66.7558 19.5921 67.7931 20.9616 67.7931 22.9663C67.7931 26.0714 65.2988 28.3935 61.8156 28.3935C60.0612 28.3935 58.58 27.9038 57.8145 27.4167L58.358 25.7781C59.0253 26.1696 60.3343 26.658 61.7914 26.658C63.8417 26.658 65.5947 25.3381 65.5947 23.2111C65.5705 21.1581 64.1875 19.6916 60.9761 19.6916C60.0626 19.6916 59.3468 19.7898 58.7535 19.8625L59.7908 12.2356H67.4715V14.041H67.4729Z" fill="#786090"/>
<path d="M80.1651 20.0064C80.1651 25.4094 78.1403 28.3921 74.5831 28.3921C71.4471 28.3921 69.3227 25.4834 69.2729 20.2271C69.2729 14.898 71.5951 11.9638 74.8549 11.9638C78.2385 11.9624 80.1651 14.9451 80.1651 20.0064ZM71.4471 20.2499C71.4471 24.3816 72.7305 26.7293 74.7069 26.7293C76.9295 26.7293 77.9923 24.1623 77.9923 20.1033C77.9923 16.1923 76.9806 13.6253 74.7325 13.6253C72.8301 13.6253 71.4471 15.9232 71.4471 20.2499Z" fill="#786090"/>
<path d="M79.9644 29.1012L86.8553 11.3772H88.5344L81.6192 29.1012H79.9644Z" fill="#786090"/>
<path d="M98.0907 14.041H91.9652L91.3477 18.1243C91.719 18.0758 92.0648 18.0274 92.6581 18.0274C93.8931 18.0274 95.1282 18.2965 96.1157 18.883C97.3749 19.5921 98.4122 20.9616 98.4122 22.9663C98.4122 26.0714 95.9179 28.3935 92.4347 28.3935C90.6817 28.3935 89.1991 27.9038 88.4336 27.4167L88.9771 25.7781C89.6431 26.1696 90.9535 26.658 92.4105 26.658C94.4609 26.658 96.2139 25.3381 96.2139 23.2111C96.1883 21.1581 94.8066 19.6916 91.5952 19.6916C90.6804 19.6916 89.9646 19.7898 89.3727 19.8625L90.4086 12.2356H98.0907V14.041Z" fill="#786090"/>
<path d="M110.783 20.0064C110.783 25.4094 108.758 28.3921 105.201 28.3921C102.063 28.3921 99.9404 25.4834 99.8906 20.2271C99.8906 14.898 102.213 11.9638 105.474 11.9638C108.855 11.9624 110.783 14.9451 110.783 20.0064ZM102.063 20.2499C102.063 24.3816 103.348 26.7293 105.325 26.7293C107.547 26.7293 108.61 24.1623 108.61 20.1033C108.61 16.1923 107.598 13.6253 105.349 13.6253C103.446 13.6253 102.063 15.9232 102.063 20.2499Z" fill="#786090"/>
<path d="M116.658 11.6449H118.807V26.3378H125.92V28.1231H116.658V11.6449Z" fill="#786090"/>
<path d="M128.04 22.5976C128.09 25.5077 129.966 26.705 132.139 26.705C133.696 26.705 134.635 26.436 135.45 26.0942L135.82 27.6347C135.055 27.9764 133.746 28.3679 131.843 28.3679C128.164 28.3679 125.965 25.9732 125.965 22.4039C125.965 18.8346 128.09 16.0228 131.573 16.0228C135.474 16.0228 136.512 19.4212 136.512 21.5967C136.512 22.0366 136.462 22.3797 136.438 22.599H128.04V22.5976ZM134.413 21.0572C134.438 19.6889 133.845 17.5619 131.401 17.5619C129.202 17.5619 128.239 19.5665 128.067 21.0572H134.413Z" fill="#786090"/>
<path d="M144.759 28.1231L144.585 26.6324H144.511C143.844 27.5607 142.559 28.3922 140.856 28.3922C138.436 28.3922 137.201 26.7051 137.201 24.9937C137.201 22.1335 139.769 20.5688 144.388 20.593V20.3495C144.388 19.3714 144.116 17.6103 141.67 17.6103C140.559 17.6103 139.398 17.9534 138.558 18.4915L138.064 17.0735C139.051 16.4372 140.485 16.0214 141.992 16.0214C145.647 16.0214 146.535 18.4916 146.535 20.8621V25.287C146.535 26.3149 146.585 27.3159 146.734 28.1231H144.759ZM144.437 22.085C142.067 22.0366 139.375 22.451 139.375 24.7502C139.375 26.144 140.313 26.8033 141.425 26.8033C142.98 26.8033 143.968 25.8252 144.315 24.8229C144.39 24.6022 144.439 24.3587 144.439 24.1381V22.085H144.437Z" fill="#786090"/>
<path d="M159.304 10.7651V25.0664C159.304 26.1171 159.33 27.3145 159.404 28.1217H157.451L157.353 26.0673H157.303C156.638 27.3871 155.18 28.3895 153.228 28.3895C150.338 28.3895 148.116 25.9691 148.116 22.3756C148.092 18.4391 150.562 16.0187 153.476 16.0187C155.303 16.0187 156.538 16.8744 157.081 17.8283H157.131V10.7624H159.304V10.7651ZM157.13 21.1069C157.13 20.8379 157.106 20.4706 157.03 20.2029C156.71 18.8333 155.525 17.7099 153.894 17.7099C151.646 17.7099 150.313 19.6647 150.313 22.2815C150.313 24.6776 151.498 26.658 153.845 26.658C155.302 26.658 156.636 25.7041 157.03 24.091C157.106 23.7977 157.13 23.5044 157.13 23.1627V21.1069Z" fill="#786090"/>
<path d="M163.055 22.5976C163.105 25.5077 164.982 26.705 167.154 26.705C168.711 26.705 169.65 26.436 170.465 26.0942L170.835 27.6347C170.07 27.9764 168.761 28.3679 166.858 28.3679C163.179 28.3679 160.98 25.9732 160.98 22.4039C160.98 18.8346 163.103 16.0228 166.587 16.0228C170.488 16.0228 171.525 19.4212 171.525 21.5967C171.525 22.0366 171.476 22.3797 171.451 22.599H163.055V22.5976ZM169.427 21.0572C169.452 19.6889 168.859 17.5619 166.414 17.5619C164.216 17.5619 163.253 19.5665 163.081 21.0572H169.427Z" fill="#786090"/>
<path d="M173.155 19.9822C173.155 18.5884 173.13 17.391 173.056 16.2905H174.958L175.032 18.6126H175.132C175.675 17.0237 176.983 16.0214 178.44 16.0214C178.686 16.0214 178.86 16.0457 179.057 16.0954V18.1243C178.835 18.0758 178.612 18.0503 178.316 18.0503C176.785 18.0503 175.698 19.1992 175.402 20.8137C175.352 21.107 175.304 21.45 175.304 21.816V28.1231H173.154V19.9822H173.155Z" fill="#786090"/>
<path d="M179.869 25.922C180.51 26.3378 181.646 26.7777 182.734 26.7777C184.315 26.7777 185.055 25.9947 185.055 25.018C185.055 23.9901 184.439 23.4291 182.832 22.8425C180.685 22.085 179.671 20.9105 179.671 19.4925C179.671 17.5848 181.227 16.0214 183.796 16.0214C185.005 16.0214 186.068 16.3632 186.734 16.7547L186.191 18.3193C185.721 18.0261 184.856 17.6345 183.745 17.6345C182.46 17.6345 181.744 18.3678 181.744 19.2476C181.744 20.2244 182.46 20.6657 184.016 21.2523C186.091 22.0353 187.152 23.0604 187.152 24.8215C187.152 26.9001 185.522 28.3666 182.683 28.3666C181.373 28.3666 180.165 28.0491 179.324 27.5607L179.869 25.922Z" fill="#786090"/>
<path d="M188.884 10.7651H191.056V18.1485H191.106C191.452 17.5377 191.996 16.9995 192.661 16.6322C193.303 16.2663 194.069 16.0214 194.884 16.0214C196.49 16.0214 199.059 16.9995 199.059 21.0827V28.1231H196.885V21.3262C196.885 19.4198 196.169 17.8067 194.119 17.8067C192.711 17.8067 191.599 18.7848 191.203 19.958C191.079 20.2513 191.055 20.5688 191.055 20.9845V28.1231H188.882V10.7651H188.884Z" fill="#786090"/>
<path d="M203.945 12.9648C203.97 13.698 203.425 14.2846 202.563 14.2846C201.796 14.2846 201.252 13.698 201.252 12.9648C201.252 12.2073 201.822 11.6194 202.611 11.6194C203.425 11.6207 203.945 12.2073 203.945 12.9648ZM201.524 28.1231V16.2905H203.697V28.1231H201.524Z" fill="#786090"/>
<path d="M206.242 20.1531C206.242 18.6382 206.192 17.4153 206.142 16.2905H208.093L208.192 18.3193H208.242C209.132 16.8771 210.539 16.0214 212.491 16.0214C215.381 16.0214 217.554 18.4418 217.554 22.0353C217.554 26.2893 214.935 28.3908 212.12 28.3908C210.539 28.3908 209.157 27.7074 208.439 26.5328H208.39V32.9624H206.243V20.1531H206.242ZM208.39 23.3066C208.39 23.6241 208.44 23.9174 208.49 24.1865C208.885 25.6785 210.194 26.705 211.751 26.705C214.048 26.705 215.382 24.8471 215.382 22.1335C215.382 19.7616 214.121 17.7328 211.825 17.7328C210.344 17.7328 208.959 18.7848 208.54 20.3979C208.466 20.667 208.39 20.9845 208.39 21.2778V23.3066Z" fill="#786090"/>
<path d="M57.8159 39.2118C58.2147 39.1412 58.7374 39.0811 59.4029 39.0811C60.2204 39.0811 60.8192 39.2812 61.1993 39.6426C61.5514 39.9627 61.7608 40.4521 61.7608 41.0549C61.7608 41.6657 61.5901 42.1458 61.266 42.4965C60.8286 42.986 60.1164 43.238 59.3082 43.238C59.0615 43.238 58.8335 43.2274 58.6428 43.1767V45.8799H57.8159V39.2118ZM58.6428 42.4672C58.8228 42.5165 59.0508 42.5365 59.3269 42.5365C60.3245 42.5365 60.9326 42.0258 60.9326 41.0949C60.9326 40.204 60.3338 39.7746 59.4216 39.7746C59.0602 39.7746 58.7855 39.804 58.6428 39.844V42.4672Z" fill="#786090" stroke="#786090" stroke-width="0.15" stroke-miterlimit="10"/>
<path d="M62.6057 42.5452C62.6057 41.9744 62.5964 41.4836 62.5684 41.0329H63.3005L63.3285 41.9851H63.3672C63.5766 41.3343 64.0794 40.9235 64.6408 40.9235C64.7355 40.9235 64.8022 40.9328 64.8782 40.9528V41.7837C64.7928 41.7624 64.7075 41.7543 64.5928 41.7543C64.0047 41.7543 63.5859 42.2251 63.4712 42.8853C63.4526 43.0066 63.4339 43.1453 63.4339 43.2973V45.8806H62.607V42.5452H62.6057Z" fill="#786090" stroke="#786090" stroke-width="0.15" stroke-miterlimit="10"/>
<path d="M69.694 43.4174C69.694 45.2097 68.5164 45.9912 67.4042 45.9912C66.1599 45.9912 65.1997 45.0297 65.1997 43.4974C65.1997 41.8757 66.2066 40.9248 67.4802 40.9248C68.8018 40.9235 69.694 41.9344 69.694 43.4174ZM66.0452 43.4667C66.0452 44.5283 66.6253 45.3284 67.4429 45.3284C68.2417 45.3284 68.8392 44.5376 68.8392 43.4467C68.8392 42.6265 68.4497 41.585 67.4615 41.585C66.4733 41.585 66.0452 42.5452 66.0452 43.4667Z" fill="#786090" stroke="#786090" stroke-width="0.15" stroke-miterlimit="10"/>
<path d="M70.6633 42.3451C70.6633 41.845 70.654 41.4343 70.626 41.0342H71.3581L71.3955 41.8157H71.4235C71.6795 41.3542 72.1076 40.9248 72.8678 40.9248C73.4946 40.9248 73.9707 41.3249 74.1694 41.8957H74.1894C74.3321 41.6263 74.5121 41.4156 74.7028 41.2649C74.9789 41.0449 75.283 40.9248 75.7191 40.9248C76.3272 40.9248 77.2301 41.3449 77.2301 43.0266V45.8806H76.4125V43.1373C76.4125 42.2064 76.0885 41.645 75.4137 41.645C74.9389 41.645 74.5682 42.0157 74.4255 42.4465C74.3881 42.5665 74.3588 42.7265 74.3588 42.8866V45.8806H73.5413V42.9773C73.5413 42.2064 73.2185 41.645 72.5811 41.645C72.0583 41.645 71.6782 42.0851 71.5462 42.5265C71.4982 42.6572 71.4795 42.8066 71.4795 42.9559V45.8792H70.662V42.3451H70.6633Z" fill="#786090" stroke="#786090" stroke-width="0.15" stroke-miterlimit="10"/>
<path d="M82.6681 43.4174C82.6681 45.2097 81.4905 45.9912 80.3783 45.9912C79.134 45.9912 78.1738 45.0297 78.1738 43.4974C78.1738 41.8757 79.1807 40.9248 80.4543 40.9248C81.7746 40.9235 82.6681 41.9344 82.6681 43.4174ZM79.018 43.4667C79.018 44.5283 79.5981 45.3284 80.4156 45.3284C81.2145 45.3284 81.8119 44.5376 81.8119 43.4467C81.8119 42.6265 81.4225 41.585 80.4343 41.585C79.4461 41.585 79.018 42.5452 79.018 43.4667Z" fill="#786090" stroke="#786090" stroke-width="0.15" stroke-miterlimit="10"/>
<path d="M84.6444 39.6419V41.0328H85.842V41.7037H84.6444V44.3176C84.6444 44.9177 84.8058 45.2578 85.2712 45.2578C85.4899 45.2578 85.6513 45.2284 85.7566 45.1977L85.794 45.8592C85.6326 45.9286 85.3766 45.9792 85.0525 45.9792C84.6631 45.9792 84.3497 45.8485 84.1496 45.6085C83.9123 45.3498 83.8269 44.9177 83.8269 44.3482V41.705H83.1147V41.0342H83.8269V39.8726L84.6444 39.6419Z" fill="#786090" stroke="#786090" stroke-width="0.15" stroke-miterlimit="10"/>
<path d="M87.6291 39.6726C87.6385 39.9726 87.4291 40.2127 87.097 40.2127C86.8023 40.2127 86.5942 39.9713 86.5942 39.6726C86.5942 39.3618 86.8129 39.1218 87.117 39.1218C87.4291 39.1218 87.6291 39.3618 87.6291 39.6726ZM86.6969 45.8792V41.0328H87.5331V45.8792H86.6969Z" fill="#786090" stroke="#786090" stroke-width="0.15" stroke-miterlimit="10"/>
<path d="M88.8342 42.3451C88.8342 41.845 88.8249 41.4343 88.7969 41.0342H89.5384L89.5864 41.8357H89.6051C89.8331 41.3756 90.3652 40.9248 91.1254 40.9248C91.7628 40.9248 92.751 41.3249 92.751 42.9866V45.8806H91.9149V43.0866C91.9149 42.3065 91.6388 41.6556 90.8506 41.6556C90.2999 41.6556 89.8718 42.0664 89.7291 42.5572C89.6917 42.6665 89.6731 42.8172 89.6731 42.9679V45.8819H88.8369V42.3451H88.8342Z" fill="#786090" stroke="#786090" stroke-width="0.15" stroke-miterlimit="10"/>
<path d="M97.9866 41.0328C97.968 41.3836 97.9493 41.7743 97.9493 42.3651V45.1777C97.9493 46.2886 97.7399 46.9701 97.2932 47.3902C96.8464 47.8303 96.1996 47.9717 95.6208 47.9717C95.07 47.9717 94.4619 47.8316 94.0911 47.5702L94.3005 46.8994C94.6046 47.0995 95.0793 47.2795 95.6501 47.2795C96.505 47.2795 97.1331 46.8088 97.1331 45.5872V45.047H97.1131C96.8571 45.4978 96.3623 45.8579 95.6501 45.8579C94.5099 45.8579 93.6924 44.8363 93.6924 43.4947C93.6924 41.8544 94.7086 40.9222 95.7635 40.9222C96.5623 40.9222 96.9984 41.3623 97.1985 41.7623H97.2171L97.2545 41.0315H97.9866V41.0328ZM97.1224 42.9466C97.1224 42.7959 97.1131 42.6652 97.0744 42.5452C96.9224 42.0344 96.5143 41.6143 95.9062 41.6143C95.1074 41.6143 94.5379 42.3251 94.5379 43.4467C94.5379 44.3976 94.994 45.1897 95.8969 45.1897C96.4103 45.1897 96.8757 44.8483 97.0571 44.2882C97.1051 44.1375 97.1238 43.9681 97.1238 43.8161V42.9466H97.1224Z" fill="#786090" stroke="#786090" stroke-width="0.15" stroke-miterlimit="10"/>
<path d="M101.911 45.8792L100.287 39.1311H101.161L101.922 42.5452C102.112 43.3867 102.283 44.2282 102.396 44.8777H102.415C102.519 44.2069 102.719 43.4054 102.938 42.5345L103.793 39.1311H104.657L105.436 42.5545C105.616 43.356 105.788 44.1562 105.882 44.867H105.901C106.035 44.1255 106.215 43.3747 106.415 42.5332L107.26 39.1298H108.106L106.291 45.8779H105.426L104.62 42.3638C104.42 41.5023 104.286 40.8408 104.202 40.1607H104.182C104.069 40.8315 103.926 41.493 103.687 42.3638L102.775 45.8779H101.911V45.8792Z" fill="#786090" stroke="#786090" stroke-width="0.15" stroke-miterlimit="10"/>
<path d="M112.643 43.4174C112.643 45.2097 111.464 45.9912 110.353 45.9912C109.107 45.9912 108.148 45.0297 108.148 43.4974C108.148 41.8757 109.155 40.9248 110.429 40.9248C111.749 40.9235 112.643 41.9344 112.643 43.4174ZM108.993 43.4667C108.993 44.5283 109.573 45.3284 110.39 45.3284C111.189 45.3284 111.787 44.5376 111.787 43.4467C111.787 42.6265 111.397 41.585 110.409 41.585C109.422 41.585 108.993 42.5452 108.993 43.4667Z" fill="#786090" stroke="#786090" stroke-width="0.15" stroke-miterlimit="10"/>
<path d="M113.612 42.3451C113.612 41.845 113.601 41.4343 113.573 41.0342H114.305L114.344 41.8157H114.372C114.628 41.3542 115.058 40.9248 115.818 40.9248C116.445 40.9248 116.919 41.3249 117.119 41.8957H117.139C117.281 41.6263 117.462 41.4156 117.653 41.2649C117.928 41.0449 118.233 40.9248 118.67 40.9248C119.278 40.9248 120.181 41.3449 120.181 43.0266V45.8806H119.364V43.1373C119.364 42.2064 119.041 41.645 118.366 41.645C117.891 41.645 117.521 42.0157 117.378 42.4465C117.341 42.5665 117.311 42.7265 117.311 42.8866V45.8806H116.495V42.9773C116.495 42.2064 116.172 41.645 115.535 41.645C115.011 41.645 114.631 42.0851 114.499 42.5265C114.452 42.6572 114.432 42.8066 114.432 42.9559V45.8792H113.616V42.3451H113.612Z" fill="#786090" stroke="#786090" stroke-width="0.15" stroke-miterlimit="10"/>
<path d="M121.917 43.6174C121.937 44.8083 122.659 45.2991 123.495 45.2991C124.094 45.2991 124.455 45.1897 124.768 45.0484L124.911 45.6792C124.616 45.8192 124.112 45.9806 123.381 45.9806C121.965 45.9806 121.12 44.999 121.12 43.5374C121.12 42.0757 121.937 40.9248 123.277 40.9248C124.779 40.9248 125.178 42.3158 125.178 43.2066C125.178 43.388 125.158 43.5267 125.15 43.6187H121.917V43.6174ZM124.37 42.9853C124.379 42.4251 124.151 41.5543 123.211 41.5543C122.364 41.5543 121.994 42.3745 121.928 42.9853H124.37Z" fill="#786090" stroke="#786090" stroke-width="0.15" stroke-miterlimit="10"/>
<path d="M126.128 42.3451C126.128 41.845 126.117 41.4343 126.089 41.0342H126.832L126.878 41.8357H126.898C127.126 41.3756 127.657 40.9248 128.419 40.9248C129.056 40.9248 130.044 41.3249 130.044 42.9866V45.8806H129.208V43.0866C129.208 42.3065 128.932 41.6556 128.144 41.6556C127.592 41.6556 127.165 42.0664 127.022 42.5572C126.984 42.6665 126.965 42.8172 126.965 42.9679V45.8819H126.129V42.3451H126.128Z" fill="#786090" stroke="#786090" stroke-width="0.15" stroke-miterlimit="10"/>
<path d="M131.869 39.0217L131.708 41.4249H131.195L131.042 39.0217H131.869Z" fill="#786090" stroke="#786090" stroke-width="0.15" stroke-miterlimit="10"/>
<path d="M132.837 44.9777C133.085 45.1484 133.521 45.3284 133.94 45.3284C134.548 45.3284 134.832 45.0084 134.832 44.6083C134.832 44.1882 134.595 43.9575 133.978 43.7161C133.151 43.4067 132.761 42.9252 132.761 42.3451C132.761 41.565 133.359 40.9248 134.347 40.9248C134.814 40.9248 135.222 41.0635 135.479 41.2249L135.27 41.865C135.088 41.745 134.756 41.585 134.33 41.585C133.835 41.585 133.56 41.8864 133.56 42.2451C133.56 42.6465 133.835 42.8266 134.434 43.0666C135.232 43.3867 135.641 43.8081 135.641 44.5283C135.641 45.3804 135.012 45.9806 133.92 45.9806C133.416 45.9806 132.951 45.8499 132.628 45.6498L132.837 44.9777Z" fill="#786090" stroke="#786090" stroke-width="0.15" stroke-miterlimit="10"/>
<path d="M141.904 42.7159H139.414V45.1484H142.19V45.8792H138.589V39.1311H142.048V39.8619H139.414V41.9944H141.904V42.7159Z" fill="#786090" stroke="#786090" stroke-width="0.15" stroke-miterlimit="10"/>
<path d="M146.248 45.1284H146.228C145.98 45.6085 145.468 45.9899 144.726 45.9899C143.653 45.9899 142.778 45.0084 142.778 43.5361C142.778 41.725 143.89 40.9235 144.86 40.9235C145.573 40.9235 146.048 41.2929 146.276 41.7637H146.295L146.323 41.0329H147.112C147.092 41.4436 147.084 41.8637 147.084 42.3651V47.861H146.248V45.1284ZM146.248 42.9959C146.248 42.8759 146.237 42.7359 146.209 42.6265C146.087 42.0851 145.64 41.625 145.013 41.625C144.149 41.625 143.626 42.3958 143.626 43.4867C143.626 44.4483 144.062 45.2884 144.985 45.2884C145.526 45.2884 145.993 44.9377 146.183 44.3269C146.22 44.2069 146.249 44.0362 146.249 43.9081V42.9959H146.248Z" fill="#786090" stroke="#786090" stroke-width="0.15" stroke-miterlimit="10"/>
<path d="M152.223 44.5576C152.223 45.059 152.233 45.4991 152.261 45.8792H151.519L151.471 45.0884H151.453C151.234 45.4791 150.75 45.9899 149.931 45.9899C149.209 45.9899 148.345 45.5698 148.345 43.8668V41.0328H149.181V43.7161C149.181 44.6376 149.447 45.2578 150.208 45.2578C150.768 45.2578 151.159 44.847 151.31 44.4562C151.358 44.3256 151.387 44.1655 151.387 44.0055V41.0328H152.223V44.5576Z" fill="#786090" stroke="#786090" stroke-width="0.15" stroke-miterlimit="10"/>
<path d="M154.459 39.6726C154.468 39.9726 154.26 40.2127 153.926 40.2127C153.632 40.2127 153.422 39.9713 153.422 39.6726C153.422 39.3618 153.641 39.1218 153.946 39.1218C154.26 39.1218 154.459 39.3618 154.459 39.6726ZM153.528 45.8792V41.0328H154.364V45.8792H153.528Z" fill="#786090" stroke="#786090" stroke-width="0.15" stroke-miterlimit="10"/>
<path d="M156.673 39.6419V41.0328H157.871V41.7037H156.673V44.3176C156.673 44.9177 156.834 45.2578 157.301 45.2578C157.52 45.2578 157.681 45.2284 157.785 45.1977L157.823 45.8592C157.661 45.9286 157.405 45.9792 157.081 45.9792C156.692 45.9792 156.378 45.8485 156.178 45.6085C155.94 45.3498 155.856 44.9177 155.856 44.3482V41.705H155.142V41.0342H155.856V39.8726L156.673 39.6419Z" fill="#786090" stroke="#786090" stroke-width="0.15" stroke-miterlimit="10"/>
<path d="M159.113 41.0328L160.121 43.8961C160.225 44.2162 160.339 44.5963 160.416 44.887H160.435C160.52 44.5963 160.616 44.2269 160.731 43.8761L161.643 41.0315H162.527L161.274 44.4856C160.675 46.1486 160.265 46.9995 159.695 47.5196C159.287 47.8997 158.878 48.049 158.668 48.0904L158.46 47.3489C158.668 47.2782 158.944 47.1395 159.192 46.9181C159.42 46.7274 159.705 46.3887 159.895 45.9379C159.932 45.8485 159.961 45.7779 159.961 45.7285C159.961 45.6778 159.941 45.6072 159.904 45.4978L158.204 41.0315H159.113V41.0328Z" fill="#786090" stroke="#786090" stroke-width="0.15" stroke-miterlimit="10"/>
<path d="M166.062 39.6726C166.071 39.9726 165.863 40.2127 165.529 40.2127C165.235 40.2127 165.025 39.9713 165.025 39.6726C165.025 39.3618 165.244 39.1218 165.549 39.1218C165.863 39.1218 166.062 39.3618 166.062 39.6726ZM165.131 45.8792V41.0328H165.967V45.8792H165.131Z" fill="#786090" stroke="#786090" stroke-width="0.15" stroke-miterlimit="10"/>
<path d="M167.27 42.3451C167.27 41.845 167.259 41.4343 167.231 41.0342H167.974L168.02 41.8357H168.04C168.269 41.3756 168.799 40.9248 169.561 40.9248C170.198 40.9248 171.186 41.3249 171.186 42.9866V45.8806H170.35V43.0866C170.35 42.3065 170.074 41.6556 169.286 41.6556C168.734 41.6556 168.307 42.0664 168.164 42.5572C168.126 42.6665 168.107 42.8172 168.107 42.9679V45.8819H167.271V42.3451H167.27Z" fill="#786090" stroke="#786090" stroke-width="0.15" stroke-miterlimit="10"/>
<path d="M174.417 39.1325H175.243V45.1497H177.98V45.8806H174.417V39.1325Z" fill="#786090" stroke="#786090" stroke-width="0.15" stroke-miterlimit="10"/>
<path d="M179.119 43.6174C179.139 44.8083 179.86 45.2991 180.696 45.2991C181.295 45.2991 181.657 45.1897 181.97 45.0484L182.113 45.6792C181.818 45.8192 181.314 45.9806 180.583 45.9806C179.167 45.9806 178.321 44.999 178.321 43.5374C178.321 42.0757 179.139 40.9248 180.479 40.9248C181.981 40.9248 182.379 42.3158 182.379 43.2066C182.379 43.388 182.359 43.5267 182.351 43.6187H179.119V43.6174ZM181.571 42.9853C181.581 42.4251 181.353 41.5543 180.412 41.5543C179.566 41.5543 179.196 42.3745 179.129 42.9853H181.571Z" fill="#786090" stroke="#786090" stroke-width="0.15" stroke-miterlimit="10"/>
<path d="M185.878 45.8792L185.812 45.2684H185.784C185.528 45.6485 185.034 45.9899 184.377 45.9899C183.446 45.9899 182.97 45.2978 182.97 44.5976C182.97 43.4267 183.958 42.7866 185.736 42.7946V42.6945C185.736 42.2945 185.632 41.573 184.69 41.573C184.263 41.573 183.817 41.713 183.494 41.9344L183.303 41.3529C183.683 41.0929 184.234 40.9235 184.814 40.9235C186.221 40.9235 186.564 41.9344 186.564 42.9053V44.7163C186.564 45.1364 186.582 45.5472 186.64 45.8779H185.878V45.8792ZM185.754 43.4067C184.842 43.3867 183.807 43.5574 183.807 44.4976C183.807 45.0684 184.169 45.3391 184.595 45.3391C185.194 45.3391 185.574 44.9377 185.708 44.5283C185.736 44.4389 185.754 44.3376 185.754 44.2482V43.4067Z" fill="#786090" stroke="#786090" stroke-width="0.15" stroke-miterlimit="10"/>
<path d="M191.798 38.771V44.6283C191.798 45.059 191.807 45.5485 191.835 45.8792H191.085L191.047 45.0377H191.029C190.772 45.5778 190.211 45.9899 189.46 45.9899C188.348 45.9899 187.492 44.9977 187.492 43.5254C187.482 41.9144 188.433 40.9235 189.555 40.9235C190.258 40.9235 190.734 41.2742 190.942 41.665H190.962V38.771H191.798ZM190.962 43.0066C190.962 42.8959 190.951 42.7466 190.923 42.6359C190.8 42.0757 190.343 41.6143 189.718 41.6143C188.853 41.6143 188.34 42.4158 188.34 43.4867C188.34 44.4669 188.796 45.2791 189.699 45.2791C190.26 45.2791 190.774 44.8883 190.925 44.2282C190.953 44.1068 190.963 43.9868 190.963 43.8468V43.0066H190.962Z" fill="#786090" stroke="#786090" stroke-width="0.15" stroke-miterlimit="10"/>
<path d="M193.565 43.6174C193.585 44.8083 194.306 45.2991 195.142 45.2991C195.741 45.2991 196.102 45.1897 196.416 45.0484L196.559 45.6792C196.264 45.8192 195.76 45.9806 195.029 45.9806C193.613 45.9806 192.767 44.999 192.767 43.5374C192.767 42.0757 193.585 40.9248 194.925 40.9248C196.427 40.9248 196.825 42.3158 196.825 43.2066C196.825 43.388 196.805 43.5267 196.797 43.6187H193.565V43.6174ZM196.017 42.9853C196.026 42.4251 195.798 41.5543 194.858 41.5543C194.011 41.5543 193.642 42.3745 193.575 42.9853H196.017Z" fill="#786090" stroke="#786090" stroke-width="0.15" stroke-miterlimit="10"/>
<path d="M197.778 42.5452C197.778 41.9744 197.767 41.4836 197.739 41.0329H198.471L198.499 41.9851H198.537C198.746 41.3343 199.25 40.9235 199.81 40.9235C199.905 40.9235 199.972 40.9328 200.049 40.9528V41.7837C199.964 41.7624 199.877 41.7543 199.764 41.7543C199.174 41.7543 198.755 42.2251 198.642 42.8853C198.622 43.0066 198.605 43.1453 198.605 43.2973V45.8806H197.778V42.5452Z" fill="#786090" stroke="#786090" stroke-width="0.15" stroke-miterlimit="10"/>
<path d="M200.684 44.9777C200.932 45.1484 201.368 45.3284 201.787 45.3284C202.395 45.3284 202.679 45.0084 202.679 44.6083C202.679 44.1882 202.442 43.9575 201.824 43.7161C200.997 43.4067 200.608 42.9252 200.608 42.3451C200.608 41.565 201.205 40.9248 202.194 40.9248C202.66 40.9248 203.068 41.0635 203.326 41.2249L203.117 41.865C202.935 41.745 202.603 41.585 202.176 41.585C201.682 41.585 201.407 41.8864 201.407 42.2451C201.407 42.6465 201.682 42.8266 202.28 43.0666C203.079 43.3867 203.487 43.8081 203.487 44.5283C203.487 45.3804 202.859 45.9806 201.767 45.9806C201.263 45.9806 200.797 45.8499 200.475 45.6498L200.684 44.9777Z" fill="#786090" stroke="#786090" stroke-width="0.15" stroke-miterlimit="10"/>
<path d="M204.477 38.771H205.313V41.7944H205.331C205.466 41.5436 205.674 41.3236 205.93 41.1742C206.178 41.0249 206.472 40.9235 206.786 40.9235C207.404 40.9235 208.392 41.3236 208.392 42.9959V45.8792H207.556V43.096C207.556 42.3145 207.28 41.6543 206.492 41.6543C205.95 41.6543 205.521 42.0544 205.37 42.5345C205.322 42.6559 205.313 42.7852 205.313 42.9546V45.8779H204.477V38.771Z" fill="#786090" stroke="#786090" stroke-width="0.15" stroke-miterlimit="10"/>
<path d="M210.598 39.6726C210.608 39.9726 210.4 40.2127 210.066 40.2127C209.771 40.2127 209.562 39.9713 209.562 39.6726C209.562 39.3618 209.781 39.1218 210.086 39.1218C210.4 39.1218 210.598 39.3618 210.598 39.6726ZM209.667 45.8792V41.0328H210.504V45.8792H209.667Z" fill="#786090" stroke="#786090" stroke-width="0.15" stroke-miterlimit="10"/>
<path d="M211.805 42.6159C211.805 41.9944 211.785 41.4943 211.766 41.0329H212.517L212.554 41.8637H212.574C212.916 41.2742 213.457 40.9235 214.209 40.9235C215.322 40.9235 216.158 41.9144 216.158 43.3867C216.158 45.1284 215.15 45.9899 214.067 45.9899C213.458 45.9899 212.928 45.7085 212.65 45.2284H212.63V47.8623H211.805V42.6159ZM212.63 43.9081C212.63 44.0375 212.65 44.1589 212.669 44.2682C212.82 44.879 213.324 45.2991 213.923 45.2991C214.805 45.2991 215.32 44.5389 215.32 43.428C215.32 42.4558 214.835 41.625 213.952 41.625C213.381 41.625 212.849 42.0544 212.688 42.7159C212.66 42.8252 212.63 42.9559 212.63 43.076V43.9081Z" fill="#786090" stroke="#786090" stroke-width="0.15" stroke-miterlimit="10"/>
</g>
<defs>
<clipPath id="clip0">
<rect width="220" height="60" fill="white"/>
</clipPath>
</defs>
</svg>
