<svg width="40" height="40" viewBox="0 0 40 40" fill="none" xmlns="http://www.w3.org/2000/svg">
<g clip-path="url(#clip0)">
<path d="M31.4667 0H8.53331C3.82049 0 0 3.82049 0 8.53331V31.4667C0 36.1796 3.82049 40.0001 8.53331 40.0001H31.4667C36.1796 40.0001 40.0001 36.1796 40.0001 31.4667V8.53331C40.0001 3.82049 36.1796 0 31.4667 0Z" fill="#AA8FC6"/>
<path d="M16.0273 20.04C16.0273 17.8236 17.8235 16.0263 20.04 16.0263C22.2564 16.0263 24.0536 17.8236 24.0536 20.04C24.0536 22.2564 22.2564 24.0537 20.04 24.0537C17.8235 24.0537 16.0273 22.2564 16.0273 20.04V20.04ZM13.8576 20.04C13.8576 23.4546 16.6254 26.2224 20.04 26.2224C23.4545 26.2224 26.2223 23.4546 26.2223 20.04C26.2223 16.6254 23.4545 13.8576 20.04 13.8576C16.6254 13.8576 13.8576 16.6254 13.8576 20.04ZM25.0222 13.6125C25.0222 14.41 25.669 15.0577 26.4674 15.0577C27.2649 15.0577 27.9126 14.41 27.9126 13.6125C27.9126 12.815 27.2659 12.1683 26.4674 12.1683C25.669 12.1683 25.0222 12.815 25.0222 13.6125V13.6125ZM15.1753 29.8402C14.0015 29.7868 13.3635 29.5913 12.9395 29.4259C12.3774 29.2071 11.9767 28.9465 11.5546 28.5254C11.1335 28.1043 10.8719 27.7036 10.654 27.1415C10.4887 26.7174 10.2932 26.0794 10.2397 24.9056C10.1814 23.6364 10.1697 23.2552 10.1697 20.04C10.1697 16.8248 10.1824 16.4445 10.2397 15.1744C10.2932 14.0005 10.4897 13.3635 10.654 12.9385C10.8729 12.3764 11.1335 11.9757 11.5546 11.5536C11.9757 11.1325 12.3764 10.8709 12.9395 10.6531C13.3635 10.4877 14.0015 10.2923 15.1753 10.2388C16.4445 10.1804 16.8257 10.1688 20.04 10.1688C23.2551 10.1688 23.6354 10.1814 24.9055 10.2388C26.0794 10.2923 26.7164 10.4887 27.1414 10.6531C27.7035 10.8709 28.1042 11.1325 28.5263 11.5536C28.9474 11.9748 29.208 12.3764 29.4268 12.9385C29.5922 13.3626 29.7876 14.0005 29.8411 15.1744C29.8995 16.4445 29.9112 16.8248 29.9112 20.04C29.9112 23.2542 29.8995 23.6355 29.8411 24.9056C29.7876 26.0794 29.5912 26.7174 29.4268 27.1415C29.208 27.7036 28.9474 28.1043 28.5263 28.5254C28.1052 28.9465 27.7035 29.2071 27.1414 29.4259C26.7174 29.5913 26.0794 29.7868 24.9055 29.8402C23.6364 29.8986 23.2551 29.9103 20.04 29.9103C16.8257 29.9103 16.4445 29.8986 15.1753 29.8402ZM15.0761 8.07294C13.7943 8.13129 12.9191 8.33455 12.1537 8.63215C11.362 8.93947 10.691 9.35183 10.0209 10.0209C9.35182 10.69 8.93947 11.3611 8.63215 12.1537C8.33455 12.9191 8.13129 13.7944 8.07294 15.0762C8.01362 16.3599 8 16.7703 8 20.04C8 23.3097 8.01362 23.7201 8.07294 25.0038C8.13129 26.2856 8.33455 27.1609 8.63215 27.9263C8.93947 28.7179 9.35085 29.39 10.0209 30.0591C10.69 30.7282 11.3611 31.1396 12.1537 31.4479C12.92 31.7454 13.7943 31.9487 15.0761 32.0071C16.3609 32.0654 16.7703 32.08 20.04 32.08C23.3106 32.08 23.72 32.0664 25.0038 32.0071C26.2856 31.9487 27.1608 31.7454 27.9262 31.4479C28.7179 31.1396 29.3889 30.7282 30.059 30.0591C30.7281 29.39 31.1395 28.7179 31.4478 27.9263C31.7454 27.1609 31.9496 26.2856 32.007 25.0038C32.0653 23.7191 32.0789 23.3097 32.0789 20.04C32.0789 16.7703 32.0653 16.3599 32.007 15.0762C31.9486 13.7944 31.7454 12.9191 31.4478 12.1537C31.1395 11.3621 30.7281 10.691 30.059 10.0209C29.3899 9.35183 28.7179 8.93947 27.9272 8.63215C27.1608 8.33455 26.2856 8.13032 25.0047 8.07294C23.721 8.01459 23.3106 8 20.0409 8C16.7703 8 16.3609 8.01362 15.0761 8.07294" fill="white"/>
</g>
<defs>
<clipPath id="clip0">
<rect width="40" height="40" fill="white"/>
</clipPath>
</defs>
</svg>
