<svg width="800" height="324" viewBox="0 0 800 324" fill="none" xmlns="http://www.w3.org/2000/svg">
<g clip-path="url(#clip0)">
<path d="M328.052 37.225C329.702 37.225 331.077 37.17 332.177 37.06V38.16C330.124 38.6367 328.676 40.2317 327.832 42.945L317.437 76.275H316.997H316.557L306.987 47.95L298.242 76.275H297.802H297.362L285.702 41.68C284.932 39.4067 283.667 38.2333 281.907 38.16V37.06C283.411 37.17 285.372 37.225 287.792 37.225C290.432 37.225 292.412 37.17 293.732 37.06V38.16C292.742 38.2333 292.046 38.4167 291.642 38.71C291.239 39.0033 291.037 39.4617 291.037 40.085C291.037 40.6717 291.239 41.57 291.642 42.78L299.672 67.31L306.382 46.025L304.897 41.68C304.164 39.4067 303.082 38.2333 301.652 38.16V37.06C302.972 37.17 304.751 37.225 306.987 37.225C310.141 37.225 312.487 37.17 314.027 37.06V38.16C312.634 38.2333 311.662 38.3983 311.112 38.655C310.562 38.875 310.287 39.37 310.287 40.14C310.287 40.8 310.471 41.68 310.837 42.78L318.757 67.255L325.522 45.97C326.109 44.1733 326.402 42.6883 326.402 41.515C326.402 40.305 326.036 39.4617 325.302 38.985C324.569 38.4717 323.377 38.1967 321.727 38.16V37.06C323.817 37.17 325.926 37.225 328.052 37.225ZM343.339 46.905C347.079 46.905 350.086 48.1517 352.359 50.645C354.669 53.1017 355.824 56.8417 355.824 61.865C355.824 66.8883 354.669 70.6283 352.359 73.085C350.086 75.5417 347.079 76.77 343.339 76.77C339.599 76.77 336.574 75.5417 334.264 73.085C331.991 70.6283 330.854 66.8883 330.854 61.865C330.854 56.8417 331.991 53.1017 334.264 50.645C336.574 48.1517 339.599 46.905 343.339 46.905ZM343.339 48.005C341.139 48.005 339.397 49.1417 338.114 51.415C336.831 53.6517 336.189 57.135 336.189 61.865C336.189 66.595 336.831 70.0783 338.114 72.315C339.397 74.5517 341.139 75.67 343.339 75.67C345.539 75.67 347.281 74.5517 348.564 72.315C349.847 70.0783 350.489 66.595 350.489 61.865C350.489 57.135 349.847 53.6517 348.564 51.415C347.281 49.1417 345.539 48.005 343.339 48.005ZM402.236 70.885C402.236 72.3883 402.548 73.4333 403.171 74.02C403.794 74.57 404.876 74.845 406.416 74.845V76C403.043 75.8533 400.843 75.78 399.816 75.78C398.789 75.78 396.736 75.8533 393.656 76V74.845C395.013 74.845 395.948 74.57 396.461 74.02C397.011 73.4333 397.286 72.3883 397.286 70.885V54.99C397.286 53.5967 397.194 52.4783 397.011 51.635C396.864 50.755 396.479 50.04 395.856 49.49C395.269 48.94 394.353 48.665 393.106 48.665C391.713 48.665 390.448 49.105 389.311 49.985C388.174 50.865 387.276 52.075 386.616 53.615C385.993 55.1183 385.681 56.7867 385.681 58.62V70.885C385.681 72.3883 385.993 73.4333 386.616 74.02C387.239 74.57 388.321 74.845 389.861 74.845V76C386.488 75.8533 384.288 75.78 383.261 75.78C382.234 75.78 380.181 75.8533 377.101 76V74.845C378.458 74.845 379.393 74.57 379.906 74.02C380.456 73.4333 380.731 72.3883 380.731 70.885V54.99C380.731 53.5967 380.639 52.4783 380.456 51.635C380.309 50.755 379.924 50.04 379.301 49.49C378.714 48.94 377.798 48.665 376.551 48.665C375.158 48.665 373.893 49.105 372.756 49.985C371.619 50.865 370.721 52.075 370.061 53.615C369.438 55.155 369.126 56.8417 369.126 58.675V70.885C369.126 72.3883 369.383 73.4333 369.896 74.02C370.446 74.57 371.399 74.845 372.756 74.845V76C369.676 75.8533 367.623 75.78 366.596 75.78C365.569 75.78 363.369 75.8533 359.996 76V74.845C361.536 74.845 362.618 74.57 363.241 74.02C363.864 73.4333 364.176 72.3883 364.176 70.885V53.67C364.176 51.9833 363.864 50.755 363.241 49.985C362.618 49.215 361.536 48.83 359.996 48.83V47.675C361.169 47.785 362.306 47.84 363.406 47.84C365.716 47.84 367.623 47.5833 369.126 47.07V53.56C370.006 51.2867 371.253 49.6183 372.866 48.555C374.479 47.455 376.239 46.905 378.146 46.905C380.639 46.905 382.546 47.6017 383.866 48.995C384.783 49.9483 385.351 51.415 385.571 53.395C386.488 51.085 387.753 49.435 389.366 48.445C390.979 47.4183 392.758 46.905 394.701 46.905C397.194 46.905 399.101 47.6017 400.421 48.995C401.081 49.7283 401.539 50.6633 401.796 51.8C402.089 52.9367 402.236 54.4033 402.236 56.2V70.885ZM432.689 69.4C432.029 71.4167 430.782 73.1583 428.949 74.625C427.152 76.055 424.971 76.77 422.404 76.77C419.801 76.77 417.546 76.1833 415.639 75.01C413.732 73.8 412.266 72.1317 411.239 70.005C410.249 67.8417 409.754 65.3483 409.754 62.525C409.754 59.335 410.267 56.5667 411.294 54.22C412.321 51.8733 413.769 50.0767 415.639 48.83C417.509 47.5467 419.691 46.905 422.184 46.905C425.484 46.905 428.014 47.9133 429.774 49.93C431.571 51.91 432.469 54.935 432.469 59.005H415.254C415.144 60.0317 415.089 61.205 415.089 62.525C415.089 64.945 415.474 67.0533 416.244 68.85C417.051 70.6467 418.096 72.04 419.379 73.03C420.699 73.9833 422.074 74.46 423.504 74.46C425.264 74.46 426.822 74.0383 428.179 73.195C429.536 72.3517 430.672 70.94 431.589 68.96L432.689 69.4ZM421.964 47.95C420.241 47.95 418.756 48.7933 417.509 50.48C416.262 52.1667 415.492 54.66 415.199 57.96H427.189C427.262 55.1 426.841 52.7167 425.924 50.81C425.044 48.9033 423.724 47.95 421.964 47.95ZM455.121 46.905C457.688 46.905 459.631 47.6017 460.951 48.995C461.648 49.7283 462.143 50.645 462.436 51.745C462.73 52.845 462.876 54.33 462.876 56.2V70.885C462.876 72.3883 463.188 73.4333 463.811 74.02C464.435 74.57 465.516 74.845 467.056 74.845V76C463.683 75.8533 461.483 75.78 460.456 75.78C459.43 75.78 457.376 75.8533 454.296 76V74.845C455.653 74.845 456.588 74.57 457.101 74.02C457.651 73.4333 457.926 72.3883 457.926 70.885V54.99C457.926 52.9367 457.633 51.3783 457.046 50.315C456.46 49.215 455.268 48.665 453.471 48.665C451.968 48.665 450.63 49.105 449.456 49.985C448.283 50.865 447.366 52.075 446.706 53.615C446.083 55.1183 445.771 56.805 445.771 58.675V70.885C445.771 72.3883 446.028 73.4333 446.541 74.02C447.091 74.57 448.045 74.845 449.401 74.845V76C446.321 75.8533 444.268 75.78 443.241 75.78C442.215 75.78 440.015 75.8533 436.641 76V74.845C438.181 74.845 439.263 74.57 439.886 74.02C440.51 73.4333 440.821 72.3883 440.821 70.885V53.67C440.821 51.9833 440.51 50.755 439.886 49.985C439.263 49.215 438.181 48.83 436.641 48.83V47.675C437.815 47.785 438.951 47.84 440.051 47.84C442.361 47.84 444.268 47.5833 445.771 47.07V53.56C446.688 51.2133 447.953 49.5267 449.566 48.5C451.216 47.4367 453.068 46.905 455.121 46.905ZM473.118 36.29C474.548 36.29 475.63 36.8767 476.363 38.05C476.987 39.04 477.298 40.25 477.298 41.68C477.298 43.5133 476.822 45.1633 475.868 46.63C474.952 48.0967 473.54 49.27 471.633 50.15L471.138 49.16C472.275 48.6833 473.247 47.9317 474.053 46.905C474.897 45.8783 475.318 44.8333 475.318 43.77C475.318 43.33 475.263 42.945 475.153 42.615C474.567 43.0917 473.888 43.33 473.118 43.33C472.128 43.33 471.285 43.0183 470.588 42.395C469.928 41.735 469.598 40.8733 469.598 39.81C469.598 38.82 469.928 37.995 470.588 37.335C471.285 36.6383 472.128 36.29 473.118 36.29ZM490.852 46.905C492.172 46.905 493.345 47.1067 494.372 47.51C495.398 47.9133 496.223 48.39 496.847 48.94C497.25 49.2333 497.58 49.38 497.837 49.38C498.497 49.38 498.9 48.5733 499.047 46.96H500.312C500.165 48.7567 500.092 51.8733 500.092 56.31H498.827C498.423 53.89 497.635 51.8917 496.462 50.315C495.325 48.7383 493.62 47.95 491.347 47.95C490.027 47.95 488.945 48.335 488.102 49.105C487.258 49.8383 486.837 50.865 486.837 52.185C486.837 53.4683 487.277 54.55 488.157 55.43C489.037 56.2733 490.448 57.3 492.392 58.51C492.722 58.6933 493.217 59.005 493.877 59.445C495.563 60.545 496.92 61.5167 497.947 62.36C498.973 63.2033 499.798 64.175 500.422 65.275C501.082 66.375 501.412 67.64 501.412 69.07C501.412 71.49 500.495 73.3783 498.662 74.735C496.865 76.0917 494.647 76.77 492.007 76.77C490.357 76.77 488.908 76.5133 487.662 76C486.855 75.5967 486.103 75.1017 485.407 74.515C485.26 74.3683 485.095 74.295 484.912 74.295C484.655 74.295 484.417 74.4783 484.197 74.845C484.013 75.2117 483.867 75.725 483.757 76.385H482.492C482.638 74.295 482.712 70.6283 482.712 65.385H483.977C484.38 68.8317 485.113 71.4167 486.177 73.14C487.24 74.8267 489.055 75.67 491.622 75.67C492.905 75.67 494.042 75.2483 495.032 74.405C496.022 73.5617 496.517 72.2417 496.517 70.445C496.517 69.015 496.022 67.805 495.032 66.815C494.078 65.825 492.502 64.6333 490.302 63.24C488.505 62.1033 487.112 61.1683 486.122 60.435C485.168 59.7017 484.362 58.8033 483.702 57.74C483.042 56.6767 482.712 55.43 482.712 54C482.712 51.69 483.482 49.93 485.022 48.72C486.562 47.51 488.505 46.905 490.852 46.905ZM119.188 123.96C119.188 126.05 119.317 128.397 119.573 131C117.08 130.89 112.882 130.835 106.978 130.835C99.9383 130.835 94.6216 130.89 91.0283 131V129.9C92.3483 129.827 93.3016 129.68 93.8883 129.46C94.5116 129.24 94.9333 128.818 95.1533 128.195C95.3733 127.572 95.4833 126.563 95.4833 125.17V97.89C95.4833 96.4967 95.3733 95.4883 95.1533 94.865C94.9333 94.2417 94.5116 93.82 93.8883 93.6C93.3016 93.38 92.3483 93.2333 91.0283 93.16V92.06C94.6216 92.17 99.9383 92.225 106.978 92.225C112.368 92.225 116.2 92.17 118.473 92.06C118.217 94.48 118.088 96.6433 118.088 98.55C118.088 99.98 118.143 101.117 118.253 101.96H116.988C116.732 99.5767 116.402 97.8167 115.998 96.68C115.595 95.5067 114.917 94.6633 113.963 94.15C113.01 93.6 111.562 93.325 109.618 93.325H105.053C103.733 93.325 102.762 93.435 102.138 93.655C101.552 93.8383 101.148 94.2417 100.928 94.865C100.708 95.4883 100.598 96.4967 100.598 97.89V110.87H104.228C105.512 110.87 106.502 110.577 107.198 109.99C107.895 109.367 108.353 108.652 108.573 107.845C108.83 107.002 109.032 105.957 109.178 104.71L109.343 103.61H110.608C110.498 105.15 110.443 106.873 110.443 108.78V111.42C110.443 113.29 110.553 115.893 110.773 119.23H109.508C109.472 118.973 109.362 118.093 109.178 116.59C108.995 115.05 108.482 113.895 107.638 113.125C106.832 112.355 105.695 111.97 104.228 111.97H100.598V125.17C100.598 126.563 100.708 127.572 100.928 128.195C101.148 128.818 101.552 129.24 102.138 129.46C102.762 129.643 103.733 129.735 105.053 129.735H109.068C111.342 129.735 113.065 129.442 114.238 128.855C115.448 128.232 116.328 127.26 116.878 125.94C117.428 124.583 117.832 122.603 118.088 120H119.353C119.243 120.99 119.188 122.31 119.188 123.96ZM142.309 101.905C144.876 101.905 146.819 102.602 148.139 103.995C148.836 104.728 149.331 105.645 149.624 106.745C149.917 107.845 150.064 109.33 150.064 111.2V125.885C150.064 127.388 150.376 128.433 150.999 129.02C151.622 129.57 152.704 129.845 154.244 129.845V131C150.871 130.853 148.671 130.78 147.644 130.78C146.617 130.78 144.564 130.853 141.484 131V129.845C142.841 129.845 143.776 129.57 144.289 129.02C144.839 128.433 145.114 127.388 145.114 125.885V109.99C145.114 107.937 144.821 106.378 144.234 105.315C143.647 104.215 142.456 103.665 140.659 103.665C139.156 103.665 137.817 104.105 136.644 104.985C135.471 105.865 134.554 107.075 133.894 108.615C133.271 110.118 132.959 111.805 132.959 113.675V125.885C132.959 127.388 133.216 128.433 133.729 129.02C134.279 129.57 135.232 129.845 136.589 129.845V131C133.509 130.853 131.456 130.78 130.429 130.78C129.402 130.78 127.202 130.853 123.829 131V129.845C125.369 129.845 126.451 129.57 127.074 129.02C127.697 128.433 128.009 127.388 128.009 125.885V108.67C128.009 106.983 127.697 105.755 127.074 104.985C126.451 104.215 125.369 103.83 123.829 103.83V102.675C125.002 102.785 126.139 102.84 127.239 102.84C129.549 102.84 131.456 102.583 132.959 102.07V108.56C133.876 106.213 135.141 104.527 136.754 103.5C138.404 102.437 140.256 101.905 142.309 101.905ZM165.501 102.73H173.641V103.83H165.501V125.115C165.501 126.765 165.795 127.957 166.381 128.69C167.005 129.423 167.885 129.79 169.021 129.79C170.158 129.79 171.13 129.332 171.936 128.415C172.743 127.498 173.421 125.995 173.971 123.905L175.071 124.18C174.155 129.24 171.771 131.77 167.921 131.77C166.675 131.77 165.648 131.623 164.841 131.33C164.035 131.037 163.32 130.578 162.696 129.955C161.89 129.148 161.321 128.158 160.991 126.985C160.698 125.812 160.551 124.235 160.551 122.255V103.83H155.271V102.73H160.551V94.315C162.605 94.2417 164.255 93.985 165.501 93.545V102.73ZM193.195 101.905C194.661 101.905 195.853 102.327 196.77 103.17C197.723 104.013 198.2 105.04 198.2 106.25C198.2 107.203 197.906 108.028 197.32 108.725C196.77 109.385 196.018 109.715 195.065 109.715C194.258 109.715 193.561 109.458 192.975 108.945C192.425 108.432 192.15 107.735 192.15 106.855C192.15 105.645 192.773 104.655 194.02 103.885C193.763 103.518 193.378 103.335 192.865 103.335C191.435 103.335 190.133 103.903 188.96 105.04C187.786 106.14 186.87 107.497 186.21 109.11C185.55 110.723 185.22 112.245 185.22 113.675V125.335C185.22 127.022 185.696 128.195 186.65 128.855C187.64 129.515 189.106 129.845 191.05 129.845V131L189.73 130.945C185.99 130.835 183.606 130.78 182.58 130.78C181.626 130.78 179.463 130.853 176.09 131V129.845C177.63 129.845 178.711 129.57 179.335 129.02C179.958 128.433 180.27 127.388 180.27 125.885V108.67C180.27 106.983 179.958 105.755 179.335 104.985C178.711 104.215 177.63 103.83 176.09 103.83V102.675C177.263 102.785 178.4 102.84 179.5 102.84C181.81 102.84 183.716 102.583 185.22 102.07V108.945C185.88 107.112 186.925 105.48 188.355 104.05C189.821 102.62 191.435 101.905 193.195 101.905ZM223.378 124.4C222.718 126.417 221.471 128.158 219.638 129.625C217.841 131.055 215.659 131.77 213.093 131.77C210.489 131.77 208.234 131.183 206.328 130.01C204.421 128.8 202.954 127.132 201.928 125.005C200.938 122.842 200.443 120.348 200.443 117.525C200.443 114.335 200.956 111.567 201.983 109.22C203.009 106.873 204.458 105.077 206.328 103.83C208.198 102.547 210.379 101.905 212.873 101.905C216.173 101.905 218.703 102.913 220.463 104.93C222.259 106.91 223.158 109.935 223.158 114.005H205.943C205.833 115.032 205.778 116.205 205.778 117.525C205.778 119.945 206.163 122.053 206.933 123.85C207.739 125.647 208.784 127.04 210.068 128.03C211.388 128.983 212.763 129.46 214.193 129.46C215.953 129.46 217.511 129.038 218.868 128.195C220.224 127.352 221.361 125.94 222.278 123.96L223.378 124.4ZM212.653 102.95C210.929 102.95 209.444 103.793 208.198 105.48C206.951 107.167 206.181 109.66 205.888 112.96H217.878C217.951 110.1 217.529 107.717 216.613 105.81C215.733 103.903 214.413 102.95 212.653 102.95ZM244.875 101.905C246.818 101.905 248.56 102.437 250.1 103.5C251.677 104.563 252.905 106.122 253.785 108.175C254.665 110.228 255.105 112.685 255.105 115.545C255.105 118.368 254.647 121.008 253.73 123.465C252.85 125.922 251.457 127.92 249.55 129.46C247.68 131 245.333 131.77 242.51 131.77C241.117 131.77 239.852 131.495 238.715 130.945C237.578 130.395 236.698 129.68 236.075 128.8V135.84C236.075 137.343 236.515 138.37 237.395 138.92C238.275 139.507 239.595 139.8 241.355 139.8V140.955L240.09 140.9C236.68 140.79 234.462 140.735 233.435 140.735C232.555 140.735 230.575 140.808 227.495 140.955V139.8C228.852 139.8 229.787 139.543 230.3 139.03C230.85 138.553 231.125 137.673 231.125 136.39V108.67C231.125 106.983 230.813 105.755 230.19 104.985C229.567 104.215 228.485 103.83 226.945 103.83V102.675C228.082 102.785 229.218 102.84 230.355 102.84C232.665 102.84 234.572 102.583 236.075 102.07V107.9C236.882 105.993 238.055 104.527 239.595 103.5C241.135 102.437 242.895 101.905 244.875 101.905ZM241.905 130.505C247.148 130.505 249.77 125.775 249.77 116.315C249.77 107.808 247.643 103.555 243.39 103.555C241.74 103.555 240.255 104.16 238.935 105.37C237.615 106.543 236.662 108.248 236.075 110.485V126.985C236.588 128.048 237.34 128.91 238.33 129.57C239.32 130.193 240.512 130.505 241.905 130.505ZM276.393 101.905C277.86 101.905 279.051 102.327 279.968 103.17C280.921 104.013 281.398 105.04 281.398 106.25C281.398 107.203 281.105 108.028 280.518 108.725C279.968 109.385 279.216 109.715 278.263 109.715C277.456 109.715 276.76 109.458 276.173 108.945C275.623 108.432 275.348 107.735 275.348 106.855C275.348 105.645 275.971 104.655 277.218 103.885C276.961 103.518 276.576 103.335 276.063 103.335C274.633 103.335 273.331 103.903 272.158 105.04C270.985 106.14 270.068 107.497 269.408 109.11C268.748 110.723 268.418 112.245 268.418 113.675V125.335C268.418 127.022 268.895 128.195 269.848 128.855C270.838 129.515 272.305 129.845 274.248 129.845V131L272.928 130.945C269.188 130.835 266.805 130.78 265.778 130.78C264.825 130.78 262.661 130.853 259.288 131V129.845C260.828 129.845 261.91 129.57 262.533 129.02C263.156 128.433 263.468 127.388 263.468 125.885V108.67C263.468 106.983 263.156 105.755 262.533 104.985C261.91 104.215 260.828 103.83 259.288 103.83V102.675C260.461 102.785 261.598 102.84 262.698 102.84C265.008 102.84 266.915 102.583 268.418 102.07V108.945C269.078 107.112 270.123 105.48 271.553 104.05C273.02 102.62 274.633 101.905 276.393 101.905ZM306.576 124.4C305.916 126.417 304.669 128.158 302.836 129.625C301.039 131.055 298.858 131.77 296.291 131.77C293.688 131.77 291.433 131.183 289.526 130.01C287.619 128.8 286.153 127.132 285.126 125.005C284.136 122.842 283.641 120.348 283.641 117.525C283.641 114.335 284.154 111.567 285.181 109.22C286.208 106.873 287.656 105.077 289.526 103.83C291.396 102.547 293.578 101.905 296.071 101.905C299.371 101.905 301.901 102.913 303.661 104.93C305.458 106.91 306.356 109.935 306.356 114.005H289.141C289.031 115.032 288.976 116.205 288.976 117.525C288.976 119.945 289.361 122.053 290.131 123.85C290.938 125.647 291.983 127.04 293.266 128.03C294.586 128.983 295.961 129.46 297.391 129.46C299.151 129.46 300.709 129.038 302.066 128.195C303.423 127.352 304.559 125.94 305.476 123.96L306.576 124.4ZM295.851 102.95C294.128 102.95 292.643 103.793 291.396 105.48C290.149 107.167 289.379 109.66 289.086 112.96H301.076C301.149 110.1 300.728 107.717 299.811 105.81C298.931 103.903 297.611 102.95 295.851 102.95ZM329.008 101.905C331.575 101.905 333.518 102.602 334.838 103.995C335.535 104.728 336.03 105.645 336.323 106.745C336.616 107.845 336.763 109.33 336.763 111.2V125.885C336.763 127.388 337.075 128.433 337.698 129.02C338.321 129.57 339.403 129.845 340.943 129.845V131C337.57 130.853 335.37 130.78 334.343 130.78C333.316 130.78 331.263 130.853 328.183 131V129.845C329.54 129.845 330.475 129.57 330.988 129.02C331.538 128.433 331.813 127.388 331.813 125.885V109.99C331.813 107.937 331.52 106.378 330.933 105.315C330.346 104.215 329.155 103.665 327.358 103.665C325.855 103.665 324.516 104.105 323.343 104.985C322.17 105.865 321.253 107.075 320.593 108.615C319.97 110.118 319.658 111.805 319.658 113.675V125.885C319.658 127.388 319.915 128.433 320.428 129.02C320.978 129.57 321.931 129.845 323.288 129.845V131C320.208 130.853 318.155 130.78 317.128 130.78C316.101 130.78 313.901 130.853 310.528 131V129.845C312.068 129.845 313.15 129.57 313.773 129.02C314.396 128.433 314.708 127.388 314.708 125.885V108.67C314.708 106.983 314.396 105.755 313.773 104.985C313.15 104.215 312.068 103.83 310.528 103.83V102.675C311.701 102.785 312.838 102.84 313.938 102.84C316.248 102.84 318.155 102.583 319.658 102.07V108.56C320.575 106.213 321.84 104.527 323.453 103.5C325.103 102.437 326.955 101.905 329.008 101.905ZM367.215 124.4C366.555 126.417 365.309 128.158 363.475 129.625C361.679 131.055 359.497 131.77 356.93 131.77C354.327 131.77 352.072 131.183 350.165 130.01C348.259 128.8 346.792 127.132 345.765 125.005C344.775 122.842 344.28 120.348 344.28 117.525C344.28 114.335 344.794 111.567 345.82 109.22C346.847 106.873 348.295 105.077 350.165 103.83C352.035 102.547 354.217 101.905 356.71 101.905C360.01 101.905 362.54 102.913 364.3 104.93C366.097 106.91 366.995 109.935 366.995 114.005H349.78C349.67 115.032 349.615 116.205 349.615 117.525C349.615 119.945 350 122.053 350.77 123.85C351.577 125.647 352.622 127.04 353.905 128.03C355.225 128.983 356.6 129.46 358.03 129.46C359.79 129.46 361.349 129.038 362.705 128.195C364.062 127.352 365.199 125.94 366.115 123.96L367.215 124.4ZM356.49 102.95C354.767 102.95 353.282 103.793 352.035 105.48C350.789 107.167 350.019 109.66 349.725 112.96H361.715C361.789 110.1 361.367 107.717 360.45 105.81C359.57 103.903 358.25 102.95 356.49 102.95ZM396.138 125.06C396.138 126.747 396.449 127.975 397.073 128.745C397.696 129.515 398.778 129.9 400.318 129.9V131.055C399.181 130.945 398.044 130.89 396.908 130.89C394.598 130.89 392.691 131.147 391.188 131.66V125.17C390.308 127.443 389.061 129.112 387.448 130.175C385.834 131.238 384.074 131.77 382.168 131.77C379.674 131.77 377.768 131.073 376.448 129.68C375.788 128.947 375.311 128.012 375.018 126.875C374.761 125.738 374.633 124.272 374.633 122.475V108.67C374.633 106.983 374.321 105.755 373.698 104.985C373.074 104.215 371.993 103.83 370.453 103.83V102.675C371.589 102.785 372.726 102.84 373.863 102.84C376.173 102.84 378.079 102.583 379.583 102.07V123.685C379.583 125.078 379.656 126.215 379.803 127.095C379.986 127.938 380.371 128.635 380.958 129.185C381.581 129.735 382.516 130.01 383.763 130.01C385.156 130.01 386.421 129.57 387.558 128.69C388.694 127.81 389.574 126.618 390.198 125.115C390.858 123.575 391.188 121.888 391.188 120.055V108.67C391.188 106.983 390.876 105.755 390.253 104.985C389.629 104.215 388.548 103.83 387.008 103.83V102.675C388.144 102.785 389.281 102.84 390.418 102.84C392.728 102.84 394.634 102.583 396.138 102.07V125.06ZM420.231 101.905C421.697 101.905 422.889 102.327 423.806 103.17C424.759 104.013 425.236 105.04 425.236 106.25C425.236 107.203 424.942 108.028 424.356 108.725C423.806 109.385 423.054 109.715 422.101 109.715C421.294 109.715 420.597 109.458 420.011 108.945C419.461 108.432 419.186 107.735 419.186 106.855C419.186 105.645 419.809 104.655 421.056 103.885C420.799 103.518 420.414 103.335 419.901 103.335C418.471 103.335 417.169 103.903 415.996 105.04C414.822 106.14 413.906 107.497 413.246 109.11C412.586 110.723 412.256 112.245 412.256 113.675V125.335C412.256 127.022 412.732 128.195 413.686 128.855C414.676 129.515 416.142 129.845 418.086 129.845V131L416.766 130.945C413.026 130.835 410.642 130.78 409.616 130.78C408.662 130.78 406.499 130.853 403.126 131V129.845C404.666 129.845 405.747 129.57 406.371 129.02C406.994 128.433 407.306 127.388 407.306 125.885V108.67C407.306 106.983 406.994 105.755 406.371 104.985C405.747 104.215 404.666 103.83 403.126 103.83V102.675C404.299 102.785 405.436 102.84 406.536 102.84C408.846 102.84 410.752 102.583 412.256 102.07V108.945C412.916 107.112 413.961 105.48 415.391 104.05C416.857 102.62 418.471 101.905 420.231 101.905ZM437.463 101.905C438.783 101.905 439.956 102.107 440.983 102.51C442.01 102.913 442.835 103.39 443.458 103.94C443.861 104.233 444.191 104.38 444.448 104.38C445.108 104.38 445.511 103.573 445.658 101.96H446.923C446.776 103.757 446.703 106.873 446.703 111.31H445.438C445.035 108.89 444.246 106.892 443.073 105.315C441.936 103.738 440.231 102.95 437.958 102.95C436.638 102.95 435.556 103.335 434.713 104.105C433.87 104.838 433.448 105.865 433.448 107.185C433.448 108.468 433.888 109.55 434.768 110.43C435.648 111.273 437.06 112.3 439.003 113.51C439.333 113.693 439.828 114.005 440.488 114.445C442.175 115.545 443.531 116.517 444.558 117.36C445.585 118.203 446.41 119.175 447.033 120.275C447.693 121.375 448.023 122.64 448.023 124.07C448.023 126.49 447.106 128.378 445.273 129.735C443.476 131.092 441.258 131.77 438.618 131.77C436.968 131.77 435.52 131.513 434.273 131C433.466 130.597 432.715 130.102 432.018 129.515C431.871 129.368 431.706 129.295 431.523 129.295C431.266 129.295 431.028 129.478 430.808 129.845C430.625 130.212 430.478 130.725 430.368 131.385H429.103C429.25 129.295 429.323 125.628 429.323 120.385H430.588C430.991 123.832 431.725 126.417 432.788 128.14C433.851 129.827 435.666 130.67 438.233 130.67C439.516 130.67 440.653 130.248 441.643 129.405C442.633 128.562 443.128 127.242 443.128 125.445C443.128 124.015 442.633 122.805 441.643 121.815C440.69 120.825 439.113 119.633 436.913 118.24C435.116 117.103 433.723 116.168 432.733 115.435C431.78 114.702 430.973 113.803 430.313 112.74C429.653 111.677 429.323 110.43 429.323 109C429.323 106.69 430.093 104.93 431.633 103.72C433.173 102.51 435.116 101.905 437.463 101.905ZM508.253 92.225C509.903 92.225 511.278 92.17 512.378 92.06V93.16C510.324 93.6367 508.876 95.2317 508.033 97.945L497.638 131.275H497.198H496.758L487.188 102.95L478.443 131.275H478.003H477.563L465.903 96.68C465.133 94.4067 463.868 93.2333 462.108 93.16V92.06C463.611 92.17 465.573 92.225 467.993 92.225C470.633 92.225 472.613 92.17 473.933 92.06V93.16C472.943 93.2333 472.246 93.4167 471.843 93.71C471.439 94.0033 471.238 94.4617 471.238 95.085C471.238 95.6717 471.439 96.57 471.843 97.78L479.873 122.31L486.583 101.025L485.098 96.68C484.364 94.4067 483.283 93.2333 481.853 93.16V92.06C483.173 92.17 484.951 92.225 487.188 92.225C490.341 92.225 492.688 92.17 494.228 92.06V93.16C492.834 93.2333 491.863 93.3983 491.313 93.655C490.763 93.875 490.488 94.37 490.488 95.14C490.488 95.8 490.671 96.68 491.038 97.78L498.958 122.255L505.723 100.97C506.309 99.1733 506.603 97.6883 506.603 96.515C506.603 95.305 506.236 94.4617 505.503 93.985C504.769 93.4717 503.578 93.1967 501.928 93.16V92.06C504.018 92.17 506.126 92.225 508.253 92.225ZM523.539 101.905C527.279 101.905 530.286 103.152 532.559 105.645C534.869 108.102 536.024 111.842 536.024 116.865C536.024 121.888 534.869 125.628 532.559 128.085C530.286 130.542 527.279 131.77 523.539 131.77C519.799 131.77 516.774 130.542 514.464 128.085C512.191 125.628 511.054 121.888 511.054 116.865C511.054 111.842 512.191 108.102 514.464 105.645C516.774 103.152 519.799 101.905 523.539 101.905ZM523.539 103.005C521.339 103.005 519.598 104.142 518.314 106.415C517.031 108.652 516.389 112.135 516.389 116.865C516.389 121.595 517.031 125.078 518.314 127.315C519.598 129.552 521.339 130.67 523.539 130.67C525.739 130.67 527.481 129.552 528.764 127.315C530.048 125.078 530.689 121.595 530.689 116.865C530.689 112.135 530.048 108.652 528.764 106.415C527.481 104.142 525.739 103.005 523.539 103.005ZM557.301 101.905C558.768 101.905 559.959 102.327 560.876 103.17C561.829 104.013 562.306 105.04 562.306 106.25C562.306 107.203 562.013 108.028 561.426 108.725C560.876 109.385 560.124 109.715 559.171 109.715C558.364 109.715 557.668 109.458 557.081 108.945C556.531 108.432 556.256 107.735 556.256 106.855C556.256 105.645 556.879 104.655 558.126 103.885C557.869 103.518 557.484 103.335 556.971 103.335C555.541 103.335 554.239 103.903 553.066 105.04C551.893 106.14 550.976 107.497 550.316 109.11C549.656 110.723 549.326 112.245 549.326 113.675V125.335C549.326 127.022 549.803 128.195 550.756 128.855C551.746 129.515 553.213 129.845 555.156 129.845V131L553.836 130.945C550.096 130.835 547.713 130.78 546.686 130.78C545.733 130.78 543.569 130.853 540.196 131V129.845C541.736 129.845 542.818 129.57 543.441 129.02C544.064 128.433 544.376 127.388 544.376 125.885V108.67C544.376 106.983 544.064 105.755 543.441 104.985C542.818 104.215 541.736 103.83 540.196 103.83V102.675C541.369 102.785 542.506 102.84 543.606 102.84C545.916 102.84 547.823 102.583 549.326 102.07V108.945C549.986 107.112 551.031 105.48 552.461 104.05C553.928 102.62 555.541 101.905 557.301 101.905ZM588.034 126.985C588.731 127.902 589.354 128.58 589.904 129.02C590.454 129.46 591.114 129.735 591.884 129.845V131C589.684 130.853 588.199 130.78 587.429 130.78C586.439 130.78 584.404 130.853 581.324 131V129.845C581.837 129.845 582.241 129.753 582.534 129.57C582.864 129.35 583.029 129.093 583.029 128.8C583.029 128.507 582.919 128.232 582.699 127.975L576.374 118.735C575.751 117.818 575.146 117.213 574.559 116.92C574.009 116.59 573.239 116.388 572.249 116.315V125.885C572.249 127.388 572.506 128.433 573.019 129.02C573.569 129.57 574.522 129.845 575.879 129.845V131C572.799 130.853 570.764 130.78 569.774 130.78C568.711 130.78 566.492 130.853 563.119 131V129.845C564.659 129.845 565.741 129.57 566.364 129.02C566.987 128.433 567.299 127.388 567.299 125.885V94.48C567.299 92.7933 566.987 91.565 566.364 90.795C565.741 90.025 564.659 89.64 563.119 89.64V88.485C564.292 88.595 565.429 88.65 566.529 88.65C568.839 88.65 570.746 88.3933 572.249 87.88V115.16C573.312 115.013 574.192 114.775 574.889 114.445C575.622 114.078 576.319 113.565 576.979 112.905L581.049 108.67C582.222 107.46 582.809 106.452 582.809 105.645C582.809 105.022 582.424 104.563 581.654 104.27C580.921 103.94 579.949 103.775 578.739 103.775V102.675C581.306 102.822 583.377 102.895 584.954 102.895C586.677 102.895 588.272 102.822 589.739 102.675V103.775C587.942 103.922 586.292 104.783 584.789 106.36L578.079 113.4L588.034 126.985ZM603.698 101.905C605.018 101.905 606.192 102.107 607.218 102.51C608.245 102.913 609.07 103.39 609.693 103.94C610.097 104.233 610.427 104.38 610.683 104.38C611.343 104.38 611.747 103.573 611.893 101.96H613.158C613.012 103.757 612.938 106.873 612.938 111.31H611.673C611.27 108.89 610.482 106.892 609.308 105.315C608.172 103.738 606.467 102.95 604.193 102.95C602.873 102.95 601.792 103.335 600.948 104.105C600.105 104.838 599.683 105.865 599.683 107.185C599.683 108.468 600.123 109.55 601.003 110.43C601.883 111.273 603.295 112.3 605.238 113.51C605.568 113.693 606.063 114.005 606.723 114.445C608.41 115.545 609.767 116.517 610.793 117.36C611.82 118.203 612.645 119.175 613.268 120.275C613.928 121.375 614.258 122.64 614.258 124.07C614.258 126.49 613.342 128.378 611.508 129.735C609.712 131.092 607.493 131.77 604.853 131.77C603.203 131.77 601.755 131.513 600.508 131C599.702 130.597 598.95 130.102 598.253 129.515C598.107 129.368 597.942 129.295 597.758 129.295C597.502 129.295 597.263 129.478 597.043 129.845C596.86 130.212 596.713 130.725 596.603 131.385H595.338C595.485 129.295 595.558 125.628 595.558 120.385H596.823C597.227 123.832 597.96 126.417 599.023 128.14C600.087 129.827 601.902 130.67 604.468 130.67C605.752 130.67 606.888 130.248 607.878 129.405C608.868 128.562 609.363 127.242 609.363 125.445C609.363 124.015 608.868 122.805 607.878 121.815C606.925 120.825 605.348 119.633 603.148 118.24C601.352 117.103 599.958 116.168 598.968 115.435C598.015 114.702 597.208 113.803 596.548 112.74C595.888 111.677 595.558 110.43 595.558 109C595.558 106.69 596.328 104.93 597.868 103.72C599.408 102.51 601.352 101.905 603.698 101.905ZM627.088 108.505C628.005 106.195 629.27 104.527 630.883 103.5C632.533 102.437 634.385 101.905 636.438 101.905C639.005 101.905 640.948 102.602 642.268 103.995C642.965 104.728 643.46 105.645 643.753 106.745C644.046 107.845 644.193 109.33 644.193 111.2V125.885C644.193 127.388 644.505 128.433 645.128 129.02C645.751 129.57 646.833 129.845 648.373 129.845V131C645 130.853 642.8 130.78 641.773 130.78C640.746 130.78 638.693 130.853 635.613 131V129.845C636.97 129.845 637.905 129.57 638.418 129.02C638.968 128.433 639.243 127.388 639.243 125.885V109.99C639.243 107.937 638.95 106.378 638.363 105.315C637.776 104.215 636.585 103.665 634.788 103.665C633.285 103.665 631.946 104.087 630.773 104.93C629.636 105.773 628.738 106.965 628.078 108.505C627.418 110.008 627.088 111.713 627.088 113.62V125.885C627.088 127.388 627.345 128.433 627.858 129.02C628.408 129.57 629.361 129.845 630.718 129.845V131C627.638 130.853 625.585 130.78 624.558 130.78C623.531 130.78 621.331 130.853 617.958 131V129.845C619.498 129.845 620.58 129.57 621.203 129.02C621.826 128.433 622.138 127.388 622.138 125.885V94.535C622.138 92.8483 621.826 91.62 621.203 90.85C620.58 90.08 619.498 89.695 617.958 89.695V88.54C619.131 88.65 620.268 88.705 621.368 88.705C623.678 88.705 625.585 88.4483 627.088 87.935V108.505ZM664.262 101.905C668.002 101.905 671.009 103.152 673.282 105.645C675.592 108.102 676.747 111.842 676.747 116.865C676.747 121.888 675.592 125.628 673.282 128.085C671.009 130.542 668.002 131.77 664.262 131.77C660.522 131.77 657.497 130.542 655.187 128.085C652.914 125.628 651.777 121.888 651.777 116.865C651.777 111.842 652.914 108.102 655.187 105.645C657.497 103.152 660.522 101.905 664.262 101.905ZM664.262 103.005C662.062 103.005 660.32 104.142 659.037 106.415C657.754 108.652 657.112 112.135 657.112 116.865C657.112 121.595 657.754 125.078 659.037 127.315C660.32 129.552 662.062 130.67 664.262 130.67C666.462 130.67 668.204 129.552 669.487 127.315C670.77 125.078 671.412 121.595 671.412 116.865C671.412 112.135 670.77 108.652 669.487 106.415C668.204 104.142 666.462 103.005 664.262 103.005ZM698.464 101.905C700.407 101.905 702.149 102.437 703.689 103.5C705.265 104.563 706.494 106.122 707.374 108.175C708.254 110.228 708.694 112.685 708.694 115.545C708.694 118.368 708.235 121.008 707.319 123.465C706.439 125.922 705.045 127.92 703.139 129.46C701.269 131 698.922 131.77 696.099 131.77C694.705 131.77 693.44 131.495 692.304 130.945C691.167 130.395 690.287 129.68 689.664 128.8V135.84C689.664 137.343 690.104 138.37 690.984 138.92C691.864 139.507 693.184 139.8 694.944 139.8V140.955L693.679 140.9C690.269 140.79 688.05 140.735 687.024 140.735C686.144 140.735 684.164 140.808 681.084 140.955V139.8C682.44 139.8 683.375 139.543 683.889 139.03C684.439 138.553 684.714 137.673 684.714 136.39V108.67C684.714 106.983 684.402 105.755 683.779 104.985C683.155 104.215 682.074 103.83 680.534 103.83V102.675C681.67 102.785 682.807 102.84 683.944 102.84C686.254 102.84 688.16 102.583 689.664 102.07V107.9C690.47 105.993 691.644 104.527 693.184 103.5C694.724 102.437 696.484 101.905 698.464 101.905ZM695.494 130.505C700.737 130.505 703.359 125.775 703.359 116.315C703.359 107.808 701.232 103.555 696.979 103.555C695.329 103.555 693.844 104.16 692.524 105.37C691.204 106.543 690.25 108.248 689.664 110.485V126.985C690.177 128.048 690.929 128.91 691.919 129.57C692.909 130.193 694.1 130.505 695.494 130.505Z" fill="white"/>
</g>
<defs>
<clipPath id="clip0">
<rect width="622" height="114" fill="white" transform="translate(89 33)"/>
</clipPath>
</defs>
</svg>
