<svg width="40" height="40" viewBox="0 0 40 40" fill="none" xmlns="http://www.w3.org/2000/svg">
<g clip-path="url(#clip0)">
<path d="M31.4667 0H8.53331C3.82049 0 0 3.82049 0 8.53331V31.4667C0 36.1796 3.82049 40.0001 8.53331 40.0001H31.4667C36.1796 40.0001 40.0001 36.1796 40.0001 31.4667V8.53331C40.0001 3.82049 36.1796 0 31.4667 0Z" fill="#AA8FC6"/>
<path fill-rule="evenodd" clip-rule="evenodd" d="M32.1694 13.9309C31.3078 14.3129 30.3799 14.572 29.4081 14.6876C30.401 14.0919 31.1626 13.1501 31.5234 12.0276C30.5938 12.5777 29.5641 12.9785 28.4694 13.1941C27.5922 12.259 26.342 11.6758 24.9586 11.6758C22.3022 11.6758 20.1506 13.8297 20.1506 16.4839C20.1506 16.8604 20.1922 17.2285 20.2747 17.5803C16.2788 17.379 12.7349 15.4649 10.364 12.5548C9.94895 13.2658 9.71275 14.0919 9.71275 14.9728C9.71275 16.6417 10.5617 18.1141 11.8505 18.9758C11.0624 18.9511 10.3219 18.7341 9.67234 18.3732C9.67234 18.3943 9.67234 18.4136 9.67234 18.4347C9.67234 20.7634 11.3304 22.7071 13.5297 23.1486C13.1272 23.2589 12.7018 23.3185 12.2638 23.3185C11.9541 23.3185 11.6528 23.2885 11.3583 23.2325C11.9715 25.1429 13.7471 26.533 15.8517 26.5715C14.2057 27.862 12.1325 28.629 9.87897 28.629C9.48989 28.629 9.10666 28.6081 8.73193 28.5627C10.8594 29.9267 13.3863 30.7233 16.1019 30.7233C24.9466 30.7233 29.7847 23.3952 29.7847 17.041C29.7847 16.8326 29.7794 16.6259 29.7708 16.4193C30.7107 15.7415 31.5252 14.8942 32.1695 13.9309L32.1694 13.9309Z" fill="white"/>
</g>
<defs>
<clipPath id="clip0">
<rect width="40" height="40" fill="white"/>
</clipPath>
</defs>
</svg>
