<svg width="1400" height="324" viewBox="0 0 1400 324" fill="none" xmlns="http://www.w3.org/2000/svg">
<path d="M247.093 65.175C249.043 65.175 250.668 65.11 251.968 64.98V66.28C249.541 66.8433 247.829 68.7283 246.833 71.935L234.548 111.325H234.028H233.508L222.198 77.85L211.863 111.325H211.343H210.823L197.043 70.44C196.133 67.7533 194.638 66.3667 192.558 66.28V64.98C194.334 65.11 196.653 65.175 199.513 65.175C202.633 65.175 204.973 65.11 206.533 64.98V66.28C205.363 66.3667 204.539 66.5833 204.063 66.93C203.586 67.2767 203.348 67.8183 203.348 68.555C203.348 69.2483 203.586 70.31 204.063 71.74L213.553 100.73L221.483 75.575L219.728 70.44C218.861 67.7533 217.583 66.3667 215.893 66.28V64.98C217.453 65.11 219.554 65.175 222.198 65.175C225.924 65.175 228.698 65.11 230.518 64.98V66.28C228.871 66.3667 227.723 66.5617 227.073 66.865C226.423 67.125 226.098 67.71 226.098 68.62C226.098 69.4 226.314 70.44 226.748 71.74L236.108 100.665L244.103 75.51C244.796 73.3867 245.143 71.6317 245.143 70.245C245.143 68.815 244.709 67.8183 243.843 67.255C242.976 66.6483 241.568 66.3233 239.618 66.28V64.98C242.088 65.11 244.579 65.175 247.093 65.175ZM265.159 76.615C269.579 76.615 273.132 78.0883 275.819 81.035C278.549 83.9383 279.914 88.3583 279.914 94.295C279.914 100.232 278.549 104.652 275.819 107.555C273.132 110.458 269.579 111.91 265.159 111.91C260.739 111.91 257.164 110.458 254.434 107.555C251.747 104.652 250.404 100.232 250.404 94.295C250.404 88.3583 251.747 83.9383 254.434 81.035C257.164 78.0883 260.739 76.615 265.159 76.615ZM265.159 77.915C262.559 77.915 260.5 79.2583 258.984 81.945C257.467 84.5883 256.709 88.705 256.709 94.295C256.709 99.885 257.467 104.002 258.984 106.645C260.5 109.288 262.559 110.61 265.159 110.61C267.759 110.61 269.817 109.288 271.334 106.645C272.85 104.002 273.609 99.885 273.609 94.295C273.609 88.705 272.85 84.5883 271.334 81.945C269.817 79.2583 267.759 77.915 265.159 77.915ZM334.764 104.955C334.764 106.732 335.132 107.967 335.869 108.66C336.606 109.31 337.884 109.635 339.704 109.635V111C335.717 110.827 333.117 110.74 331.904 110.74C330.691 110.74 328.264 110.827 324.624 111V109.635C326.227 109.635 327.332 109.31 327.939 108.66C328.589 107.967 328.914 106.732 328.914 104.955V86.17C328.914 84.5233 328.806 83.2017 328.589 82.205C328.416 81.165 327.961 80.32 327.224 79.67C326.531 79.02 325.447 78.695 323.974 78.695C322.327 78.695 320.832 79.215 319.489 80.255C318.146 81.295 317.084 82.725 316.304 84.545C315.567 86.3217 315.199 88.2933 315.199 90.46V104.955C315.199 106.732 315.567 107.967 316.304 108.66C317.041 109.31 318.319 109.635 320.139 109.635V111C316.152 110.827 313.552 110.74 312.339 110.74C311.126 110.74 308.699 110.827 305.059 111V109.635C306.662 109.635 307.767 109.31 308.374 108.66C309.024 107.967 309.349 106.732 309.349 104.955V86.17C309.349 84.5233 309.241 83.2017 309.024 82.205C308.851 81.165 308.396 80.32 307.659 79.67C306.966 79.02 305.882 78.695 304.409 78.695C302.762 78.695 301.267 79.215 299.924 80.255C298.581 81.295 297.519 82.725 296.739 84.545C296.002 86.365 295.634 88.3583 295.634 90.525V104.955C295.634 106.732 295.937 107.967 296.544 108.66C297.194 109.31 298.321 109.635 299.924 109.635V111C296.284 110.827 293.857 110.74 292.644 110.74C291.431 110.74 288.831 110.827 284.844 111V109.635C286.664 109.635 287.942 109.31 288.679 108.66C289.416 107.967 289.784 106.732 289.784 104.955V84.61C289.784 82.6167 289.416 81.165 288.679 80.255C287.942 79.345 286.664 78.89 284.844 78.89V77.525C286.231 77.655 287.574 77.72 288.874 77.72C291.604 77.72 293.857 77.4167 295.634 76.81V84.48C296.674 81.7933 298.147 79.8217 300.054 78.565C301.961 77.265 304.041 76.615 306.294 76.615C309.241 76.615 311.494 77.4383 313.054 79.085C314.137 80.2117 314.809 81.945 315.069 84.285C316.152 81.555 317.647 79.605 319.554 78.435C321.461 77.2217 323.562 76.615 325.859 76.615C328.806 76.615 331.059 77.4383 332.619 79.085C333.399 79.9517 333.941 81.0567 334.244 82.4C334.591 83.7433 334.764 85.4767 334.764 87.6V104.955ZM370.754 103.2C369.974 105.583 368.501 107.642 366.334 109.375C364.211 111.065 361.633 111.91 358.599 111.91C355.523 111.91 352.858 111.217 350.604 109.83C348.351 108.4 346.618 106.428 345.404 103.915C344.234 101.358 343.649 98.4117 343.649 95.075C343.649 91.305 344.256 88.0333 345.469 85.26C346.683 82.4867 348.394 80.3633 350.604 78.89C352.814 77.3733 355.393 76.615 358.339 76.615C362.239 76.615 365.229 77.8067 367.309 80.19C369.433 82.53 370.494 86.105 370.494 90.915H350.149C350.019 92.1283 349.954 93.515 349.954 95.075C349.954 97.935 350.409 100.427 351.319 102.55C352.273 104.673 353.508 106.32 355.024 107.49C356.584 108.617 358.209 109.18 359.899 109.18C361.979 109.18 363.821 108.682 365.424 107.685C367.028 106.688 368.371 105.02 369.454 102.68L370.754 103.2ZM358.079 77.85C356.043 77.85 354.288 78.8467 352.814 80.84C351.341 82.8333 350.431 85.78 350.084 89.68H364.254C364.341 86.3 363.843 83.4833 362.759 81.23C361.719 78.9767 360.159 77.85 358.079 77.85ZM397.265 76.615C400.298 76.615 402.595 77.4383 404.155 79.085C404.978 79.9517 405.563 81.035 405.91 82.335C406.257 83.635 406.43 85.39 406.43 87.6V104.955C406.43 106.732 406.798 107.967 407.535 108.66C408.272 109.31 409.55 109.635 411.37 109.635V111C407.383 110.827 404.783 110.74 403.57 110.74C402.357 110.74 399.93 110.827 396.29 111V109.635C397.893 109.635 398.998 109.31 399.605 108.66C400.255 107.967 400.58 106.732 400.58 104.955V86.17C400.58 83.7433 400.233 81.9017 399.54 80.645C398.847 79.345 397.438 78.695 395.315 78.695C393.538 78.695 391.957 79.215 390.57 80.255C389.183 81.295 388.1 82.725 387.32 84.545C386.583 86.3217 386.215 88.315 386.215 90.525V104.955C386.215 106.732 386.518 107.967 387.125 108.66C387.775 109.31 388.902 109.635 390.505 109.635V111C386.865 110.827 384.438 110.74 383.225 110.74C382.012 110.74 379.412 110.827 375.425 111V109.635C377.245 109.635 378.523 109.31 379.26 108.66C379.997 107.967 380.365 106.732 380.365 104.955V84.61C380.365 82.6167 379.997 81.165 379.26 80.255C378.523 79.345 377.245 78.89 375.425 78.89V77.525C376.812 77.655 378.155 77.72 379.455 77.72C382.185 77.72 384.438 77.4167 386.215 76.81V84.48C387.298 81.7067 388.793 79.7133 390.7 78.5C392.65 77.2433 394.838 76.615 397.265 76.615ZM418.534 64.07C420.224 64.07 421.503 64.7633 422.369 66.15C423.106 67.32 423.474 68.75 423.474 70.44C423.474 72.6067 422.911 74.5567 421.784 76.29C420.701 78.0233 419.033 79.41 416.779 80.45L416.194 79.28C417.538 78.7167 418.686 77.8283 419.639 76.615C420.636 75.4017 421.134 74.1667 421.134 72.91C421.134 72.39 421.069 71.935 420.939 71.545C420.246 72.1083 419.444 72.39 418.534 72.39C417.364 72.39 416.368 72.0217 415.544 71.285C414.764 70.505 414.374 69.4867 414.374 68.23C414.374 67.06 414.764 66.085 415.544 65.305C416.368 64.4817 417.364 64.07 418.534 64.07ZM439.492 76.615C441.052 76.615 442.438 76.8533 443.652 77.33C444.865 77.8067 445.84 78.37 446.577 79.02C447.053 79.3667 447.443 79.54 447.747 79.54C448.527 79.54 449.003 78.5867 449.177 76.68H450.672C450.498 78.8033 450.412 82.4867 450.412 87.73H448.917C448.44 84.87 447.508 82.5083 446.122 80.645C444.778 78.7817 442.763 77.85 440.077 77.85C438.517 77.85 437.238 78.305 436.242 79.215C435.245 80.0817 434.747 81.295 434.747 82.855C434.747 84.3717 435.267 85.65 436.307 86.69C437.347 87.6867 439.015 88.9 441.312 90.33C441.702 90.5467 442.287 90.915 443.067 91.435C445.06 92.735 446.663 93.8833 447.877 94.88C449.09 95.8767 450.065 97.025 450.802 98.325C451.582 99.625 451.972 101.12 451.972 102.81C451.972 105.67 450.888 107.902 448.722 109.505C446.598 111.108 443.977 111.91 440.857 111.91C438.907 111.91 437.195 111.607 435.722 111C434.768 110.523 433.88 109.938 433.057 109.245C432.883 109.072 432.688 108.985 432.472 108.985C432.168 108.985 431.887 109.202 431.627 109.635C431.41 110.068 431.237 110.675 431.107 111.455H429.612C429.785 108.985 429.872 104.652 429.872 98.455H431.367C431.843 102.528 432.71 105.583 433.967 107.62C435.223 109.613 437.368 110.61 440.402 110.61C441.918 110.61 443.262 110.112 444.432 109.115C445.602 108.118 446.187 106.558 446.187 104.435C446.187 102.745 445.602 101.315 444.432 100.145C443.305 98.975 441.442 97.5667 438.842 95.92C436.718 94.5767 435.072 93.4717 433.902 92.605C432.775 91.7383 431.822 90.6767 431.042 89.42C430.262 88.1633 429.872 86.69 429.872 85C429.872 82.27 430.782 80.19 432.602 78.76C434.422 77.33 436.718 76.615 439.492 76.615ZM507.24 102.68C507.24 105.15 507.392 107.923 507.695 111C504.749 110.87 499.787 110.805 492.81 110.805C484.49 110.805 478.207 110.87 473.96 111V109.7C475.52 109.613 476.647 109.44 477.34 109.18C478.077 108.92 478.575 108.422 478.835 107.685C479.095 106.948 479.225 105.757 479.225 104.11V71.87C479.225 70.2233 479.095 69.0317 478.835 68.295C478.575 67.5583 478.077 67.06 477.34 66.8C476.647 66.54 475.52 66.3667 473.96 66.28V64.98C478.207 65.11 484.49 65.175 492.81 65.175C499.18 65.175 503.709 65.11 506.395 64.98C506.092 67.84 505.94 70.3967 505.94 72.65C505.94 74.34 506.005 75.6833 506.135 76.68H504.64C504.337 73.8633 503.947 71.7833 503.47 70.44C502.994 69.0533 502.192 68.0567 501.065 67.45C499.939 66.8 498.227 66.475 495.93 66.475H490.535C488.975 66.475 487.827 66.605 487.09 66.865C486.397 67.0817 485.92 67.5583 485.66 68.295C485.4 69.0317 485.27 70.2233 485.27 71.87V87.21H489.56C491.077 87.21 492.247 86.8633 493.07 86.17C493.894 85.4333 494.435 84.5883 494.695 83.635C494.999 82.6383 495.237 81.4033 495.41 79.93L495.605 78.63H497.1C496.97 80.45 496.905 82.4867 496.905 84.74V87.86C496.905 90.07 497.035 93.1467 497.295 97.09H495.8C495.757 96.7867 495.627 95.7467 495.41 93.97C495.194 92.15 494.587 90.785 493.59 89.875C492.637 88.965 491.294 88.51 489.56 88.51H485.27V104.11C485.27 105.757 485.4 106.948 485.66 107.685C485.92 108.422 486.397 108.92 487.09 109.18C487.827 109.397 488.975 109.505 490.535 109.505H495.28C497.967 109.505 500.004 109.158 501.39 108.465C502.82 107.728 503.86 106.58 504.51 105.02C505.16 103.417 505.637 101.077 505.94 98H507.435C507.305 99.17 507.24 100.73 507.24 102.68ZM534.565 76.615C537.598 76.615 539.895 77.4383 541.455 79.085C542.278 79.9517 542.863 81.035 543.21 82.335C543.557 83.635 543.73 85.39 543.73 87.6V104.955C543.73 106.732 544.098 107.967 544.835 108.66C545.572 109.31 546.85 109.635 548.67 109.635V111C544.683 110.827 542.083 110.74 540.87 110.74C539.657 110.74 537.23 110.827 533.59 111V109.635C535.193 109.635 536.298 109.31 536.905 108.66C537.555 107.967 537.88 106.732 537.88 104.955V86.17C537.88 83.7433 537.533 81.9017 536.84 80.645C536.147 79.345 534.738 78.695 532.615 78.695C530.838 78.695 529.257 79.215 527.87 80.255C526.483 81.295 525.4 82.725 524.62 84.545C523.883 86.3217 523.515 88.315 523.515 90.525V104.955C523.515 106.732 523.818 107.967 524.425 108.66C525.075 109.31 526.202 109.635 527.805 109.635V111C524.165 110.827 521.738 110.74 520.525 110.74C519.312 110.74 516.712 110.827 512.725 111V109.635C514.545 109.635 515.823 109.31 516.56 108.66C517.297 107.967 517.665 106.732 517.665 104.955V84.61C517.665 82.6167 517.297 81.165 516.56 80.255C515.823 79.345 514.545 78.89 512.725 78.89V77.525C514.112 77.655 515.455 77.72 516.755 77.72C519.485 77.72 521.738 77.4167 523.515 76.81V84.48C524.598 81.7067 526.093 79.7133 528 78.5C529.95 77.2433 532.138 76.615 534.565 76.615ZM561.974 77.59H571.594V78.89H561.974V104.045C561.974 105.995 562.321 107.403 563.014 108.27C563.751 109.137 564.791 109.57 566.134 109.57C567.477 109.57 568.626 109.028 569.579 107.945C570.532 106.862 571.334 105.085 571.984 102.615L573.284 102.94C572.201 108.92 569.384 111.91 564.834 111.91C563.361 111.91 562.147 111.737 561.194 111.39C560.241 111.043 559.396 110.502 558.659 109.765C557.706 108.812 557.034 107.642 556.644 106.255C556.297 104.868 556.124 103.005 556.124 100.665V78.89H549.884V77.59H556.124V67.645C558.551 67.5583 560.501 67.255 561.974 66.735V77.59ZM594.703 76.615C596.436 76.615 597.844 77.1133 598.928 78.11C600.054 79.1067 600.618 80.32 600.618 81.75C600.618 82.8767 600.271 83.8517 599.578 84.675C598.928 85.455 598.039 85.845 596.913 85.845C595.959 85.845 595.136 85.5417 594.443 84.935C593.793 84.3283 593.468 83.505 593.468 82.465C593.468 81.035 594.204 79.865 595.678 78.955C595.374 78.5217 594.919 78.305 594.313 78.305C592.623 78.305 591.084 78.9767 589.698 80.32C588.311 81.62 587.228 83.2233 586.448 85.13C585.668 87.0367 585.278 88.835 585.278 90.525V104.305C585.278 106.298 585.841 107.685 586.968 108.465C588.138 109.245 589.871 109.635 592.168 109.635V111L590.608 110.935C586.188 110.805 583.371 110.74 582.158 110.74C581.031 110.74 578.474 110.827 574.488 111V109.635C576.308 109.635 577.586 109.31 578.323 108.66C579.059 107.967 579.428 106.732 579.428 104.955V84.61C579.428 82.6167 579.059 81.165 578.323 80.255C577.586 79.345 576.308 78.89 574.488 78.89V77.525C575.874 77.655 577.218 77.72 578.518 77.72C581.248 77.72 583.501 77.4167 585.278 76.81V84.935C586.058 82.7683 587.293 80.84 588.983 79.15C590.716 77.46 592.623 76.615 594.703 76.615ZM630.373 103.2C629.593 105.583 628.12 107.642 625.953 109.375C623.83 111.065 621.252 111.91 618.218 111.91C615.142 111.91 612.477 111.217 610.223 109.83C607.97 108.4 606.237 106.428 605.023 103.915C603.853 101.358 603.268 98.4117 603.268 95.075C603.268 91.305 603.875 88.0333 605.088 85.26C606.302 82.4867 608.013 80.3633 610.223 78.89C612.433 77.3733 615.012 76.615 617.958 76.615C621.858 76.615 624.848 77.8067 626.928 80.19C629.052 82.53 630.113 86.105 630.113 90.915H609.768C609.638 92.1283 609.573 93.515 609.573 95.075C609.573 97.935 610.028 100.427 610.938 102.55C611.892 104.673 613.127 106.32 614.643 107.49C616.203 108.617 617.828 109.18 619.518 109.18C621.598 109.18 623.44 108.682 625.043 107.685C626.647 106.688 627.99 105.02 629.073 102.68L630.373 103.2ZM617.698 77.85C615.662 77.85 613.907 78.8467 612.433 80.84C610.96 82.8333 610.05 85.78 609.703 89.68H623.873C623.96 86.3 623.462 83.4833 622.378 81.23C621.338 78.9767 619.778 77.85 617.698 77.85ZM655.779 76.615C658.076 76.615 660.134 77.2433 661.954 78.5C663.818 79.7567 665.269 81.5983 666.309 84.025C667.349 86.4517 667.869 89.355 667.869 92.735C667.869 96.0717 667.328 99.1917 666.244 102.095C665.204 104.998 663.558 107.36 661.304 109.18C659.094 111 656.321 111.91 652.984 111.91C651.338 111.91 649.843 111.585 648.499 110.935C647.156 110.285 646.116 109.44 645.379 108.4V116.72C645.379 118.497 645.899 119.71 646.939 120.36C647.979 121.053 649.539 121.4 651.619 121.4V122.765L650.124 122.7C646.094 122.57 643.473 122.505 642.259 122.505C641.219 122.505 638.879 122.592 635.239 122.765V121.4C636.843 121.4 637.948 121.097 638.554 120.49C639.204 119.927 639.529 118.887 639.529 117.37V84.61C639.529 82.6167 639.161 81.165 638.424 80.255C637.688 79.345 636.409 78.89 634.589 78.89V77.525C635.933 77.655 637.276 77.72 638.619 77.72C641.349 77.72 643.603 77.4167 645.379 76.81V83.7C646.333 81.4467 647.719 79.7133 649.539 78.5C651.359 77.2433 653.439 76.615 655.779 76.615ZM652.269 110.415C658.466 110.415 661.564 104.825 661.564 93.645C661.564 83.5917 659.051 78.565 654.024 78.565C652.074 78.565 650.319 79.28 648.759 80.71C647.199 82.0967 646.073 84.1117 645.379 86.755V106.255C645.986 107.512 646.874 108.53 648.044 109.31C649.214 110.047 650.623 110.415 652.269 110.415ZM693.028 76.615C694.761 76.615 696.169 77.1133 697.253 78.11C698.379 79.1067 698.943 80.32 698.943 81.75C698.943 82.8767 698.596 83.8517 697.903 84.675C697.253 85.455 696.364 85.845 695.238 85.845C694.284 85.845 693.461 85.5417 692.768 84.935C692.118 84.3283 691.793 83.505 691.793 82.465C691.793 81.035 692.529 79.865 694.003 78.955C693.699 78.5217 693.244 78.305 692.638 78.305C690.948 78.305 689.409 78.9767 688.023 80.32C686.636 81.62 685.553 83.2233 684.773 85.13C683.993 87.0367 683.603 88.835 683.603 90.525V104.305C683.603 106.298 684.166 107.685 685.293 108.465C686.463 109.245 688.196 109.635 690.493 109.635V111L688.933 110.935C684.513 110.805 681.696 110.74 680.483 110.74C679.356 110.74 676.799 110.827 672.813 111V109.635C674.633 109.635 675.911 109.31 676.648 108.66C677.384 107.967 677.753 106.732 677.753 104.955V84.61C677.753 82.6167 677.384 81.165 676.648 80.255C675.911 79.345 674.633 78.89 672.813 78.89V77.525C674.199 77.655 675.543 77.72 676.843 77.72C679.573 77.72 681.826 77.4167 683.603 76.81V84.935C684.383 82.7683 685.618 80.84 687.308 79.15C689.041 77.46 690.948 76.615 693.028 76.615ZM728.699 103.2C727.919 105.583 726.445 107.642 724.279 109.375C722.155 111.065 719.577 111.91 716.544 111.91C713.467 111.91 710.802 111.217 708.549 109.83C706.295 108.4 704.562 106.428 703.349 103.915C702.179 101.358 701.594 98.4117 701.594 95.075C701.594 91.305 702.2 88.0333 703.414 85.26C704.627 82.4867 706.339 80.3633 708.549 78.89C710.759 77.3733 713.337 76.615 716.284 76.615C720.184 76.615 723.174 77.8067 725.254 80.19C727.377 82.53 728.439 86.105 728.439 90.915H708.094C707.964 92.1283 707.899 93.515 707.899 95.075C707.899 97.935 708.354 100.427 709.264 102.55C710.217 104.673 711.452 106.32 712.969 107.49C714.529 108.617 716.154 109.18 717.844 109.18C719.924 109.18 721.765 108.682 723.369 107.685C724.972 106.688 726.315 105.02 727.399 102.68L728.699 103.2ZM716.024 77.85C713.987 77.85 712.232 78.8467 710.759 80.84C709.285 82.8333 708.375 85.78 708.029 89.68H722.199C722.285 86.3 721.787 83.4833 720.704 81.23C719.664 78.9767 718.104 77.85 716.024 77.85ZM755.209 76.615C758.243 76.615 760.539 77.4383 762.099 79.085C762.923 79.9517 763.508 81.035 763.854 82.335C764.201 83.635 764.374 85.39 764.374 87.6V104.955C764.374 106.732 764.743 107.967 765.479 108.66C766.216 109.31 767.494 109.635 769.314 109.635V111C765.328 110.827 762.728 110.74 761.514 110.74C760.301 110.74 757.874 110.827 754.234 111V109.635C755.838 109.635 756.943 109.31 757.549 108.66C758.199 107.967 758.524 106.732 758.524 104.955V86.17C758.524 83.7433 758.178 81.9017 757.484 80.645C756.791 79.345 755.383 78.695 753.259 78.695C751.483 78.695 749.901 79.215 748.514 80.255C747.128 81.295 746.044 82.725 745.264 84.545C744.528 86.3217 744.159 88.315 744.159 90.525V104.955C744.159 106.732 744.463 107.967 745.069 108.66C745.719 109.31 746.846 109.635 748.449 109.635V111C744.809 110.827 742.383 110.74 741.169 110.74C739.956 110.74 737.356 110.827 733.369 111V109.635C735.189 109.635 736.468 109.31 737.204 108.66C737.941 107.967 738.309 106.732 738.309 104.955V84.61C738.309 82.6167 737.941 81.165 737.204 80.255C736.468 79.345 735.189 78.89 733.369 78.89V77.525C734.756 77.655 736.099 77.72 737.399 77.72C740.129 77.72 742.383 77.4167 744.159 76.81V84.48C745.243 81.7067 746.738 79.7133 748.644 78.5C750.594 77.2433 752.783 76.615 755.209 76.615ZM800.364 103.2C799.584 105.583 798.11 107.642 795.944 109.375C793.82 111.065 791.242 111.91 788.209 111.91C785.132 111.91 782.467 111.217 780.214 109.83C777.96 108.4 776.227 106.428 775.014 103.915C773.844 101.358 773.259 98.4117 773.259 95.075C773.259 91.305 773.865 88.0333 775.079 85.26C776.292 82.4867 778.004 80.3633 780.214 78.89C782.424 77.3733 785.002 76.615 787.949 76.615C791.849 76.615 794.839 77.8067 796.919 80.19C799.042 82.53 800.104 86.105 800.104 90.915H779.759C779.629 92.1283 779.564 93.515 779.564 95.075C779.564 97.935 780.019 100.427 780.929 102.55C781.882 104.673 783.117 106.32 784.634 107.49C786.194 108.617 787.819 109.18 789.509 109.18C791.589 109.18 793.43 108.682 795.034 107.685C796.637 106.688 797.98 105.02 799.064 102.68L800.364 103.2ZM787.689 77.85C785.652 77.85 783.897 78.8467 782.424 80.84C780.95 82.8333 780.04 85.78 779.694 89.68H793.864C793.95 86.3 793.452 83.4833 792.369 81.23C791.329 78.9767 789.769 77.85 787.689 77.85ZM834.544 103.98C834.544 105.973 834.913 107.425 835.649 108.335C836.386 109.245 837.664 109.7 839.484 109.7V111.065C838.141 110.935 836.798 110.87 835.454 110.87C832.724 110.87 830.471 111.173 828.694 111.78V104.11C827.654 106.797 826.181 108.768 824.274 110.025C822.368 111.282 820.288 111.91 818.034 111.91C815.088 111.91 812.834 111.087 811.274 109.44C810.494 108.573 809.931 107.468 809.584 106.125C809.281 104.782 809.129 103.048 809.129 100.925V84.61C809.129 82.6167 808.761 81.165 808.024 80.255C807.288 79.345 806.009 78.89 804.189 78.89V77.525C805.533 77.655 806.876 77.72 808.219 77.72C810.949 77.72 813.203 77.4167 814.979 76.81V102.355C814.979 104.002 815.066 105.345 815.239 106.385C815.456 107.382 815.911 108.205 816.604 108.855C817.341 109.505 818.446 109.83 819.919 109.83C821.566 109.83 823.061 109.31 824.404 108.27C825.748 107.23 826.788 105.822 827.524 104.045C828.304 102.225 828.694 100.232 828.694 98.065V84.61C828.694 82.6167 828.326 81.165 827.589 80.255C826.853 79.345 825.574 78.89 823.754 78.89V77.525C825.098 77.655 826.441 77.72 827.784 77.72C830.514 77.72 832.768 77.4167 834.544 76.81V103.98ZM863.018 76.615C864.751 76.615 866.16 77.1133 867.243 78.11C868.37 79.1067 868.933 80.32 868.933 81.75C868.933 82.8767 868.586 83.8517 867.893 84.675C867.243 85.455 866.355 85.845 865.228 85.845C864.275 85.845 863.451 85.5417 862.758 84.935C862.108 84.3283 861.783 83.505 861.783 82.465C861.783 81.035 862.52 79.865 863.993 78.955C863.69 78.5217 863.235 78.305 862.628 78.305C860.938 78.305 859.4 78.9767 858.013 80.32C856.626 81.62 855.543 83.2233 854.763 85.13C853.983 87.0367 853.593 88.835 853.593 90.525V104.305C853.593 106.298 854.156 107.685 855.283 108.465C856.453 109.245 858.186 109.635 860.483 109.635V111L858.923 110.935C854.503 110.805 851.686 110.74 850.473 110.74C849.346 110.74 846.79 110.827 842.803 111V109.635C844.623 109.635 845.901 109.31 846.638 108.66C847.375 107.967 847.743 106.732 847.743 104.955V84.61C847.743 82.6167 847.375 81.165 846.638 80.255C845.901 79.345 844.623 78.89 842.803 78.89V77.525C844.19 77.655 845.533 77.72 846.833 77.72C849.563 77.72 851.816 77.4167 853.593 76.81V84.935C854.373 82.7683 855.608 80.84 857.298 79.15C859.031 77.46 860.938 76.615 863.018 76.615ZM883.383 76.615C884.943 76.615 886.33 76.8533 887.543 77.33C888.757 77.8067 889.732 78.37 890.468 79.02C890.945 79.3667 891.335 79.54 891.638 79.54C892.418 79.54 892.895 78.5867 893.068 76.68H894.563C894.39 78.8033 894.303 82.4867 894.303 87.73H892.808C892.332 84.87 891.4 82.5083 890.013 80.645C888.67 78.7817 886.655 77.85 883.968 77.85C882.408 77.85 881.13 78.305 880.133 79.215C879.137 80.0817 878.638 81.295 878.638 82.855C878.638 84.3717 879.158 85.65 880.198 86.69C881.238 87.6867 882.907 88.9 885.203 90.33C885.593 90.5467 886.178 90.915 886.958 91.435C888.952 92.735 890.555 93.8833 891.768 94.88C892.982 95.8767 893.957 97.025 894.693 98.325C895.473 99.625 895.863 101.12 895.863 102.81C895.863 105.67 894.78 107.902 892.613 109.505C890.49 111.108 887.868 111.91 884.748 111.91C882.798 111.91 881.087 111.607 879.613 111C878.66 110.523 877.772 109.938 876.948 109.245C876.775 109.072 876.58 108.985 876.363 108.985C876.06 108.985 875.778 109.202 875.518 109.635C875.302 110.068 875.128 110.675 874.998 111.455H873.503C873.677 108.985 873.763 104.652 873.763 98.455H875.258C875.735 102.528 876.602 105.583 877.858 107.62C879.115 109.613 881.26 110.61 884.293 110.61C885.81 110.61 887.153 110.112 888.323 109.115C889.493 108.118 890.078 106.558 890.078 104.435C890.078 102.745 889.493 101.315 888.323 100.145C887.197 98.975 885.333 97.5667 882.733 95.92C880.61 94.5767 878.963 93.4717 877.793 92.605C876.667 91.7383 875.713 90.6767 874.933 89.42C874.153 88.1633 873.763 86.69 873.763 85C873.763 82.27 874.673 80.19 876.493 78.76C878.313 77.33 880.61 76.615 883.383 76.615ZM967.044 65.175C968.994 65.175 970.619 65.11 971.919 64.98V66.28C969.492 66.8433 967.781 68.7283 966.784 71.935L954.499 111.325H953.979H953.459L942.149 77.85L931.814 111.325H931.294H930.774L916.994 70.44C916.084 67.7533 914.589 66.3667 912.509 66.28V64.98C914.286 65.11 916.604 65.175 919.464 65.175C922.584 65.175 924.924 65.11 926.484 64.98V66.28C925.314 66.3667 924.491 66.5833 924.014 66.93C923.537 67.2767 923.299 67.8183 923.299 68.555C923.299 69.2483 923.537 70.31 924.014 71.74L933.504 100.73L941.434 75.575L939.679 70.44C938.812 67.7533 937.534 66.3667 935.844 66.28V64.98C937.404 65.11 939.506 65.175 942.149 65.175C945.876 65.175 948.649 65.11 950.469 64.98V66.28C948.822 66.3667 947.674 66.5617 947.024 66.865C946.374 67.125 946.049 67.71 946.049 68.62C946.049 69.4 946.266 70.44 946.699 71.74L956.059 100.665L964.054 75.51C964.747 73.3867 965.094 71.6317 965.094 70.245C965.094 68.815 964.661 67.8183 963.794 67.255C962.927 66.6483 961.519 66.3233 959.569 66.28V64.98C962.039 65.11 964.531 65.175 967.044 65.175ZM985.11 76.615C989.53 76.615 993.083 78.0883 995.77 81.035C998.5 83.9383 999.865 88.3583 999.865 94.295C999.865 100.232 998.5 104.652 995.77 107.555C993.083 110.458 989.53 111.91 985.11 111.91C980.69 111.91 977.115 110.458 974.385 107.555C971.698 104.652 970.355 100.232 970.355 94.295C970.355 88.3583 971.698 83.9383 974.385 81.035C977.115 78.0883 980.69 76.615 985.11 76.615ZM985.11 77.915C982.51 77.915 980.451 79.2583 978.935 81.945C977.418 84.5883 976.66 88.705 976.66 94.295C976.66 99.885 977.418 104.002 978.935 106.645C980.451 109.288 982.51 110.61 985.11 110.61C987.71 110.61 989.768 109.288 991.285 106.645C992.801 104.002 993.56 99.885 993.56 94.295C993.56 88.705 992.801 84.5883 991.285 81.945C989.768 79.2583 987.71 77.915 985.11 77.915ZM1025.01 76.615C1026.74 76.615 1028.15 77.1133 1029.24 78.11C1030.36 79.1067 1030.93 80.32 1030.93 81.75C1030.93 82.8767 1030.58 83.8517 1029.89 84.675C1029.24 85.455 1028.35 85.845 1027.22 85.845C1026.27 85.845 1025.44 85.5417 1024.75 84.935C1024.1 84.3283 1023.78 83.505 1023.78 82.465C1023.78 81.035 1024.51 79.865 1025.99 78.955C1025.68 78.5217 1025.23 78.305 1024.62 78.305C1022.93 78.305 1021.39 78.9767 1020.01 80.32C1018.62 81.62 1017.54 83.2233 1016.76 85.13C1015.98 87.0367 1015.59 88.835 1015.59 90.525V104.305C1015.59 106.298 1016.15 107.685 1017.28 108.465C1018.45 109.245 1020.18 109.635 1022.48 109.635V111L1020.92 110.935C1016.5 110.805 1013.68 110.74 1012.47 110.74C1011.34 110.74 1008.78 110.827 1004.8 111V109.635C1006.62 109.635 1007.89 109.31 1008.63 108.66C1009.37 107.967 1009.74 106.732 1009.74 104.955V84.61C1009.74 82.6167 1009.37 81.165 1008.63 80.255C1007.89 79.345 1006.62 78.89 1004.8 78.89V77.525C1006.18 77.655 1007.53 77.72 1008.83 77.72C1011.56 77.72 1013.81 77.4167 1015.59 76.81V84.935C1016.37 82.7683 1017.6 80.84 1019.29 79.15C1021.02 77.46 1022.93 76.615 1025.01 76.615ZM1061.33 106.255C1062.15 107.338 1062.89 108.14 1063.54 108.66C1064.19 109.18 1064.97 109.505 1065.88 109.635V111C1063.28 110.827 1061.53 110.74 1060.62 110.74C1059.45 110.74 1057.04 110.827 1053.4 111V109.635C1054.01 109.635 1054.48 109.527 1054.83 109.31C1055.22 109.05 1055.42 108.747 1055.42 108.4C1055.42 108.053 1055.29 107.728 1055.03 107.425L1047.55 96.505C1046.81 95.4217 1046.1 94.7067 1045.41 94.36C1044.76 93.97 1043.85 93.7317 1042.68 93.645V104.955C1042.68 106.732 1042.98 107.967 1043.59 108.66C1044.24 109.31 1045.36 109.635 1046.97 109.635V111C1043.33 110.827 1040.92 110.74 1039.75 110.74C1038.49 110.74 1035.87 110.827 1031.89 111V109.635C1033.71 109.635 1034.98 109.31 1035.72 108.66C1036.46 107.967 1036.83 106.732 1036.83 104.955V67.84C1036.83 65.8467 1036.46 64.395 1035.72 63.485C1034.98 62.575 1033.71 62.12 1031.89 62.12V60.755C1033.27 60.885 1034.62 60.95 1035.92 60.95C1038.65 60.95 1040.9 60.6467 1042.68 60.04V92.28C1043.93 92.1067 1044.97 91.825 1045.8 91.435C1046.66 91.0017 1047.49 90.395 1048.27 89.615L1053.08 84.61C1054.46 83.18 1055.16 81.9883 1055.16 81.035C1055.16 80.2983 1054.7 79.7567 1053.79 79.41C1052.92 79.02 1051.78 78.825 1050.35 78.825V77.525C1053.38 77.6983 1055.83 77.785 1057.69 77.785C1059.73 77.785 1061.61 77.6983 1063.35 77.525V78.825C1061.22 78.9983 1059.27 80.0167 1057.5 81.88L1049.57 90.2L1061.33 106.255ZM1079.84 76.615C1081.4 76.615 1082.79 76.8533 1084 77.33C1085.22 77.8067 1086.19 78.37 1086.93 79.02C1087.4 79.3667 1087.79 79.54 1088.1 79.54C1088.88 79.54 1089.35 78.5867 1089.53 76.68H1091.02C1090.85 78.8033 1090.76 82.4867 1090.76 87.73H1089.27C1088.79 84.87 1087.86 82.5083 1086.47 80.645C1085.13 78.7817 1083.11 77.85 1080.43 77.85C1078.87 77.85 1077.59 78.305 1076.59 79.215C1075.6 80.0817 1075.1 81.295 1075.1 82.855C1075.1 84.3717 1075.62 85.65 1076.66 86.69C1077.7 87.6867 1079.37 88.9 1081.66 90.33C1082.05 90.5467 1082.64 90.915 1083.42 91.435C1085.41 92.735 1087.01 93.8833 1088.23 94.88C1089.44 95.8767 1090.42 97.025 1091.15 98.325C1091.93 99.625 1092.32 101.12 1092.32 102.81C1092.32 105.67 1091.24 107.902 1089.07 109.505C1086.95 111.108 1084.33 111.91 1081.21 111.91C1079.26 111.91 1077.55 111.607 1076.07 111C1075.12 110.523 1074.23 109.938 1073.41 109.245C1073.23 109.072 1073.04 108.985 1072.82 108.985C1072.52 108.985 1072.24 109.202 1071.98 109.635C1071.76 110.068 1071.59 110.675 1071.46 111.455H1069.96C1070.14 108.985 1070.22 104.652 1070.22 98.455H1071.72C1072.19 102.528 1073.06 105.583 1074.32 107.62C1075.57 109.613 1077.72 110.61 1080.75 110.61C1082.27 110.61 1083.61 110.112 1084.78 109.115C1085.95 108.118 1086.54 106.558 1086.54 104.435C1086.54 102.745 1085.95 101.315 1084.78 100.145C1083.66 98.975 1081.79 97.5667 1079.19 95.92C1077.07 94.5767 1075.42 93.4717 1074.25 92.605C1073.13 91.7383 1072.17 90.6767 1071.39 89.42C1070.61 88.1633 1070.22 86.69 1070.22 85C1070.22 82.27 1071.13 80.19 1072.95 78.76C1074.77 77.33 1077.07 76.615 1079.84 76.615ZM1107.49 84.415C1108.57 81.685 1110.06 79.7133 1111.97 78.5C1113.92 77.2433 1116.11 76.615 1118.54 76.615C1121.57 76.615 1123.87 77.4383 1125.43 79.085C1126.25 79.9517 1126.83 81.035 1127.18 82.335C1127.53 83.635 1127.7 85.39 1127.7 87.6V104.955C1127.7 106.732 1128.07 107.967 1128.81 108.66C1129.54 109.31 1130.82 109.635 1132.64 109.635V111C1128.65 110.827 1126.05 110.74 1124.84 110.74C1123.63 110.74 1121.2 110.827 1117.56 111V109.635C1119.16 109.635 1120.27 109.31 1120.88 108.66C1121.53 107.967 1121.85 106.732 1121.85 104.955V86.17C1121.85 83.7433 1121.5 81.9017 1120.81 80.645C1120.12 79.345 1118.71 78.695 1116.59 78.695C1114.81 78.695 1113.23 79.1933 1111.84 80.19C1110.5 81.1867 1109.44 82.595 1108.66 84.415C1107.88 86.1917 1107.49 88.2067 1107.49 90.46V104.955C1107.49 106.732 1107.79 107.967 1108.4 108.66C1109.05 109.31 1110.17 109.635 1111.78 109.635V111C1108.14 110.827 1105.71 110.74 1104.5 110.74C1103.28 110.74 1100.68 110.827 1096.7 111V109.635C1098.52 109.635 1099.79 109.31 1100.53 108.66C1101.27 107.967 1101.64 106.732 1101.64 104.955V67.905C1101.64 65.9117 1101.27 64.46 1100.53 63.55C1099.79 62.64 1098.52 62.185 1096.7 62.185V60.82C1098.08 60.95 1099.43 61.015 1100.73 61.015C1103.46 61.015 1105.71 60.7117 1107.49 60.105V84.415ZM1151.42 76.615C1155.84 76.615 1159.39 78.0883 1162.08 81.035C1164.81 83.9383 1166.17 88.3583 1166.17 94.295C1166.17 100.232 1164.81 104.652 1162.08 107.555C1159.39 110.458 1155.84 111.91 1151.42 111.91C1147 111.91 1143.42 110.458 1140.69 107.555C1138.01 104.652 1136.66 100.232 1136.66 94.295C1136.66 88.3583 1138.01 83.9383 1140.69 81.035C1143.42 78.0883 1147 76.615 1151.42 76.615ZM1151.42 77.915C1148.82 77.915 1146.76 79.2583 1145.24 81.945C1143.73 84.5883 1142.97 88.705 1142.97 94.295C1142.97 99.885 1143.73 104.002 1145.24 106.645C1146.76 109.288 1148.82 110.61 1151.42 110.61C1154.02 110.61 1156.08 109.288 1157.59 106.645C1159.11 104.002 1159.87 99.885 1159.87 94.295C1159.87 88.705 1159.11 84.5883 1157.59 81.945C1156.08 79.2583 1154.02 77.915 1151.42 77.915ZM1191.84 76.615C1194.14 76.615 1196.19 77.2433 1198.01 78.5C1199.88 79.7567 1201.33 81.5983 1202.37 84.025C1203.41 86.4517 1203.93 89.355 1203.93 92.735C1203.93 96.0717 1203.39 99.1917 1202.3 102.095C1201.26 104.998 1199.62 107.36 1197.36 109.18C1195.15 111 1192.38 111.91 1189.04 111.91C1187.4 111.91 1185.9 111.585 1184.56 110.935C1183.22 110.285 1182.18 109.44 1181.44 108.4V116.72C1181.44 118.497 1181.96 119.71 1183 120.36C1184.04 121.053 1185.6 121.4 1187.68 121.4V122.765L1186.18 122.7C1182.15 122.57 1179.53 122.505 1178.32 122.505C1177.28 122.505 1174.94 122.592 1171.3 122.765V121.4C1172.9 121.4 1174.01 121.097 1174.61 120.49C1175.26 119.927 1175.59 118.887 1175.59 117.37V84.61C1175.59 82.6167 1175.22 81.165 1174.48 80.255C1173.75 79.345 1172.47 78.89 1170.65 78.89V77.525C1171.99 77.655 1173.34 77.72 1174.68 77.72C1177.41 77.72 1179.66 77.4167 1181.44 76.81V83.7C1182.39 81.4467 1183.78 79.7133 1185.6 78.5C1187.42 77.2433 1189.5 76.615 1191.84 76.615ZM1188.33 110.415C1194.53 110.415 1197.62 104.825 1197.62 93.645C1197.62 83.5917 1195.11 78.565 1190.08 78.565C1188.13 78.565 1186.38 79.28 1184.82 80.71C1183.26 82.0967 1182.13 84.1117 1181.44 86.755V106.255C1182.05 107.512 1182.93 108.53 1184.1 109.31C1185.27 110.047 1186.68 110.415 1188.33 110.415Z" fill="white"/>
</svg>
