<svg id="Layer_1" data-name="Layer 1" xmlns="http://www.w3.org/2000/svg" viewBox="0 0 480 94.52"><title>JF_Logo_Black</title><path d="M85.36,90.81c-.78,0-1,.13-1,.51v65.89c0,14.76-10.78,23.41-26.43,23.41-11.57,0-24.07-10.68-24.07-21.37,0-7.5,5.79-12.46,10.78-12.46,5.66,0,10.26,5.08,10.26,10.55,0,8.27-6.57,6.49-6.57,12.6,0,4.45,5.12,8.26,9.6,8.26,6.7,0,7.89-3.43,7.89-10.43V91.32a.48.48,0,0,0-.53-.51H53.93a4.23,4.23,0,0,1,0-2.54H96.41c.27,0,.27,2.54,0,2.54Z" transform="translate(-33.81 -86.11)"/><path d="M164.11,90.81c-.4,0-.24.34-.24.72v60.38c0,17.55-10.39,28.71-31.69,28.71-18.94,0-32.61-8.27-32.61-27.22V91.32c0-.38-.27-.51-.66-.51H87.73c-.27,0-.27-2.54,0-2.54h42.48a4.23,4.23,0,0,1,0,2.54H118.89c-.65,0-.91.13-.91.51V153.4c0,14.88,3.81,23.54,17.49,23.54,17.23,0,24.08-10,24.08-25l-.06-60.35c0-.38.11-.75-.42-.75H147.56a4.23,4.23,0,0,1,0-2.54h27.23a4.23,4.23,0,0,1,0,2.54Z" transform="translate(-33.81 -86.11)"/><path d="M202.49,180.62c-8.54,0-16.43-5.22-21.17-5.22-3.68,0-6.57,2.55-6.84,4.84-.26.38-2.63.38-2.63,0V148.69c0-.38,2.63-.38,2.63,0,0,10.18,11.44,29.51,27.88,29.51,14.74,0,20.52-7.75,20.52-16,0-12.47-7.37-14.25-27-21.38-11.84-4.32-21.31-10.68-21.31-25.82,0-16.92,11.84-28.87,24.72-28.87,7.77,0,8.95,3.43,15.79,3.43,3.68,0,5-1.66,5.26-3.05,0-.38,2.37-.38,2.37,0v24.68c0,.25-2.37.25-2.37,0,0-12.09-9.21-22.52-20.91-22.52-10.13,0-16.05,6.11-16.05,14.76,0,9.16,6.58,13.1,22.63,18.83,16.3,6.22,26.56,11.82,26.56,27.34,0,14.5-10.26,31-30.12,31" transform="translate(-33.81 -86.11)"/><path d="M307,120.2c0-14.76-8.29-29.39-26.83-29.39H279c-.52,0-.78.13-.78.51v84.09c0,.37.26.5.78.5h11.05c.27,0,.27,2.55,0,2.55H247.73a8.39,8.39,0,0,1,0-2.55h11.18c.52,0,.78-.13.78-.51V91.32c0-.38-.26-.51-.78-.51h-1.32c-18.41,0-26,14.63-26,29.39,0,.26-2.36.26-2.36,0V88.65a.41.41,0,0,1,.39-.38H309c.27,0,.27.26.27.38V120.2c0,.26-2.24.26-2.24,0" transform="translate(-33.81 -86.11)"/><path d="M378.84,116.38c0-11.83-9.6-25.57-25.39-25.57h-9.2c-.53,0-.79.13-.79.51v39.56h2.23c10.27,0,18.42-8.52,18.42-17.3a4.23,4.23,0,0,1,2.49,0v37.15a4.07,4.07,0,0,1-2.49,0c0-8.66-8.15-17.3-18.42-17.3h-2.23v42c0,.37.26.5.79.5h11.31a4.23,4.23,0,0,1,0,2.54H313c-.27,0-.27-2.54,0-2.54h11.31c.4,0,.66-.13.66-.5V91.32c0-.38-.26-.51-.66-.51H313c-.27,0-.27-2.54,0-2.54h68.12a.42.42,0,0,1,.4.38v27.73a8.92,8.92,0,0,1-2.63,0" transform="translate(-33.81 -86.11)"/><path d="M398.52,111.79l-11.2,34.86h24.25Zm11.21,66.67a4.27,4.27,0,0,1,0-2.55h11.19c.38,0,.65-.25.52-.25l-8.81-26.07-26.44-.06-7.63,21.16c-1.44,4.58-1.95,5.22-1.95,5.22H387c.39,0,.39,2.55,0,2.55H361.59a4.43,4.43,0,0,1,0-2.55h10c1.19,0,1.45-.38,3.29-5.33l29-84.09c.13-.38,2.37-.38,2.5,0l34.94,89.17a1.86,1.86,0,0,0,.92.25h11.3c.27,0,.27,2.55,0,2.55Z" transform="translate(-33.81 -86.11)"/><path d="M478.84,131.54h-7.75v43.87c0,.38.26.5.79.5h8.81c11.95,0,14.72-3.94,14.72-20.59,0-20.34-3.68-23.78-16.57-23.78M476,90.85h-4.07c-.53,0-.79.13-.79.52v37.76h9.07c8.94,0,10.91-3.82,10.91-19.46,0-15-3-18.82-15.12-18.82m8.16,87.61H440.59c-.38,0-.38-2.55,0-2.55h11.18c.52,0,.79-.12.79-.5v-84c0-.39-.27-.52-.79-.52H440.59c-.38,0-.38-2.53,0-2.53h37.47c17.22,0,29.7,6.73,29.7,20.84,0,12.21-10.77,21.24-21.69,21.24,15.25,0,27.74,9,27.74,24.16,0,12.07-9.85,23.9-29.7,23.9" transform="translate(-33.81 -86.11)"/></svg>