<?xml version="1.0" encoding="utf-8"?>
<!-- Generator: Adobe Illustrator 24.0.3, SVG Export Plug-In . SVG Version: 6.00 Build 0)  -->
<svg version="1.1" id="vip" xmlns="http://www.w3.org/2000/svg" xmlns:xlink="http://www.w3.org/1999/xlink" x="0px" y="0px"
	 viewBox="0 0 100 100" style="enable-background:new 0 0 100 100;" xml:space="preserve">
<g>
	<path d="M20.91,96.75c-0.41,0-0.81-0.13-1.15-0.37c-0.61-0.44-0.91-1.19-0.78-1.93l5.35-31.3L1.65,40.99
		c-0.54-0.52-0.73-1.3-0.49-2.02S2,37.75,2.74,37.64l31.33-4.57L48.08,4.6c0.33-0.67,1.02-1.1,1.77-1.1l0,0
		c0.75,0,1.44,0.43,1.77,1.1l14.01,28.47l31.33,4.57c0.74,0.11,1.35,0.63,1.59,1.34c0.23,0.71,0.04,1.49-0.5,2.02L75.37,63.16
		l5.35,31.3c0.13,0.74-0.18,1.49-0.78,1.93c-0.61,0.44-1.41,0.5-2.07,0.15L49.85,81.76L21.83,96.53
		C21.54,96.68,21.22,96.75,20.91,96.75z M7.25,40.96l20.57,20.11c0.46,0.45,0.67,1.1,0.56,1.74l-4.85,28.38l25.41-13.4
		c0.58-0.3,1.26-0.3,1.84,0l25.41,13.4L71.32,62.8c-0.11-0.64,0.1-1.29,0.56-1.74l20.57-20.11l-28.42-4.14
		c-0.64-0.09-1.2-0.5-1.48-1.08L49.85,9.92l-12.7,25.82c-0.29,0.58-0.84,0.99-1.48,1.08L7.25,40.96z"/>
</g>
<path d="M33.62,49.92h2.71l3.5,10.09l3.5-10.09h2.6l-5.01,13.59h-2.28L33.62,49.92z"/>
<path d="M49.28,49.92h2.56v13.57h-2.56V49.92z"/>
<path d="M56.5,49.92h4.37c2.58,0,4.82,1.24,4.82,4.07c0,2.79-2.26,4.15-4.82,4.15h-1.79v5.35H56.5V49.92z M63.05,53.99
	c0-1.49-1.24-2.07-2.56-2.07h-1.44v4.21h1.49C61.91,56.13,63.05,55.46,63.05,53.99z"/>
</svg>
